<?xml version="1.0" encoding="UTF-8" standalone="no"?>
<!-- Created with Inkscape (http://www.inkscape.org/) -->

<svg
   xmlns:dc="http://purl.org/dc/elements/1.1/"
   xmlns:cc="http://creativecommons.org/ns#"
   xmlns:rdf="http://www.w3.org/1999/02/22-rdf-syntax-ns#"
   xmlns:svg="http://www.w3.org/2000/svg"
   xmlns="http://www.w3.org/2000/svg"
   xmlns:xlink="http://www.w3.org/1999/xlink"
   xmlns:sodipodi="http://sodipodi.sourceforge.net/DTD/sodipodi-0.dtd"
   xmlns:inkscape="http://www.inkscape.org/namespaces/inkscape"
   width="514.45093"
   height="491.68753"
   id="svg2"
   version="1.1"
   inkscape:version="0.48.4 r9939"
   sodipodi:docname="blueprint.svg">
  <defs
     id="defs4">
    <linearGradient
       id="linearGradient4002">
      <stop
         style="stop-color:#ffffff;stop-opacity:1;"
         offset="0"
         id="stop4004" />
      <stop
         style="stop-color:#ffffff;stop-opacity:0;"
         offset="1"
         id="stop4006" />
    </linearGradient>
    <linearGradient
       id="linearGradient3994">
      <stop
         style="stop-color:#ffffff;stop-opacity:1;"
         offset="0"
         id="stop3996" />
      <stop
         style="stop-color:#ffffff;stop-opacity:0;"
         offset="1"
         id="stop3998" />
    </linearGradient>
    <radialGradient
       inkscape:collect="always"
       xlink:href="#linearGradient3994"
       id="radialGradient4000"
       cx="-773.35938"
       cy="-48.984375"
       fx="-773.35938"
       fy="-48.984375"
       r="591.60938"
       gradientTransform="matrix(0.59351169,-2.1770661e-8,1.867529e-8,0.50912572,-316.98614,-22.764792)"
       gradientUnits="userSpaceOnUse" />
    <radialGradient
       inkscape:collect="always"
       xlink:href="#linearGradient4002"
       id="radialGradient4008"
       cx="-788.57812"
       cy="-49.0625"
       fx="-788.57812"
       fy="-49.0625"
       r="588.57812"
       gradientTransform="matrix(0.44805061,0,0,0.42373946,-429.22677,-29.043457)"
       gradientUnits="userSpaceOnUse" />
    <radialGradient
       inkscape:collect="always"
       xlink:href="#linearGradient3994"
       id="radialGradient3863"
       gradientUnits="userSpaceOnUse"
       gradientTransform="matrix(0.59351169,-2.1770661e-8,1.867529e-8,0.50912572,-316.98614,-22.764792)"
       cx="-773.35938"
       cy="-48.984375"
       fx="-773.35938"
       fy="-48.984375"
       r="591.60938" />
    <radialGradient
       inkscape:collect="always"
       xlink:href="#linearGradient4002"
       id="radialGradient3865"
       gradientUnits="userSpaceOnUse"
       gradientTransform="matrix(0.44805061,0,0,0.42373946,-429.22677,-29.043457)"
       cx="-788.57812"
       cy="-49.0625"
       fx="-788.57812"
       fy="-49.0625"
       r="588.57812" />
    <filter
       inkscape:collect="always"
       id="filter3868">
      <feGaussianBlur
         inkscape:collect="always"
         stdDeviation="1.2158668"
         id="feGaussianBlur3870" />
    </filter>
  </defs>
  <sodipodi:namedview
     id="base"
     pagecolor="#2c2c2c"
     bordercolor="#666666"
     borderopacity="1.0"
     inkscape:pageopacity="0"
     inkscape:pageshadow="2"
     inkscape:zoom="1.4142136"
     inkscape:cx="65.265907"
     inkscape:cy="305.54953"
     inkscape:document-units="px"
     inkscape:current-layer="layer1"
     showgrid="false"
     showborder="false"
     inkscape:window-width="1920"
     inkscape:window-height="1031"
     inkscape:window-x="0"
     inkscape:window-y="0"
     inkscape:window-maximized="1"
     fit-margin-top="0"
     fit-margin-left="0"
     fit-margin-right="0"
     fit-margin-bottom="0" />
  <metadata
     id="metadata7">
    <rdf:RDF>
      <cc:Work
         rdf:about="">
        <dc:format>image/svg+xml</dc:format>
        <dc:type
           rdf:resource="http://purl.org/dc/dcmitype/StillImage" />
        <dc:title />
      </cc:Work>
    </rdf:RDF>
  </metadata>
  <g
     inkscape:label="Layer 1"
     inkscape:groupmode="layer"
     id="layer1"
     transform="translate(1035.2009,294.09377)">
    <path
       style="opacity:0.03423731;fill:#ffffff;fill-opacity:1;fill-rule:nonzero;stroke:none"
       id="path3857"
       d="m 201.92331,78.515819 c 8.76256,0.409741 17.53951,0.426344 26.30992,0.495943 10.49225,-0.08286 20.98243,0.209152 31.43897,1.089157 4.36981,0.297711 8.64534,1.263233 12.9445,2.03139 3.02394,0.531883 6.07808,0.827403 9.12132,1.214499 2.76889,0.439248 5.57046,0.545633 8.35728,0.807549 3.38983,0.263106 6.6961,0.988966 9.96559,1.883127 1.29072,0.564776 2.66024,0.975866 3.87216,1.694329 1.5239,0.903416 3.08185,1.843101 4.28628,3.142251 4.35555,4.698101 7.31509,10.241696 6.05585,17.148186 -1.62843,8.93134 -4.51176,10.37993 -9.88708,14.9164 -1.8984,1.06818 -3.73776,2.24885 -5.6952,3.20454 -1.8542,0.90529 -3.79252,1.62977 -5.71919,2.36841 -8.05012,3.08621 -16.35352,5.1847 -24.73086,7.14963 -11.8785,2.88406 -23.99268,4.53094 -36.0741,6.27772 -10.80174,1.64977 -21.45845,4.15346 -32.04888,6.81924 -8.13834,2.08121 -16.47853,3.55221 -24.41975,6.34053 -0.32855,0.15413 -0.67232,0.27928 -0.98564,0.46239 -0.0364,0.0213 0.0802,0.0618 0.11859,0.0443 0.3965,-0.18044 0.84983,-0.30545 1.14964,-0.6215 4.72391,-4.97964 6.99697,-6.62094 7.10405,-13.8056 0.0333,-2.23616 -0.98612,-4.36276 -1.47918,-6.54413 -0.0453,-0.2474 -0.38596,-0.76746 -0.13574,-0.74219 0.52674,0.0532 0.89254,0.56976 1.33324,0.86312 1.01416,0.67509 1.99056,1.40859 3.03118,2.04214 1.3184,0.80265 2.66364,1.56417 4.03995,2.26287 4.69849,2.38525 7.49365,3.39113 12.54134,5.45651 19.27402,6.99929 39.76755,9.49443 59.97581,12.24448 9.17271,1.24383 18.39233,2.08926 27.57746,3.22788 3.13989,0.38924 7.41834,0.94809 10.60554,1.59033 1.34487,0.271 2.66914,0.6357 4.00371,0.95355 1.67898,0.66541 3.51365,1.02601 5.03694,1.99624 8.20115,5.22356 11.47122,9.6677 10.97738,21.32453 -0.27813,6.5651 -5.82802,11.6279 -10.67601,14.96307 -1.6242,1.11736 -3.46482,1.8818 -5.19722,2.8227 -14.31033,6.57835 -29.89118,9.44593 -45.2851,12.2146 -21.29986,3.63943 -42.80031,5.89765 -64.3098,7.85393 -2.39695,0.22938 -4.79445,0.45319 -7.19086,0.68815 -1.77937,0.17446 -3.56056,0.33322 -5.33646,0.54011 -0.93915,0.10942 -1.87545,0.24634 -2.80693,0.4086 -0.10583,0.0184 -0.35983,0.21661 -0.29417,0.1316 4.83148,-6.25483 13.95851,-10.7947 14.6147,-18.67095 0.56176,-6.7428 -7.78389,-11.06955 -11.67583,-16.60432 18.17546,2.79105 36.56985,3.79546 54.89956,5.01397 37.06347,2.26268 74.13252,4.47865 111.21235,6.46422 9.81642,0.64446 19.64755,1.17352 29.44141,2.1255 1.4133,0.13737 2.82967,0.26327 4.23209,0.48578 1.24089,0.19688 3.62823,-0.48385 3.68953,0.77106 0.5977,12.23678 -1.23928,24.47138 -1.85892,36.70706 -2.06721,0.17144 -4.12994,0.41019 -6.20163,0.51431 -2.17811,0.10947 -13.93537,0.14702 -14.83813,0.15037 -12.67637,0.0471 -25.35305,0.0331 -38.02948,0.0335 -31.38643,-0.01 -62.77286,-0.0214 -94.15929,-0.0281 -12.06967,0.0696 -24.14128,-0.12319 -36.21037,0.0787 -4.56944,0.0764 -9.13651,0.14696 -13.66347,0.79894 13.32584,-1.47454 13.15935,-14.27112 12.12591,-25.52048 -0.2266,-2.46658 -3.20074,-3.78171 -4.75533,-5.71007 -0.0686,-0.0851 -0.20534,-0.34002 -0.0997,-0.31225 1.04743,0.27526 2.04038,0.72691 3.06057,1.09036 16.84654,5.88512 34.11127,10.36145 51.47253,14.42023 10.25359,2.33662 20.57862,4.34056 30.76367,6.97349 3.89109,1.00588 9.77769,2.63381 13.68346,4.11248 1.71689,0.64999 3.36546,1.46782 5.04819,2.20174 9.63534,7.05566 14.38518,8.23526 9.92987,27.32084 -1.14598,4.90914 -6.95522,7.45312 -11.22119,10.1391 -2.68397,1.68991 -6.03882,1.97041 -9.13116,2.67535 -4.67166,1.06495 -14.36522,2.11891 -18.96215,2.68111 -24.78783,2.65442 -49.61691,4.89262 -74.40466,7.54956 -9.45189,1.25429 -19.03298,1.54608 -28.45248,3.07551 -0.93942,0.15254 -3.63626,1.08025 -2.77329,0.67892 13.40989,-6.23633 1.46125,13.31176 9.26618,-28.7068 -1.30152,-1.22957 -3.55839,-1.93201 -3.90456,-3.6887 -0.21779,-1.10524 2.20622,0.45682 3.31105,0.67675 2.2333,0.44454 4.46223,0.91286 6.70325,1.31665 10.08796,1.81766 20.24706,3.14909 30.40371,4.50927 11.2144,1.57523 22.49021,2.6335 33.71733,4.10677 4.91391,0.64482 10.27492,1.35501 15.14451,2.45916 1.79657,0.40735 3.55296,0.97509 5.32944,1.46264 12.91588,6.98873 15.60563,5.83575 10.24434,31.60932 -0.84178,4.04676 -6.53111,5.12254 -10.14046,7.13686 -2.33775,1.30466 -4.99997,1.92422 -7.55096,2.73642 -5.85578,1.86438 -12.31479,3.32307 -18.2668,4.7736 -18.15185,4.16352 -36.50459,7.36436 -54.6378,11.60762 -1.22977,0.33382 -2.46817,0.63732 -3.68931,1.00147 -3.70321,1.10432 1.52594,0.10462 1.65847,-0.77849 1.51078,-10.06664 3.31293,-20.41707 1.80789,-30.48457 -0.52635,-3.52087 -10.45672,-3.29149 -5.65686,-3.31716 6.30665,0.31448 12.76937,-0.34185 18.99862,0.9867 1.67836,0.35796 3.30532,0.92467 4.95798,1.387 7.28186,4.44553 8.6947,3.97422 12.73822,12.39275 0.99794,2.0777 1.214,4.4594 1.53971,6.74121 0.19342,1.35508 0.0231,2.73769 0.009,4.10643 -0.005,0.46482 -0.0472,1.8574 -0.0665,1.39295 -0.0349,-0.84315 0.0129,-1.68771 0.0193,-2.53156 -0.20708,-1.00282 -0.51718,-1.98978 -0.62126,-3.00845 -0.0111,-0.10888 0.2127,-0.19812 0.30036,-0.1326 0.67375,0.50354 1.19966,1.18107 1.83698,1.72999 4.23258,3.64548 8.84793,6.61482 13.55478,9.60081 11.95691,7.22881 24.84849,12.65715 37.25268,19.02783 3.72448,2.28306 11.5729,6.54725 11.05685,11.24818 -1.01538,9.24967 -5.86003,17.95086 -11.20362,25.56883 -1.55141,2.21173 -5.25298,1.29772 -7.92437,1.70055 -2.26559,0.34164 -9.5376,0.39836 -11.62622,0.43793 -3.72679,0.12256 -7.11684,0.15327 -10.80801,0.55638 -0.861,0.094 -3.34308,0.81936 -2.55874,0.45196 2.41627,-1.13183 6.26355,-0.41174 7.50971,-2.77109 9.83838,-18.62695 8.72319,-17.29451 1.62825,-27.20495 9.85203,3.39775 20.15711,5.12011 30.28373,7.47375 12.82212,3.57791 16.0577,3.49592 7.46426,34.89759 -1.18881,4.34411 -13.85117,2.40097 -18.69078,1.9809 -1.947,-0.169 -3.89589,-0.31697 -5.84574,-0.44919 -2.34124,-0.15877 -4.68473,-0.28251 -7.02709,-0.42376 -16.68942,-0.82284 1.41778,0.0609 -13.57408,-0.64592 -1.46908,-0.0693 -2.93693,-0.16722 -4.40679,-0.21753 -0.25787,-0.009 -0.83941,0.28959 -0.773,0.0403 9.58012,-35.96981 20.49958,-28.68898 6.99288,-36.14223 4.44762,0.89502 8.88924,1.81847 13.33162,2.73888 1.07333,0.22238 5.44013,1.06837 6.67831,1.47607 1.57182,0.51756 3.08664,1.19438 4.62996,1.79157 -0.79788,11.53645 0.56973,23.43148 -2.39364,34.60935 -0.61916,2.33545 -4.73314,0.99787 -7.12901,1.3101 -1.36118,0.17739 -2.74334,0.10561 -4.11513,0.15526 -3.97362,0.1438 -7.93447,0.25278 -11.90076,0.54017 -2.00438,0.34167 -4.19886,0.31514 -6.1432,1.02426 -0.20265,0.0739 0.43698,-0.0194 0.64085,-0.0898 0.70068,-0.24222 1.53649,-0.31631 2.05807,-0.84316 3.00221,-3.03254 5.57868,-6.45883 8.36802,-9.68824 -0.71008,-5.55276 -0.41152,-11.33067 -2.13025,-16.65826 -0.67529,-2.09324 -3.16795,-3.05226 -4.72855,-4.60216 -0.0336,-0.0334 0.17012,0.0741 0.13606,0.0412 -0.11467,-0.11087 -0.53737,-0.33305 -0.38597,-0.28284 0.73626,0.24423 1.43719,0.58433 2.15811,0.87068 0.79225,0.3147 1.58757,0.62163 2.38135,0.93244 7.72498,3.27358 15.77639,5.76741 23.36552,9.36859 3.08861,1.4656 6.09246,3.10356 9.13869,4.65534 23.55945,12.1327 6.40121,45.45079 -17.15823,33.31808 l 0,0 c -2.2608,-1.18125 -4.48428,-2.43685 -6.78239,-3.54374 -7.20142,-3.46858 -14.90998,-5.74544 -22.24068,-8.90648 -2.72417,-1.06885 -5.49302,-2.10152 -8.1377,-3.35789 -0.6564,-0.31183 -1.34396,-0.5956 -1.9096,-1.05184 -2.15732,-1.74008 -5.21538,-2.93009 -6.2265,-5.51069 -2.17499,-5.55103 -1.90069,-11.77139 -2.85104,-17.65708 2.8991,-3.5429 5.4576,-7.39433 8.69731,-10.62871 0.97542,-0.97381 2.45152,-1.27044 3.73209,-1.78025 4.89471,-1.94865 10.26093,-2.40237 15.43646,-2.99704 4.43017,-0.29493 8.84875,-0.47769 13.28652,-0.61011 0.74207,-0.0221 2.70354,-0.61621 2.22669,-0.0472 -0.67485,0.80526 -2.88103,-0.0749 -2.99926,0.96908 -1.27865,11.29001 -0.64626,22.71518 -0.96939,34.07277 1.00304,0.33075 2.03366,0.58733 3.00912,0.99226 0.50834,0.21102 -1.06258,-0.28934 -1.60018,-0.40738 -4.4463,-0.97628 -8.92184,-1.83983 -13.38179,-2.7509 -1.43592,-0.29332 -2.87087,-0.59135 -4.3063,-0.88703 -18.82866,-6.48404 -11.68065,-1.01602 0.85646,-37.89788 0.32047,-0.94279 1.99195,-0.0258 2.98728,0.004 3.56492,0.10539 7.12514,0.33356 10.68755,0.50387 2.57178,0.12295 5.14311,0.25518 7.71466,0.38277 6.14665,0.37518 8.40262,0.46845 14.37186,0.99415 1.59833,0.14076 6.09374,-0.44753 4.78892,0.48625 -2.72876,1.95281 -9.19247,-0.35838 -9.61851,2.97 -4.02047,31.40945 16.10044,37.26607 3.77595,33.44934 -13.83521,-3.23889 -28.14243,-5.31427 -40.96674,-11.78284 -3.31111,-3.00243 -9.1364,-4.60923 -9.93333,-9.0073 -1.50183,-8.28833 0.16698,-17.37446 3.77368,-24.98654 1.68425,-3.55467 6.878,-3.883 10.56036,-5.26597 1.751,-0.65762 3.69523,-0.5953 5.55583,-0.78673 4.40983,-0.4537 8.38509,-0.5025 12.81387,-0.64509 1.65046,-0.0256 3.30108,-0.0426 4.95139,-0.0768 0.90508,-0.0187 2.1771,-0.81035 2.71459,-0.0819 0.45037,0.61037 -1.76873,0.27133 -2.05717,0.97289 -3.26521,7.94209 -7.87269,15.79363 -8.36072,24.36686 -0.10993,1.9312 9.67913,9.60568 5.93035,6.64576 -10.58519,-5.48204 -21.51664,-10.22537 -31.95236,-16.01039 -2.81825,-1.56229 -5.59351,-3.20088 -8.39027,-4.80133 -2.57366,-1.6697 -5.20133,-3.25897 -7.72098,-5.00911 -4.18121,-2.90424 -8.89514,-6.58507 -12.58139,-10.13798 -2.9049,-2.79981 -6.74297,-7.13194 -8.61289,-10.7472 -1.20684,-2.33329 -1.87334,-4.9085 -2.81001,-7.36275 -0.17924,-1.90494 -0.41116,-3.80566 -0.53773,-5.71482 -0.0308,-0.46394 -0.39202,-1.47051 0.0665,-1.39328 0.47136,0.0794 0.02,0.9639 0.13653,1.42747 0.36022,1.43291 0.54068,2.96679 1.28846,4.24107 3.62004,6.16888 4.06148,5.50778 9.67041,8.36348 0.44883,0.0535 0.89599,0.19726 1.34649,0.16043 0.27289,-0.0223 -0.52318,-0.17497 -0.79527,-0.20549 -0.83545,-0.0937 -1.67666,-0.13047 -2.51659,-0.16597 -3.96115,-0.16741 -7.9273,-0.0511 -11.88845,-0.22262 -3.7987,-0.25744 -13.86398,-0.52921 -14.85272,-4.10709 -8.12829,-29.41328 -3.68575,-31.52701 14.15731,-36.23438 18.03151,-4.20497 36.26258,-7.45309 54.32233,-11.53249 6.10782,-1.47578 9.0462,-2.10819 14.83352,-3.76444 1.25912,-0.36034 3.68995,-2.48814 3.74772,-1.17974 0.0798,1.80699 -3.69015,2.23359 -3.62138,4.04104 0.9556,25.11709 -2.41458,22.27822 9.1578,27.06036 -4.71209,-1.56301 -9.72481,-2.0773 -14.6232,-2.72098 -11.35833,-1.49257 -22.76709,-2.55841 -34.11217,-4.15757 -10.94275,-1.46885 -21.89417,-2.89732 -32.7559,-4.9012 -2.49477,-0.46026 -13.56373,-2.59956 -16.10968,-3.75727 -3.71065,-1.68733 -7.01568,-4.15261 -10.52352,-6.22892 1.02969,-9.86334 0.0542,-20.14889 3.08906,-29.59004 0.84072,-2.61537 4.91304,-2.50015 7.51232,-3.38941 1.93668,-0.66256 3.99374,-0.91229 6.01449,-1.23831 9.67088,-1.56024 19.501,-1.90056 29.20661,-3.16406 24.61493,-2.63692 49.26945,-4.87158 73.88608,-7.49034 2.89774,-0.34798 5.79886,-0.66897 8.69323,-1.04396 1.98312,-0.25692 3.94871,-0.65102 5.93832,-0.85166 0.48152,-0.0486 1.70114,-0.30567 1.44797,0.10681 -1.72571,2.81161 -6.04504,4.39445 -6.23234,7.6881 -1.03913,18.27245 -0.1305,17.57874 8.38569,22.53484 -3.47844,-1.92884 -8.2076,-2.97865 -11.95357,-3.95252 -10.06811,-2.61747 -20.28882,-4.55473 -30.42214,-6.89183 -18.87579,-4.42589 -37.64754,-9.31847 -55.9493,-15.76793 -5.09505,-1.92928 -16.76103,-6.04921 -17.99698,-12.10273 -1.45534,-7.12812 -1.09474,-14.96653 1.46574,-21.77623 2.03779,-5.41958 9.74601,-6.74768 14.52086,-7.99153 1.51928,-0.17923 3.0336,-0.40728 4.55785,-0.53768 4.17885,-0.35751 9.39206,-0.488 13.4843,-0.5557 12.17869,-0.20149 24.35983,-0.0126 36.5391,-0.08 31.38343,0.007 62.76686,0.0186 94.15029,0.0281 12.60713,-3.3e-4 25.21448,0.0123 37.82157,-0.0329 2.81351,-0.0101 5.62705,-0.0219 8.44048,-0.0461 1.6612,-0.0143 3.32291,-0.12353 4.98329,-0.0696 0.10039,0.003 0.12374,0.15826 0.18561,0.23739 0.06,12.09417 -0.30448,24.1979 0.18014,36.2825 0.0172,0.42968 1.70796,0.20391 1.28098,0.1528 -10.40247,-1.24524 -20.88507,-1.67996 -31.33033,-2.41189 -37.24107,-1.99509 -74.47143,-4.21926 -111.69603,-6.49326 -14.17098,-0.94372 -28.336,-1.82405 -42.46078,-3.33288 -2.95389,-0.31554 -11.40582,-1.34164 -14.51819,-1.86417 -1.8822,-0.31599 -3.74028,-0.76184 -5.61042,-1.14277 -5.1939,-5.90216 -15.36861,-9.84731 -15.5817,-17.70649 -0.46803,-17.26283 11.71767,-19.69489 22.14996,-20.91293 2.07081,-0.24178 11.56747,-1.13661 12.90807,-1.26482 20.43272,-1.85458 40.85831,-3.98344 61.09481,-7.42084 11.82127,-2.10663 23.80724,-4.14393 34.96362,-8.76062 0.28223,-0.079 0.97265,-0.50179 0.84668,-0.23715 -2.46973,5.18863 -5.59313,-2.71306 -5.108,10.32867 0.40984,11.01741 2.55548,13.5687 9.94008,18.05487 0.57625,0.35007 1.30239,0.34958 1.95359,0.52437 -3.15196,-0.93379 -6.53422,-1.25659 -9.77653,-1.65865 -9.43061,-1.16945 -18.89706,-2.0352 -28.31394,-3.32079 -23.38742,-3.18832 -47.04792,-6.29907 -69.2412,-14.74672 -2.99751,-1.25019 -6.03147,-2.41637 -8.99254,-3.75057 -7.15801,-3.22527 -14.17863,-6.98114 -20.33967,-11.89475 -1.81055,-1.44397 -3.60789,-2.92504 -5.20329,-4.60368 -1.61064,-1.69467 -2.91948,-3.65253 -4.37922,-5.47879 -1.16823,-3.34682 -3.15952,-6.51246 -3.50469,-10.04048 -0.33014,-3.37434 0.20475,-6.93728 1.53867,-10.0543 3.19806,-7.47304 9.39345,-11.01483 16.37947,-13.69403 8.9613,-3.00993 18.19737,-5.05531 27.3914,-7.21956 11.83623,-2.97103 23.74801,-5.74634 35.82283,-7.56425 11.01818,-1.59232 22.07423,-3.05111 32.90817,-5.680146 3.01589,-0.701633 7.14756,-1.624108 10.16268,-2.470516 3.36901,-0.945753 5.92675,-1.833169 9.19753,-2.98987 2.74527,-0.970855 1.74735,-1.329154 2.90772,-0.810653 -2.67925,3.168566 -4.22003,4.755504 -4.91519,10.638535 -0.86153,7.29103 3.05566,13.83269 9.15684,17.2258 0.83773,0.46589 1.78399,0.702 2.67598,1.05301 0.35465,0.0773 0.72752,0.0957 1.06395,0.23204 0.31258,0.12665 -0.66119,-0.13348 -0.99129,-0.2026 -1.89633,-0.39709 1.8258,0.12483 -1.68128,-0.28639 -0.35369,-0.0415 -0.70728,-0.0838 -1.06091,-0.1257 -1.11314,-0.169 -0.0533,-0.0224 -2.27269,-0.17306 -2.36889,-0.16081 -4.72948,-0.42228 -7.08068,-0.75123 -3.65767,-0.50425 -7.34296,-0.82055 -10.97659,-1.50459 -3.13731,-0.57797 -6.25903,-1.29777 -9.44368,-1.56295 -9.48355,-0.84144 -19.00615,-0.99723 -28.52253,-0.95223 -9.56137,-0.0762 -19.13131,-0.0898 -28.68202,-0.59 -26.43265,-1.88805 -23.76255,-39.269468 2.6701,-37.381421 z"
       inkscape:connector-curvature="0"
       transform="translate(-1035.2009,-294.09377)" />
    <g
       id="g3859"
       style="opacity:0.7469492">
      <path
         inkscape:connector-curvature="0"
         id="path3980"
         d="m -1010.8602,-293.00174 0,17.70184 -20.3578,0 0,1.98184 20.3578,0 0,24.82031 -20.3578,0 0,1.49651 20.3578,0 0,24.82031 -20.3578,0 0,1.98185 20.3578,0 0,24.82031 -20.3578,0 0,1.99534 20.3578,0 0,24.82031 -20.3578,0 0,1.98184 20.3578,0 0,24.82031 -20.3578,0 0,1.4965 20.3578,0 0,24.82032 -20.3578,0 0,1.98185 0,0.52579 20.3578,0 0,17.674875 0,7.145442 -20.3578,0 0,1.483016 20.3578,0 0,24.820312 -20.3578,0 0,1.995332 20.3578,0 0,24.820312 -20.3578,0 0,1.98185 20.3578,0 0,24.8203122 -20.3578,0 0,1.995332 20.3578,0 0,6.05340586 0,17.70183094 -20.3578,0 0,1.065075 0,0.930257 0,0.55276 20.3578,0 0,24.267552 -20.3578,0 0,0.55276 0,0.930256 0,1.065077 20.3578,0 0,18.200662 0,5.554573 -20.3578,0 0,1.995332 20.3578,0 0,24.820313 -20.3578,0 0,1.981848 20.3578,0 0,24.820315 -20.3578,0 0,1.98185 20.3578,0 0,24.83379 -20.3578,0 0,1.48302 20.3578,0 0,24.82031 -20.3578,0 0,1.98185 20.3578,0 0,18.20066 1.9819,0 0,-18.20066 24.82036,0 0,18.20066 1.90094,0 0,-18.20066 24.82025,0 0,18.20066 1.99534,0 0,-18.20066 24.82032,0 0,18.20066 1.90099,0 0,-18.20066 24.82029,0 0,18.20066 1.98187,0 0,-18.20066 24.82029,0 0,18.20066 1.91444,0 0,-18.20066 24.82031,0 0,18.20066 1.98185,0 0,-18.20066 10.00363,0 0,18.20066 1.98184,0 0,-18.20066 9.61265,0 15.20767,0 0,18.20066 1.90095,0 0,-18.20066 24.82031,0 0,18.20066 1.99534,0 0,-18.20066 24.82031,0 0,18.20066 1.90096,0 0,-18.20066 24.82031,0 0,18.20066 1.98185,0 0,-18.20066 3.95022,0 20.35778,0 0,18.20066 0.51231,0 1.46954,0 0.4449,0 0,-18.20066 24.37541,0 0,18.20066 0.44491,0 1.45605,0 0.5258,0 0,-18.20066 21.59812,0 2.69639,0 0,18.20066 1.99533,0 0,-18.20066 24.82031,0 0,18.20066 1.90096,0 0,-18.20066 24.82031,0 0,18.20066 1.98186,0 0,-18.20066 24.82031,0 0,18.20066 1.91444,0 0,-18.20066 24.82031,0 0,18.20066 1.98185,0 0,-18.20066 21.59812,0 0,-1.98185 -21.59812,0 0,-24.82031 21.59812,0 0,-1.48302 -21.59812,0 0,-24.83379 21.59812,0 0,-1.98185 -21.59812,0 0,-24.820315 21.59812,0 0,-1.981848 -21.59812,0 0,-24.820313 21.59812,0 0,-1.995332 -21.59812,0 0,-5.554573 0,-18.200662 21.59812,0 0,-1.065077 0,-0.930256 0,-0.55276 -21.59812,0 0,-24.267552 21.59812,0 0,-0.55276 0,-0.930257 0,-1.065075 -21.59812,0 0,-17.70183094 0,-6.05340586 21.59812,0 0,-1.995332 -21.59812,0 0,-24.8203122 21.59812,0 0,-1.98185 -21.59812,0 0,-24.820312 21.59812,0 0,-1.995332 -21.59812,0 0,-24.820312 21.59812,0 0,-1.483016 -21.59812,0 0,-24.820317 21.59812,0 0,-1.99533 0,-0.51231 -21.59812,0 0,-17.18952 0,-7.6308 21.59812,0 0,-1.4965 -21.59812,0 0,-24.82031 21.59812,0 0,-1.98184 -21.59812,0 0,-24.82031 21.59812,0 0,-1.99534 -21.59812,0 0,-24.82031 21.59812,0 0,-1.98185 -21.59812,0 0,-24.82031 21.59812,0 0,-1.49651 -21.59812,0 0,-24.82031 21.59812,0 0,-1.98184 -21.59812,0 0,-17.70184 -1.98185,0 0,17.70184 -24.82031,0 0,-17.70184 -1.91444,0 0,17.70184 -24.82031,0 0,-17.70184 -1.98186,0 0,17.70184 -24.82031,0 0,-17.70184 -1.90096,0 0,17.70184 -24.82031,0 0,-17.70184 -1.99533,0 0,17.70184 -2.69639,0 -21.59812,0 0,-17.70184 -0.5258,0 -1.45605,0 -0.44491,0 0,17.70184 -24.37541,0 0,-17.70184 -0.4449,0 -1.46954,0 -0.51231,0 0,17.70184 -20.35778,0 -3.95022,0 0,-17.70184 -1.98185,0 0,17.70184 -24.82031,0 0,-17.70184 -1.90096,0 0,17.70184 -24.82031,0 0,-17.70184 -1.99534,0 0,17.70184 -24.82031,0 0,-17.70184 -1.90095,0 0,17.70184 -15.20767,0 -9.61265,0 0,-17.70184 -1.98184,0 0,17.70184 -10.00363,0 0,-17.70184 -1.98185,0 0,17.70184 -24.82031,0 0,-17.70184 -1.91444,0 0,17.70184 -24.82029,0 0,-17.70184 -1.98187,0 0,17.70184 -24.82029,0 0,-17.70184 -1.90099,0 0,17.70184 -24.82032,0 0,-17.70184 -1.99534,0 0,17.70184 -24.82025,0 0,-17.70184 -1.90094,0 0,17.70184 -24.82036,0 0,-17.70184 -1.9819,0 z m 1.9819,19.68368 24.82036,0 0,24.82031 -24.82036,0 0,-24.82031 z m 26.7213,0 24.82025,0 0,24.82031 -24.82025,0 0,-24.82031 z m 26.81559,0 24.82032,0 0,24.82031 -24.82032,0 0,-24.82031 z m 26.72131,0 24.82029,0 0,24.82031 -24.82029,0 0,-24.82031 z m 26.80216,0 24.82029,0 0,24.82031 -24.82029,0 0,-24.82031 z m 26.73473,0 24.82031,0 0,24.82031 -24.82031,0 0,-24.82031 z m 26.80216,0 10.00363,0 0,24.82031 -10.00363,0 0,-24.82031 z m 11.98547,0 9.61265,0 15.20767,0 0,24.82031 -15.20767,0 -9.61265,0 0,-24.82031 z m 26.72127,0 24.82031,0 0,24.82031 -24.82031,0 0,-24.82031 z m 26.81565,0 24.82031,0 0,24.82031 -24.82031,0 0,-24.82031 z m 26.72127,0 24.82031,0 0,24.82031 -24.82031,0 0,-24.82031 z m 26.80216,0 3.95022,0 20.35778,0 0,24.82031 -20.35778,0 -3.95022,0 0,-24.82031 z m 26.73475,0 24.37541,0 0,24.82031 -24.37541,0 0,-24.82031 z m 26.80217,0 21.59812,0 2.69639,0 0,24.82031 -2.69639,0 -21.59812,0 0,-24.82031 z m 26.28984,0 24.82031,0 0,24.82031 -24.82031,0 0,-24.82031 z m 26.72127,0 24.82031,0 0,24.82031 -24.82031,0 0,-24.82031 z m 26.80217,0 24.82031,0 0,24.82031 -24.82031,0 0,-24.82031 z m 26.73475,0 24.82031,0 0,24.82031 -24.82031,0 0,-24.82031 z m -439.72802,26.31682 24.82036,0 0,24.82031 -24.82036,0 0,-24.82031 z m 26.7213,0 24.82025,0 0,24.82031 -24.82025,0 0,-24.82031 z m 26.81559,0 24.82032,0 0,24.82031 -24.82032,0 0,-24.82031 z m 26.72131,0 24.82029,0 0,24.82031 -24.82029,0 0,-24.82031 z m 26.80216,0 24.82029,0 0,24.82031 -24.82029,0 0,-24.82031 z m 26.73473,0 24.82031,0 0,24.82031 -24.82031,0 0,-24.82031 z m 26.80216,0 10.00363,0 0,24.82031 -10.00363,0 0,-24.82031 z m 11.98547,0 9.61265,0 15.20767,0 0,24.82031 -15.20767,0 -9.61265,0 0,-24.82031 z m 26.72127,0 24.82031,0 0,24.82031 -24.82031,0 0,-24.82031 z m 26.81565,0 24.82031,0 0,24.82031 -24.82031,0 0,-24.82031 z m 26.72127,0 24.82031,0 0,24.82031 -24.82031,0 0,-24.82031 z m 26.80216,0 3.95022,0 20.35778,0 0,24.82031 -20.35778,0 -3.95022,0 0,-24.82031 z m 26.73475,0 24.37541,0 0,24.82031 -24.37541,0 0,-24.82031 z m 26.80217,0 21.59812,0 2.69639,0 0,24.82031 -2.69639,0 -21.59812,0 0,-24.82031 z m 26.28984,0 24.82031,0 0,24.82031 -24.82031,0 0,-24.82031 z m 26.72127,0 24.82031,0 0,24.82031 -24.82031,0 0,-24.82031 z m 26.80217,0 24.82031,0 0,24.82031 -24.82031,0 0,-24.82031 z m 26.73475,0 24.82031,0 0,24.82031 -24.82031,0 0,-24.82031 z m -439.72802,26.80216 24.82036,0 0,24.82031 -24.82036,0 0,-24.82031 z m 26.7213,0 24.82025,0 0,24.82031 -24.82025,0 0,-24.82031 z m 26.81559,0 24.82032,0 0,24.82031 -24.82032,0 0,-24.82031 z m 26.72131,0 24.82029,0 0,24.82031 -24.82029,0 0,-24.82031 z m 26.80216,0 24.82029,0 0,24.82031 -24.82029,0 0,-24.82031 z m 26.73473,0 24.82031,0 0,24.82031 -24.82031,0 0,-24.82031 z m 26.80216,0 10.00363,0 0,24.82031 -10.00363,0 0,-24.82031 z m 11.98547,0 9.61265,0 15.20767,0 0,24.82031 -15.20767,0 -9.61265,0 0,-24.82031 z m 26.72127,0 24.82031,0 0,24.82031 -24.82031,0 0,-24.82031 z m 26.81565,0 24.82031,0 0,24.82031 -24.82031,0 0,-24.82031 z m 26.72127,0 24.82031,0 0,24.82031 -24.82031,0 0,-24.82031 z m 26.80216,0 3.95022,0 20.35778,0 0,24.82031 -20.35778,0 -3.95022,0 0,-24.82031 z m 26.73475,0 24.37541,0 0,24.82031 -24.37541,0 0,-24.82031 z m 26.80217,0 21.59812,0 2.69639,0 0,24.82031 -2.69639,0 -21.59812,0 0,-24.82031 z m 26.28984,0 24.82031,0 0,24.82031 -24.82031,0 0,-24.82031 z m 26.72127,0 24.82031,0 0,24.82031 -24.82031,0 0,-24.82031 z m 26.80217,0 24.82031,0 0,24.82031 -24.82031,0 0,-24.82031 z m 26.73475,0 24.82031,0 0,24.82031 -24.82031,0 0,-24.82031 z m -439.72802,26.81565 24.82036,0 0,24.82031 -24.82036,0 0,-24.82031 z m 26.7213,0 24.82025,0 0,24.82031 -24.82025,0 0,-24.82031 z m 26.81559,0 24.82032,0 0,24.82031 -24.82032,0 0,-24.82031 z m 26.72131,0 24.82029,0 0,24.82031 -24.82029,0 0,-24.82031 z m 26.80216,0 24.82029,0 0,24.82031 -24.82029,0 0,-24.82031 z m 26.73473,0 24.82031,0 0,24.82031 -24.82031,0 0,-24.82031 z m 26.80216,0 10.00363,0 0,24.82031 -10.00363,0 0,-24.82031 z m 11.98547,0 9.61265,0 15.20767,0 0,24.82031 -15.20767,0 -9.61265,0 0,-24.82031 z m 26.72127,0 24.82031,0 0,24.82031 -24.82031,0 0,-24.82031 z m 26.81565,0 24.82031,0 0,24.82031 -24.82031,0 0,-24.82031 z m 26.72127,0 24.82031,0 0,24.82031 -24.82031,0 0,-24.82031 z m 26.80216,0 3.95022,0 20.35778,0 0,24.82031 -20.35778,0 -3.95022,0 0,-24.82031 z m 26.73475,0 24.37541,0 0,24.82031 -24.37541,0 0,-24.82031 z m 26.80217,0 21.59812,0 2.69639,0 0,24.82031 -2.69639,0 -21.59812,0 0,-24.82031 z m 26.28984,0 24.82031,0 0,24.82031 -24.82031,0 0,-24.82031 z m 26.72127,0 24.82031,0 0,24.82031 -24.82031,0 0,-24.82031 z m 26.80217,0 24.82031,0 0,24.82031 -24.82031,0 0,-24.82031 z m 26.73475,0 24.82031,0 0,24.82031 -24.82031,0 0,-24.82031 z m -439.72802,26.80215 24.82036,0 0,24.82031 -24.82036,0 0,-24.82031 z m 26.7213,0 24.82025,0 0,24.82031 -24.82025,0 0,-24.82031 z m 26.81559,0 24.82032,0 0,24.82031 -24.82032,0 0,-24.82031 z m 26.72131,0 24.82029,0 0,24.82031 -24.82029,0 0,-24.82031 z m 26.80216,0 24.82029,0 0,24.82031 -24.82029,0 0,-24.82031 z m 26.73473,0 24.82031,0 0,24.82031 -24.82031,0 0,-24.82031 z m 26.80216,0 10.00363,0 0,24.82031 -10.00363,0 0,-24.82031 z m 11.98547,0 9.61265,0 15.20767,0 0,24.82031 -15.20767,0 -9.61265,0 0,-24.82031 z m 26.72127,0 24.82031,0 0,24.82031 -24.82031,0 0,-24.82031 z m 26.81565,0 24.82031,0 0,24.82031 -24.82031,0 0,-24.82031 z m 26.72127,0 24.82031,0 0,24.82031 -24.82031,0 0,-24.82031 z m 26.80216,0 3.95022,0 20.35778,0 0,24.82031 -20.35778,0 -3.95022,0 0,-24.82031 z m 26.73475,0 24.37541,0 0,24.82031 -24.37541,0 0,-24.82031 z m 26.80217,0 21.59812,0 2.69639,0 0,24.82031 -2.69639,0 -21.59812,0 0,-24.82031 z m 26.28984,0 24.82031,0 0,24.82031 -24.82031,0 0,-24.82031 z m 26.72127,0 24.82031,0 0,24.82031 -24.82031,0 0,-24.82031 z m 26.80217,0 24.82031,0 0,24.82031 -24.82031,0 0,-24.82031 z m 26.73475,0 24.82031,0 0,24.82031 -24.82031,0 0,-24.82031 z m -439.72802,26.31681 24.82036,0 0,7.6308 0,17.18952 -24.82036,0 0,-17.18952 0,-7.6308 z m 26.7213,0 24.82025,0 0,7.6308 0,17.18952 -24.82025,0 0,-17.18952 0,-7.6308 z m 26.81559,0 24.82032,0 0,7.6308 0,17.18952 -24.82032,0 0,-17.18952 0,-7.6308 z m 26.72131,0 24.82029,0 0,7.6308 0,17.18952 -24.82029,0 0,-17.18952 0,-7.6308 z m 26.80216,0 24.82029,0 0,7.6308 0,17.18952 -24.82029,0 0,-17.18952 0,-7.6308 z m 26.73473,0 24.82031,0 0,7.6308 0,17.18952 -24.82031,0 0,-17.18952 0,-7.6308 z m 26.80216,0 10.00363,0 0,24.82032 -10.00363,0 0,-17.18952 0,-7.6308 z m 11.98547,0 9.61265,0 15.20767,0 0,7.6308 0,17.18952 -15.20767,0 -9.61265,0 0,-17.18952 0,-7.6308 z m 26.72127,0 24.82031,0 0,7.6308 0,17.18952 -24.82031,0 0,-17.18952 0,-7.6308 z m 26.81565,0 24.82031,0 0,7.6308 0,17.18952 -24.82031,0 0,-17.18952 0,-7.6308 z m 26.72127,0 24.82031,0 0,7.6308 0,17.18952 -24.82031,0 0,-17.18952 0,-7.6308 z m 26.80216,0 3.95022,0 20.35778,0 0,24.82032 -20.35778,0 -3.95022,0 0,-17.18952 0,-7.6308 z m 26.73475,0 24.37541,0 0,7.6308 0,17.18952 -24.37541,0 0,-17.18952 0,-7.6308 z m 26.80217,0 21.59812,0 2.69639,0 0,7.6308 0,17.18952 -2.69639,0 -21.59812,0 0,-17.18952 0,-7.6308 z m 26.28984,0 24.82031,0 0,7.6308 0,17.18952 -24.82031,0 0,-17.18952 0,-7.6308 z m 26.72127,0 24.82031,0 0,7.6308 0,17.18952 -24.82031,0 0,-17.18952 0,-7.6308 z m 26.80217,0 24.82031,0 0,7.6308 0,17.18952 -24.82031,0 0,-17.18952 0,-7.6308 z m 26.73475,0 24.82031,0 0,7.6308 0,17.18952 -24.82031,0 0,-17.18952 0,-7.6308 z m -439.72802,27.32796 24.82036,0 0,24.820317 -24.82036,0 0,-7.145442 0,-17.674875 z m 26.7213,0 24.82025,0 0,24.820317 -24.82025,0 0,-24.820317 z m 26.81559,0 24.82032,0 0,24.820317 -24.82032,0 0,-24.820317 z m 26.72131,0 24.82029,0 0,24.820317 -24.82029,0 0,-24.820317 z m 26.80216,0 24.82029,0 0,24.820317 -24.82029,0 0,-24.820317 z m 26.73473,0 24.82031,0 0,24.820317 -24.82031,0 0,-24.820317 z m 26.80216,0 10.00363,0 0,17.674875 0,7.145442 -10.00363,0 0,-24.820317 z m 11.98547,0 9.61265,0 15.20767,0 0,24.820317 -15.20767,0 -9.61265,0 0,-7.145442 0,-17.674875 z m 26.72127,0 24.82031,0 0,24.820317 -24.82031,0 0,-24.820317 z m 26.81565,0 24.82031,0 0,24.820317 -24.82031,0 0,-24.820317 z m 26.72127,0 24.82031,0 0,24.820317 -24.82031,0 0,-24.820317 z m 26.80216,0 3.95022,0 20.35778,0 0,17.674875 0,7.145442 -20.35778,0 -3.95022,0 0,-24.820317 z m 26.73475,0 24.37541,0 0,24.820317 -24.37541,0 0,-24.820317 z m 26.80217,0 21.59812,0 2.69639,0 0,24.820317 -2.69639,0 -21.59812,0 0,-24.820317 z m 26.28984,0 24.82031,0 0,24.820317 -24.82031,0 0,-24.820317 z m 26.72127,0 24.82031,0 0,24.820317 -24.82031,0 0,-24.820317 z m 26.80217,0 24.82031,0 0,24.820317 -24.82031,0 0,-24.820317 z m 26.73475,0 24.82031,0 0,24.820317 -24.82031,0 0,-24.820317 z m -439.72802,26.303333 24.82036,0 0,24.820312 -24.82036,0 0,-24.820312 z m 26.7213,0 24.82025,0 0,24.820312 -24.82025,0 0,-24.820312 z m 26.81559,0 24.82032,0 0,24.820312 -24.82032,0 0,-24.820312 z m 26.72131,0 24.82029,0 0,24.820312 -24.82029,0 0,-24.820312 z m 26.80216,0 24.82029,0 0,24.820312 -24.82029,0 0,-24.820312 z m 26.73473,0 24.82031,0 0,24.820312 -24.82031,0 0,-24.820312 z m 26.80216,0 10.00363,0 0,24.820312 -10.00363,0 0,-24.820312 z m 11.98547,0 9.61265,0 15.20767,0 0,24.820312 -15.20767,0 -9.61265,0 0,-24.820312 z m 26.72127,0 24.82031,0 0,24.820312 -24.82031,0 0,-24.820312 z m 26.81565,0 24.82031,0 0,24.820312 -24.82031,0 0,-24.820312 z m 26.72127,0 24.82031,0 0,24.820312 -24.82031,0 0,-24.820312 z m 26.80216,0 3.95022,0 20.35778,0 0,24.820312 -20.35778,0 -3.95022,0 0,-24.820312 z m 26.73475,0 24.37541,0 0,24.820312 -24.37541,0 0,-24.820312 z m 26.80217,0 21.59812,0 2.69639,0 0,24.820312 -2.69639,0 -21.59812,0 0,-24.820312 z m 26.28984,0 24.82031,0 0,24.820312 -24.82031,0 0,-24.820312 z m 26.72127,0 24.82031,0 0,24.820312 -24.82031,0 0,-24.820312 z m 26.80217,0 24.82031,0 0,24.820312 -24.82031,0 0,-24.820312 z m 26.73475,0 24.82031,0 0,24.820312 -24.82031,0 0,-24.820312 z m -439.72802,26.815644 24.82036,0 0,24.820312 -24.82036,0 0,-24.820312 z m 26.7213,0 24.82025,0 0,24.820312 -24.82025,0 0,-24.820312 z m 26.81559,0 24.82032,0 0,24.820312 -24.82032,0 0,-24.820312 z m 26.72131,0 24.82029,0 0,24.820312 -24.82029,0 0,-24.820312 z m 26.80216,0 24.82029,0 0,24.820312 -24.82029,0 0,-24.820312 z m 26.73473,0 24.82031,0 0,24.820312 -24.82031,0 0,-24.820312 z m 26.80216,0 10.00363,0 0,24.820312 -10.00363,0 0,-24.820312 z m 11.98547,0 9.61265,0 15.20767,0 0,24.820312 -15.20767,0 -9.61265,0 0,-24.820312 z m 26.72127,0 24.82031,0 0,24.820312 -24.82031,0 0,-24.820312 z m 26.81565,0 24.82031,0 0,24.820312 -24.82031,0 0,-24.820312 z m 26.72127,0 24.82031,0 0,24.820312 -24.82031,0 0,-24.820312 z m 26.80216,0 3.95022,0 20.35778,0 0,24.820312 -20.35778,0 -3.95022,0 0,-24.820312 z m 26.73475,0 24.37541,0 0,24.820312 -24.37541,0 0,-24.820312 z m 26.80217,0 21.59812,0 2.69639,0 0,24.820312 -2.69639,0 -21.59812,0 0,-24.820312 z m 26.28984,0 24.82031,0 0,24.820312 -24.82031,0 0,-24.820312 z m 26.72127,0 24.82031,0 0,24.820312 -24.82031,0 0,-24.820312 z m 26.80217,0 24.82031,0 0,24.820312 -24.82031,0 0,-24.820312 z m 26.73475,0 24.82031,0 0,24.820312 -24.82031,0 0,-24.820312 z m -439.72802,26.802162 24.82036,0 0,24.8203122 -24.82036,0 0,-24.8203122 z m 26.7213,0 24.82025,0 0,24.8203122 -24.82025,0 0,-24.8203122 z m 26.81559,0 24.82032,0 0,24.8203122 -24.82032,0 0,-24.8203122 z m 26.72131,0 24.82029,0 0,24.8203122 -24.82029,0 0,-24.8203122 z m 26.80216,0 24.82029,0 0,24.8203122 -24.82029,0 0,-24.8203122 z m 26.73473,0 24.82031,0 0,24.8203122 -24.82031,0 0,-24.8203122 z m 26.80216,0 10.00363,0 0,24.8203122 -10.00363,0 0,-24.8203122 z m 11.98547,0 9.61265,0 15.20767,0 0,24.8203122 -15.20767,0 -9.61265,0 0,-24.8203122 z m 26.72127,0 24.82031,0 0,24.8203122 -24.82031,0 0,-24.8203122 z m 26.81565,0 24.82031,0 0,24.8203122 -24.82031,0 0,-24.8203122 z m 26.72127,0 24.82031,0 0,24.8203122 -24.82031,0 0,-24.8203122 z m 26.80216,0 3.95022,0 20.35778,0 0,24.8203122 -20.35778,0 -3.95022,0 0,-24.8203122 z m 26.73475,0 24.37541,0 0,24.8203122 -24.37541,0 0,-24.8203122 z m 26.80217,0 21.59812,0 2.69639,0 0,24.8203122 -2.69639,0 -21.59812,0 0,-24.8203122 z m 26.28984,0 24.82031,0 0,24.8203122 -24.82031,0 0,-24.8203122 z m 26.72127,0 24.82031,0 0,24.8203122 -24.82031,0 0,-24.8203122 z m 26.80217,0 24.82031,0 0,24.8203122 -24.82031,0 0,-24.8203122 z m 26.73475,0 24.82031,0 0,24.8203122 -24.82031,0 0,-24.8203122 z m -439.72802,26.8156442 24.82036,0 0,6.05340586 0,17.70183094 -24.82036,0 0,-17.70183094 0,-6.05340586 z m 26.7213,0 24.82025,0 0,6.05340586 0,17.70183094 -24.82025,0 0,-17.70183094 0,-6.05340586 z m 26.81559,0 24.82032,0 0,6.05340586 0,17.70183094 -24.82032,0 0,-17.70183094 0,-6.05340586 z m 26.72131,0 24.82029,0 0,6.05340586 0,17.70183094 -24.82029,0 0,-17.70183094 0,-6.05340586 z m 26.80216,0 24.82029,0 0,6.05340586 0,17.70183094 -24.82029,0 0,-17.70183094 0,-6.05340586 z m 26.73473,0 24.82031,0 0,6.05340586 0,17.70183094 -24.82031,0 0,-17.70183094 0,-6.05340586 z m 26.80216,0 10.00363,0 0,6.05340586 0,17.70183094 -10.00363,0 0,-17.70183094 0,-6.05340586 z m 11.98547,0 9.61265,0 15.20767,0 0,6.05340586 0,17.70183094 -15.20767,0 -9.61265,0 0,-17.70183094 0,-6.05340586 z m 26.72127,0 24.82031,0 0,6.05340586 0,17.70183094 -24.82031,0 0,-17.70183094 0,-6.05340586 z m 26.81565,0 24.82031,0 0,6.05340586 0,17.70183094 -24.82031,0 0,-17.70183094 0,-6.05340586 z m 26.72127,0 24.82031,0 0,6.05340586 0,17.70183094 -24.82031,0 0,-17.70183094 0,-6.05340586 z m 26.80216,0 3.95022,0 20.35778,0 0,6.05340586 0,17.70183094 -20.35778,0 -3.95022,0 0,-17.70183094 0,-6.05340586 z m 26.73475,0 24.37541,0 0,6.05340586 0,17.70183094 -24.37541,0 0,-17.70183094 0,-6.05340586 z m 26.80217,0 21.59812,0 2.69639,0 0,6.05340586 0,17.70183094 -2.69639,0 -21.59812,0 0,-17.70183094 0,-6.05340586 z m 26.28984,0 24.82031,0 0,6.05340586 0,17.70183094 -24.82031,0 0,-17.70183094 0,-6.05340586 z m 26.72127,0 24.82031,0 0,6.05340586 0,17.70183094 -24.82031,0 0,-17.70183094 0,-6.05340586 z m 26.80217,0 24.82031,0 0,6.05340586 0,17.70183094 -24.82031,0 0,-17.70183094 0,-6.05340586 z m 26.73475,0 24.82031,0 0,6.05340586 0,17.70183094 -24.82031,0 0,-17.70183094 0,-6.05340586 z m -439.72802,26.3033288 24.82036,0 0,24.267552 -24.82036,0 0,-24.267552 z m 26.7213,0 24.82025,0 0,24.267552 -24.82025,0 0,-24.267552 z m 26.81559,0 24.82032,0 0,24.267552 -24.82032,0 0,-24.267552 z m 26.72131,0 24.82029,0 0,24.267552 -24.82029,0 0,-24.267552 z m 26.80216,0 24.82029,0 0,24.267552 -24.82029,0 0,-24.267552 z m 26.73473,0 24.82031,0 0,24.267552 -24.82031,0 0,-24.267552 z m 26.80216,0 10.00363,0 0,24.267552 -10.00363,0 0,-24.267552 z m 11.98547,0 9.61265,0 15.20767,0 0,24.267552 -15.20767,0 -9.61265,0 0,-24.267552 z m 26.72127,0 24.82031,0 0,24.267552 -24.82031,0 0,-24.267552 z m 26.81565,0 24.82031,0 0,24.267552 -24.82031,0 0,-24.267552 z m 26.72127,0 24.82031,0 0,24.267552 -24.82031,0 0,-24.267552 z m 26.80216,0 3.95022,0 20.35778,0 0,24.267552 -20.35778,0 -3.95022,0 0,-24.267552 z m 26.73475,0 24.37541,0 0,24.267552 -24.37541,0 0,-24.267552 z m 26.80217,0 21.59812,0 2.69639,0 0,24.267552 -2.69639,0 -21.59812,0 0,-24.267552 z m 26.28984,0 24.82031,0 0,24.267552 -24.82031,0 0,-24.267552 z m 26.72127,0 24.82031,0 0,24.267552 -24.82031,0 0,-24.267552 z m 26.80217,0 24.82031,0 0,24.267552 -24.82031,0 0,-24.267552 z m 26.73475,0 24.82031,0 0,24.267552 -24.82031,0 0,-24.267552 z m -439.72802,26.815645 24.82036,0 0,18.200662 0,5.554573 -24.82036,0 0,-5.554573 0,-18.200662 z m 26.7213,0 24.82025,0 0,18.200662 0,5.554573 -24.82025,0 0,-5.554573 0,-18.200662 z m 26.81559,0 24.82032,0 0,18.200662 0,5.554573 -24.82032,0 0,-5.554573 0,-18.200662 z m 26.72131,0 24.82029,0 0,18.200662 0,5.554573 -24.82029,0 0,-5.554573 0,-18.200662 z m 26.80216,0 24.82029,0 0,18.200662 0,5.554573 -24.82029,0 0,-5.554573 0,-18.200662 z m 26.73473,0 24.82031,0 0,18.200662 0,5.554573 -24.82031,0 0,-5.554573 0,-18.200662 z m 26.80216,0 10.00363,0 0,18.200662 0,5.554573 -10.00363,0 0,-5.554573 0,-18.200662 z m 11.98547,0 9.61265,0 15.20767,0 0,18.200662 0,5.554573 -15.20767,0 -9.61265,0 0,-5.554573 0,-18.200662 z m 26.72127,0 24.82031,0 0,18.200662 0,5.554573 -24.82031,0 0,-5.554573 0,-18.200662 z m 26.81565,0 24.82031,0 0,18.200662 0,5.554573 -24.82031,0 0,-5.554573 0,-18.200662 z m 26.72127,0 24.82031,0 0,18.200662 0,5.554573 -24.82031,0 0,-5.554573 0,-18.200662 z m 26.80216,0 3.95022,0 20.35778,0 0,18.200662 0,5.554573 -20.35778,0 -3.95022,0 0,-5.554573 0,-18.200662 z m 26.73475,0 24.37541,0 0,18.200662 0,5.554573 -24.37541,0 0,-5.554573 0,-18.200662 z m 26.80217,0 21.59812,0 2.69639,0 0,18.200662 0,5.554573 -2.69639,0 -21.59812,0 0,-5.554573 0,-18.200662 z m 26.28984,0 24.82031,0 0,18.200662 0,5.554573 -24.82031,0 0,-5.554573 0,-18.200662 z m 26.72127,0 24.82031,0 0,18.200662 0,5.554573 -24.82031,0 0,-5.554573 0,-18.200662 z m 26.80217,0 24.82031,0 0,18.200662 0,5.554573 -24.82031,0 0,-5.554573 0,-18.200662 z m 26.73475,0 24.82031,0 0,18.200662 0,5.554573 -24.82031,0 0,-5.554573 0,-18.200662 z m -439.72802,25.750567 24.82036,0 0,24.820313 -24.82036,0 0,-24.820313 z m 26.7213,0 24.82025,0 0,24.820313 -24.82025,0 0,-24.820313 z m 26.81559,0 24.82032,0 0,24.820313 -24.82032,0 0,-24.820313 z m 26.72131,0 24.82029,0 0,24.820313 -24.82029,0 0,-24.820313 z m 26.80216,0 24.82029,0 0,24.820313 -24.82029,0 0,-24.820313 z m 26.73473,0 24.82031,0 0,24.820313 -24.82031,0 0,-24.820313 z m 26.80216,0 10.00363,0 0,24.820313 -10.00363,0 0,-24.820313 z m 11.98547,0 9.61265,0 15.20767,0 0,24.820313 -15.20767,0 -9.61265,0 0,-24.820313 z m 26.72127,0 24.82031,0 0,24.820313 -24.82031,0 0,-24.820313 z m 26.81565,0 24.82031,0 0,24.820313 -24.82031,0 0,-24.820313 z m 26.72127,0 24.82031,0 0,24.820313 -24.82031,0 0,-24.820313 z m 26.80216,0 3.95022,0 20.35778,0 0,24.820313 -20.35778,0 -3.95022,0 0,-24.820313 z m 26.73475,0 24.37541,0 0,24.820313 -24.37541,0 0,-24.820313 z m 26.80217,0 21.59812,0 2.69639,0 0,24.820313 -2.69639,0 -21.59812,0 0,-24.820313 z m 26.28984,0 24.82031,0 0,24.820313 -24.82031,0 0,-24.820313 z m 26.72127,0 24.82031,0 0,24.820313 -24.82031,0 0,-24.820313 z m 26.80217,0 24.82031,0 0,24.820313 -24.82031,0 0,-24.820313 z m 26.73475,0 24.82031,0 0,24.820313 -24.82031,0 0,-24.820313 z m -439.72802,26.802161 24.82036,0 0,24.820315 -24.82036,0 0,-24.820315 z m 26.7213,0 24.82025,0 0,24.820315 -24.82025,0 0,-24.820315 z m 26.81559,0 24.82032,0 0,24.820315 -24.82032,0 0,-24.820315 z m 26.72131,0 24.82029,0 0,24.820315 -24.82029,0 0,-24.820315 z m 26.80216,0 24.82029,0 0,24.820315 -24.82029,0 0,-24.820315 z m 26.73473,0 24.82031,0 0,24.820315 -24.82031,0 0,-24.820315 z m 26.80216,0 10.00363,0 0,24.820315 -10.00363,0 0,-24.820315 z m 11.98547,0 9.61265,0 15.20767,0 0,24.820315 -15.20767,0 -9.61265,0 0,-24.820315 z m 26.72127,0 24.82031,0 0,24.820315 -24.82031,0 0,-24.820315 z m 26.81565,0 24.82031,0 0,24.820315 -24.82031,0 0,-24.820315 z m 26.72127,0 24.82031,0 0,24.820315 -24.82031,0 0,-24.820315 z m 26.80216,0 3.95022,0 20.35778,0 0,24.820315 -20.35778,0 -3.95022,0 0,-24.820315 z m 26.73475,0 24.37541,0 0,24.820315 -24.37541,0 0,-24.820315 z m 26.80217,0 21.59812,0 2.69639,0 0,24.820315 -2.69639,0 -21.59812,0 0,-24.820315 z m 26.28984,0 24.82031,0 0,24.820315 -24.82031,0 0,-24.820315 z m 26.72127,0 24.82031,0 0,24.820315 -24.82031,0 0,-24.820315 z m 26.80217,0 24.82031,0 0,24.820315 -24.82031,0 0,-24.820315 z m 26.73475,0 24.82031,0 0,24.820315 -24.82031,0 0,-24.820315 z m -439.72802,26.802165 24.82036,0 0,24.83379 -24.82036,0 0,-24.83379 z m 26.7213,0 24.82025,0 0,24.83379 -24.82025,0 0,-24.83379 z m 26.81559,0 24.82032,0 0,24.83379 -24.82032,0 0,-24.83379 z m 26.72131,0 24.82029,0 0,24.83379 -24.82029,0 0,-24.83379 z m 26.80216,0 24.82029,0 0,24.83379 -24.82029,0 0,-24.83379 z m 26.73473,0 24.82031,0 0,24.83379 -24.82031,0 0,-24.83379 z m 26.80216,0 10.00363,0 0,24.83379 -10.00363,0 0,-24.83379 z m 11.98547,0 9.61265,0 15.20767,0 0,24.83379 -15.20767,0 -9.61265,0 0,-24.83379 z m 26.72127,0 24.82031,0 0,24.83379 -24.82031,0 0,-24.83379 z m 26.81565,0 24.82031,0 0,24.83379 -24.82031,0 0,-24.83379 z m 26.72127,0 24.82031,0 0,24.83379 -24.82031,0 0,-24.83379 z m 26.80216,0 3.95022,0 20.35778,0 0,24.83379 -20.35778,0 -3.95022,0 0,-24.83379 z m 26.73475,0 24.37541,0 0,24.83379 -24.37541,0 0,-24.83379 z m 26.80217,0 21.59812,0 2.69639,0 0,24.83379 -2.69639,0 -21.59812,0 0,-24.83379 z m 26.28984,0 24.82031,0 0,24.83379 -24.82031,0 0,-24.83379 z m 26.72127,0 24.82031,0 0,24.83379 -24.82031,0 0,-24.83379 z m 26.80217,0 24.82031,0 0,24.83379 -24.82031,0 0,-24.83379 z m 26.73475,0 24.82031,0 0,24.83379 -24.82031,0 0,-24.83379 z m -439.72802,26.31681 24.82036,0 0,24.82031 -24.82036,0 0,-24.82031 z m 26.7213,0 24.82025,0 0,24.82031 -24.82025,0 0,-24.82031 z m 26.81559,0 24.82032,0 0,24.82031 -24.82032,0 0,-24.82031 z m 26.72131,0 24.82029,0 0,24.82031 -24.82029,0 0,-24.82031 z m 26.80216,0 24.82029,0 0,24.82031 -24.82029,0 0,-24.82031 z m 26.73473,0 24.82031,0 0,24.82031 -24.82031,0 0,-24.82031 z m 26.80216,0 10.00363,0 0,24.82031 -10.00363,0 0,-24.82031 z m 11.98547,0 9.61265,0 15.20767,0 0,24.82031 -15.20767,0 -9.61265,0 0,-24.82031 z m 26.72127,0 24.82031,0 0,24.82031 -24.82031,0 0,-24.82031 z m 26.81565,0 24.82031,0 0,24.82031 -24.82031,0 0,-24.82031 z m 26.72127,0 24.82031,0 0,24.82031 -24.82031,0 0,-24.82031 z m 26.80216,0 3.95022,0 20.35778,0 0,24.82031 -20.35778,0 -3.95022,0 0,-24.82031 z m 26.73475,0 24.37541,0 0,24.82031 -24.37541,0 0,-24.82031 z m 26.80217,0 21.59812,0 2.69639,0 0,24.82031 -2.69639,0 -21.59812,0 0,-24.82031 z m 26.28984,0 24.82031,0 0,24.82031 -24.82031,0 0,-24.82031 z m 26.72127,0 24.82031,0 0,24.82031 -24.82031,0 0,-24.82031 z m 26.80217,0 24.82031,0 0,24.82031 -24.82031,0 0,-24.82031 z m 26.73475,0 24.82031,0 0,24.82031 -24.82031,0 0,-24.82031 z"
         style="opacity:0.1;fill:url(#radialGradient3863);fill-opacity:1;fill-rule:nonzero;stroke:none" />
      <path
         inkscape:connector-curvature="0"
         id="rect3910"
         d="m -984.91084,-294.09377 0,43.73055 -50.29006,0 0,4.90962 50.29006,0 0,61.31667 -50.29006,0 0,3.68892 50.29006,0 0,61.31668 -50.29006,0 0,4.90962 50.29006,0 0,61.316671 -50.29006,0 0,4.909626 50.29006,0 0,61.31667 -50.29006,0 0,4.909624 50.29006,0 0,61.330082 -50.29006,0 0,3.675521 50.29006,0 0,61.316666 -50.29006,0 0,4.90962 50.29006,0 0,44.96467 4.90969,0 0,-44.96467 61.31664,0 0,44.96467 4.70842,0 0,-44.96467 61.31667,0 0,44.96467 4.90963,0 0,-44.96467 61.31667,0 0,44.96467 4.70841,0 0,-44.96467 61.31667,0 0,44.96467 4.90962,0 0,-44.96467 61.31668,0 0,44.96467 4.7084,0 0,-44.96467 61.31667,0 0,44.96467 4.90963,0 0,-44.96467 53.34859,0 0,-4.90962 -53.34859,0 0,-61.316666 53.34859,0 0,-3.675521 -53.34859,0 0,-61.330082 53.34859,0 0,-4.909624 -53.34859,0 0,-61.31667 53.34859,0 0,-4.909626 -53.34859,0 0,-61.316671 53.34859,0 0,-4.90962 -53.34859,0 0,-61.31668 53.34859,0 0,-3.68892 -53.34859,0 0,-61.31667 53.34859,0 0,-4.90962 -53.34859,0 0,-43.73055 -4.90963,0 0,43.73055 -61.31667,0 0,-43.73055 -4.7084,0 0,43.73055 -61.31668,0 0,-43.73055 -4.90962,0 0,43.73055 -61.31667,0 0,-43.73055 -4.70841,0 0,43.73055 -61.31667,0 0,-43.73055 -4.90963,0 0,43.73055 -61.31667,0 0,-43.73055 -4.70842,0 0,43.73055 -61.31664,0 0,-43.73055 -4.90969,0 z m 4.90969,48.64017 61.31664,0 0,61.31667 -61.31664,0 0,-61.31667 z m 66.02506,0 61.31667,0 0,61.31667 -61.31667,0 0,-61.31667 z m 66.2263,0 61.31667,0 0,61.31667 -61.31667,0 0,-61.31667 z m 66.02508,0 61.31667,0 0,61.31667 -61.31667,0 0,-61.31667 z m 66.22629,0 61.31668,0 0,61.31667 -61.31668,0 0,-61.31667 z m 66.02508,0 61.31667,0 0,61.31667 -61.31667,0 0,-61.31667 z m -330.52781,65.00559 61.31664,0 0,61.31668 -61.31664,0 0,-61.31668 z m 66.02506,0 61.31667,0 0,61.31668 -61.31667,0 0,-61.31668 z m 66.2263,0 61.31667,0 0,61.31668 -61.31667,0 0,-61.31668 z m 66.02508,0 61.31667,0 0,61.31668 -61.31667,0 0,-61.31668 z m 66.22629,0 61.31668,0 0,61.31668 -61.31668,0 0,-61.31668 z m 66.02508,0 61.31667,0 0,61.31668 -61.31667,0 0,-61.31668 z m -330.52781,66.2263 61.31664,0 0,61.316671 -61.31664,0 0,-61.316671 z m 66.02506,0 61.31667,0 0,61.316671 -61.31667,0 0,-61.316671 z m 66.2263,0 61.31667,0 0,61.316671 -61.31667,0 0,-61.316671 z m 66.02508,0 61.31667,0 0,61.316671 -61.31667,0 0,-61.316671 z m 66.22629,0 61.31668,0 0,61.316671 -61.31668,0 0,-61.316671 z m 66.02508,0 61.31667,0 0,61.316671 -61.31667,0 0,-61.316671 z m -330.52781,66.226297 61.31664,0 0,61.31667 -61.31664,0 0,-61.31667 z m 66.02506,0 61.31667,0 0,61.31667 -61.31667,0 0,-61.31667 z m 66.2263,0 61.31667,0 0,61.31667 -61.31667,0 0,-61.31667 z m 66.02508,0 61.31667,0 0,61.31667 -61.31667,0 0,-61.31667 z m 66.22629,0 61.31668,0 0,61.31667 -61.31668,0 0,-61.31667 z m 66.02508,0 61.31667,0 0,61.31667 -61.31667,0 0,-61.31667 z m -330.52781,66.226294 61.31664,0 0,61.330082 -61.31664,0 0,-61.330082 z m 66.02506,0 61.31667,0 0,61.330082 -61.31667,0 0,-61.330082 z m 66.2263,0 61.31667,0 0,61.330082 -61.31667,0 0,-61.330082 z m 66.02508,0 61.31667,0 0,61.330082 -61.31667,0 0,-61.330082 z m 66.22629,0 61.31668,0 0,61.330082 -61.31668,0 0,-61.330082 z m 66.02508,0 61.31667,0 0,61.330082 -61.31667,0 0,-61.330082 z m -330.52781,65.005603 61.31664,0 0,61.316666 -61.31664,0 0,-61.316666 z m 66.02506,0 61.31667,0 0,61.316666 -61.31667,0 0,-61.316666 z m 66.2263,0 61.31667,0 0,61.316666 -61.31667,0 0,-61.316666 z m 66.02508,0 61.31667,0 0,61.316666 -61.31667,0 0,-61.316666 z m 66.22629,0 61.31668,0 0,61.316666 -61.31668,0 0,-61.316666 z m 66.02508,0 61.31667,0 0,61.316666 -61.31667,0 0,-61.316666 z"
         style="opacity:0.1;fill:url(#radialGradient3865);fill-opacity:1;fill-rule:nonzero;stroke:none" />
    </g>
    <path
       style="font-size:40px;font-style:normal;font-weight:bold;line-height:125%;letter-spacing:0px;word-spacing:0px;fill:none;stroke:#ffffff;stroke-width:6;stroke-linecap:round;stroke-miterlimit:4;stroke-dasharray:none;font-family:Sans;-inkscape-font-specification:Sans Bold"
       d="m -770.80286,-207.54011 c 27.49479,-0.18378 54.63033,0.97619 53.58544,3.82752 l -38.91323,106.53297 c 0,0 64.81809,-2.39364 65.06817,0 0.60979,5.83131 -115.464,189.46283 -115.464,189.46283 l 5.74136,-124.394792 c 0,0 -45.64058,2.248621 -47.84407,-0.637713 -3.23656,-4.239299 19.83593,-160.716705 21.68933,-169.049315 0.89617,-4.02642 28.64241,-5.55661 56.137,-5.7413 z"
       id="path2994"
       inkscape:connector-curvature="0" />
    <path
       sodipodi:type="spiral"
       style="fill:none;stroke:#ffffff;stroke-width:1;stroke-linecap:butt;stroke-linejoin:miter;stroke-miterlimit:4;stroke-opacity:0.78365383;stroke-dasharray:3, 3;stroke-dashoffset:0"
       id="path3767"
       sodipodi:cx="74.5"
       sodipodi:cy="60.687531"
       sodipodi:expansion="1"
       sodipodi:revolution="1.0833334"
       sodipodi:radius="77.999992"
       sodipodi:argument="-6.2831855"
       sodipodi:t0="0.46926433"
       d="M 37.947987,58.76355 C 31.372521,33.099233 53.021859,9.9468027 77.370132,6.1604039 112.94987,0.62740126 143.4389,30.349383 147.00224,64.503815 c 1.24291,11.913188 -0.53875,24.060469 -4.95227,35.183717"
       transform="matrix(-0.44784309,-0.90583149,0.89401518,-0.45376229,-689.04016,-45.95007)" />
    <path
       sodipodi:type="spiral"
       style="fill:none;stroke:#ffffff;stroke-width:1;stroke-linecap:round;stroke-linejoin:round;stroke-miterlimit:4;stroke-opacity:0.80288463;stroke-dasharray:2.00000005, 2.00000005;stroke-dashoffset:0"
       id="path3776"
       sodipodi:cx="113.5"
       sodipodi:cy="298.18753"
       sodipodi:expansion="0.30000001"
       sodipodi:revolution="1.1499239"
       sodipodi:radius="42.550812"
       sodipodi:argument="-5.6543889"
       sodipodi:t0="0.50228161"
       d="m 98.305624,267.09203 c 17.366496,-10.33914 40.108086,-3.12808 49.832676,14.16999 10.81341,19.23484 2.81452,43.99614 -16.31796,54.41834 -5.61841,3.06056 -11.92936,4.79262 -18.32033,5.05798"
       transform="matrix(1.2793349,0,0,1.3211205,-1003.0722,-377.7003)" />
    <path
       style="opacity:0.03423731;fill:#ffffff;fill-opacity:1;fill-rule:nonzero;stroke:none"
       id="path3855"
       d="m 227.68732,97.317237 c -0.84413,1.596872 -1.51075,3.231853 -2.02678,4.952073 -0.28472,0.92179 -0.37688,1.88528 -0.42965,2.84419 -0.32442,4.42105 -1.61084,8.57868 -3.59651,12.53087 -1.26396,2.10347 -1.91018,4.15374 -2.86091,6.4923 -0.2492,0.0538 -0.97158,3.11385 -0.65057,1.99257 -0.2045,2.32568 -0.50734,4.66661 -0.85187,6.98487 -0.40061,2.5048 -0.97437,4.97544 -1.60257,7.43157 -0.57957,2.8316 -1.54095,5.54984 -2.5888,8.23969 -0.80379,2.35149 -1.51812,4.73463 -2.18154,7.12982 -0.64851,2.16586 -1.17323,4.36412 -1.87227,6.51559 -0.95192,2.92979 -0.47449,1.15612 -0.89431,2.78266 -0.81398,2.96094 -1.73942,5.89337 -2.27535,8.92106 -0.45227,4.28928 -0.96432,8.57601 -1.55425,12.84989 -0.79189,3.83506 -1.24374,7.71546 -1.74843,11.59287 -0.29062,2.94258 -0.83941,5.85205 -1.15666,8.79062 -0.19944,2.2594 -0.20539,4.53039 -0.22545,6.79681 -0.17612,3.32623 -0.45394,6.64439 -0.60307,9.97227 -0.0137,2.61684 -0.24554,5.21475 -0.59992,7.80582 -0.13635,2.157 -0.38785,4.30322 -0.61818,6.4523 -0.20687,2.00989 -0.25172,4.03014 -0.28352,6.04873 -0.0301,2.90702 -0.0228,5.81427 -0.0214,8.7214 3.5e-4,0.53355 6.8e-4,1.06711 0.001,1.60067 9.4e-4,1.42522 0.002,2.85044 0.003,4.27566 6.4e-4,1.34793 -0.0763,1.70367 0.0358,1.09007 0.0226,0.1926 -0.0341,0.41291 0.068,0.5778 0.0903,0.1458 -0.003,-0.34399 -0.0283,-0.51367 -0.18737,-1.28178 -0.62319,-2.44458 -1.23458,-3.57851 1.26084,1.71556 2.49548,3.45085 3.69651,5.20891 -1.91623,-3.08949 -5.29139,-4.98812 -8.72329,-5.85779 -1.17389,-0.13712 2.38467,-0.0715 2.41804,-0.0717 2.92611,0.0846 5.80936,0.57711 8.68088,1.09932 0.52574,0.19662 1.03258,0.24196 1.57213,0.25788 0.98643,0.0312 -0.21106,-0.009 -1.52018,-0.006 -0.11783,2.3e-4 -0.46149,0.0656 -0.35295,0.0197 0.69928,-0.29563 1.83258,-0.26505 2.56507,-0.35658 3.02345,-0.31806 6.06907,-0.31261 9.10572,-0.33287 2.82618,-0.0118 5.6524,-0.008 8.4786,-0.006 4.25472,-0.1606 8.44298,0.47609 12.35211,2.23664 1.03246,0.46499 1.98134,1.09684 2.97201,1.64525 6.27492,4.23735 9.10931,9.38441 11.1249,16.43093 1.38156,5.07597 1.59011,10.35155 1.75474,15.5787 -0.0246,4.13612 -0.27326,8.27441 -0.71115,12.38674 -0.59198,3.85604 -1.50164,7.65616 -2.5241,11.41802 -0.84529,3.6799 -2.27063,7.1796 -3.60991,10.69727 -0.40597,1.21117 -0.49851,2.10304 -0.82448,3.46492 -0.0392,1.5553 -0.47152,3.44151 -0.75815,4.998 -0.49523,2.81487 -1.34451,5.54495 -2.06843,8.30382 -0.0453,0.31085 -0.0223,0.81029 -0.0353,1.42716 0.0154,-0.14839 -0.0366,-0.56931 0.0462,-0.44516 0.11355,0.17041 0.0446,0.40714 0.0643,0.61097 0.0385,0.39681 0.0757,0.79374 0.11031,1.1909 0.12458,1.42988 0.22252,2.86044 0.30943,4.29301 0.0117,1.24921 0.26442,1.99534 0.54179,4.13579 0.26819,2.33338 0.31514,4.68327 0.33686,7.02937 -0.007,0.47097 0.032,5.92442 -0.0102,2.23338 0.36591,2.07038 0.54317,4.16478 0.65035,6.26234 0.0732,1.77261 0.0709,3.54707 0.0716,5.32083 -8.2e-4,1.76633 -0.003,3.53266 -0.004,5.29899 0.0754,2.28981 -0.0695,4.55142 -0.25394,6.83411 -0.20853,0.96945 -0.28201,1.97815 -0.62558,2.90835 -6.31258,17.0908 -8.84056,3.78245 -34.46827,-14.08867 -0.24381,-0.17001 3.11947,-4.68586 3.43851,-5.11013 0.3602,-0.44831 0.71456,-0.90138 1.08059,-1.34495 0.41699,-0.50531 1.60287,-1.89428 2.07153,-2.38771 0.55067,-0.5798 1.12675,-1.13493 1.68875,-1.70375 0.12516,-0.12667 0.27842,-0.23164 0.37271,-0.38269 0.076,-0.12181 -0.2109,0.19494 -0.31635,0.29241 -0.012,0.11109 0.62121,-0.88294 0.44674,-0.67975 -0.13675,0.15926 -0.18767,0.40479 -0.36923,0.51013 -0.12093,0.0702 0.10331,-0.25987 0.15895,-0.38813 0.13905,-0.32058 0.28336,-0.63885 0.42504,-0.95828 0.56699,-1.37435 1.28897,-2.74455 1.55851,-4.2209 0.90373,-4.04485 2.63554,-7.73207 4.85336,-11.21107 2.22484,-3.1585 4.89734,-5.98789 7.57496,-8.76562 1.41566,-1.22554 1.95798,-2.0658 3.02254,-3.41228 1.69814,-2.25068 3.70034,-4.22218 5.67324,-6.22304 0.45874,-0.42613 0.92881,-0.84037 1.3762,-1.27839 0.2351,-0.23017 -0.92374,0.92505 -0.74215,0.6507 0.76477,-1.15544 1.76824,-2.21071 2.66536,-3.26252 1.61519,-1.85515 3.34666,-3.60357 5.07979,-5.34737 1.24704,-1.14913 2.34285,-2.36427 3.42167,-3.64245 1.03886,-1.25813 2.20875,-2.84314 3.46945,-4.34512 1.63248,-1.57285 3.09278,-3.27988 4.54571,-5.01097 1.32728,-1.53961 2.55978,-3.15798 3.78665,-4.77803 1.58102,-2.09004 3.21037,-4.14243 4.77992,-6.24136 1.67717,-2.36707 3.10404,-4.91645 4.43431,-7.4928 1.23745,-2.41584 2.3963,-4.86936 3.65819,-7.27271 1.65705,-3.04826 3.50623,-5.98028 5.46744,-8.84015 1.96902,-3.02872 4.1372,-5.90874 6.34771,-8.76291 1.45108,-2.00822 2.7789,-4.10541 4.01152,-6.2544 2.3364,-4.14568 4.88431,-8.16406 7.50283,-12.13569 1.53726,-2.27264 3.02929,-4.57046 4.44218,-6.92127 1.37202,-2.35109 2.86502,-4.62829 4.35097,-6.90804 1.90261,-2.91668 3.90514,-5.76781 5.89882,-8.62284 1.44448,-1.94383 2.73791,-3.99141 4.13344,-5.96972 0.76715,-1.28972 1.58467,-2.55664 2.23254,-3.91527 -0.3247,0.44025 -0.0717,0.11564 0.37787,-0.91855 0.0315,-0.0725 0.11264,-0.29551 0.0805,-0.22323 -0.28967,0.65167 -0.8854,2.80017 -0.0698,-0.31125 0.18499,-1.26603 0.58017,-2.50272 0.72691,-3.77287 0.11992,-1.75439 0.57637,-3.46083 0.82854,-5.19551 0.48841,-2.69064 1.20298,-5.33091 1.92356,-7.9662 0.30667,-0.92931 0.34116,-3.49986 0.14431,0.58174 0.17899,4.1409 2.07403,7.82761 5.09275,10.65521 0.91317,0.85535 2.02161,1.47483 3.03241,2.21224 3.41039,1.48889 2.1546,1.14297 4.7433,1.78025 0.12041,0.0296 0.36448,-0.0474 0.36404,0.0767 -4.3e-4,0.12144 -0.24288,-4.2e-4 -0.36431,-0.002 -2.16588,-0.0252 0.71901,-1e-5 -2.02367,-0.0215 -3.47497,-0.008 -6.94996,0.003 -10.42492,0.0103 -1.20331,0.0299 -2.40899,-0.0271 -3.61219,0.006 -0.25806,0.007 0.51794,-0.0232 0.77444,0.006 0.19465,0.0221 -1.36956,0.13319 0.15795,0.0124 0.27331,-0.0533 1.043,-0.32642 0.81994,-0.15975 -0.43383,0.32414 -4.62455,1.34474 -5.39408,1.60282 -3.18053,1.00941 -6.464,1.58032 -9.77741,1.90804 -3.4121,0.25225 -6.83834,0.21238 -10.25381,0.0743 -4.6919,-0.33714 -9.28423,-1.40206 -13.89732,-2.26182 -1.4611,-0.29275 -2.94535,-0.42166 -4.43225,-0.47117 -5.81879,-0.0331 -10.52543,-1.92718 -15.05907,-5.57941 -0.84068,-0.67723 -1.51501,-1.53828 -2.27251,-2.30742 -3.72693,-4.52468 -5.75168,-10.05004 -5.75009,-15.92688 3.5e-4,-1.26884 0.19371,-2.53027 0.29057,-3.79541 0.54621,-3.11468 1.41605,-6.21359 2.9268,-9.01241 1.03817,-1.92332 2.27852,-3.64728 3.48383,-5.44854 1.87797,-3.10897 4.0061,-6.0312 6.34644,-8.80461 2.36743,-3.03455 5.12481,-5.73899 7.91789,-8.37712 0.15201,-0.16226 0.30429,-0.32427 0.45602,-0.48679 0.21548,-0.23081 0.4392,-0.45423 0.64561,-0.69319 0.0178,-0.0206 0.0482,-0.0812 0.0212,-0.0788 -0.37818,0.0342 -0.42929,0.63866 -0.72046,0.8824 -0.12238,0.10244 0.12023,-0.29569 0.18035,-0.44354 -0.10178,0.15578 -0.35394,0.64694 -0.30533,0.46733 0.66135,-2.44347 1.838,-4.94379 2.59519,-7.40659 0.14631,-0.94134 0.29835,-2.02019 0.50708,-3.16128 0.13647,-0.85536 0.15346,-1.72689 0.18062,-2.59168 0.0742,-2.91846 0.51642,-5.8133 1.00373,-8.68628 0.62366,-3.6134 1.55386,-7.15737 2.60874,-10.66568 1.16573,-3.84984 2.62087,-7.59715 4.20772,-11.29013 0.9952,-2.46715 2.06453,-4.90144 3.10763,-7.34805 0.3207,-0.43075 1.14418,-3.40727 0.52906,-1.311972 -0.22962,1.756122 -0.13547,-3.189007 -0.0978,1.193472 -0.1174,-0.46482 0.0888,0.83134 0.0939,0.85731 0.0282,0.14333 0.17787,0.55094 0.1016,0.42634 -1.2184,-1.99046 -0.042,-0.41891 -0.39937,-0.89146 -0.0868,-0.16562 -0.17353,-0.33123 -0.26029,-0.49685 -0.21387,-0.44264 -0.41659,-0.89085 -0.64163,-1.327921 -0.16142,-0.313515 0.30913,0.634341 0.44507,0.959711 0.011,0.0264 0.0363,0.10277 0.0143,0.0846 -0.1289,-0.10659 -0.23236,-0.24065 -0.34854,-0.36097 -0.10393,-0.0904 -0.24581,-0.12161 -0.35373,-0.20476 -0.38018,-0.292933 -2.15041,-1.771092 -2.33903,-1.923896 -1.09648,-0.888255 -1.22007,-1.17438 -0.92511,-0.625457 -0.89553,-0.364368 -1.83974,-0.536672 -2.86177,-0.729935 -2.75233,-0.292376 -5.50163,-0.619349 -8.25828,-0.878714 -5.35571,-0.598742 -10.72268,-1.079442 -16.06336,-1.804963 -3.19496,-0.347233 -6.30331,-1.226088 -9.50006,-1.547142 -2.39988,-0.246608 -4.78366,-0.581684 -7.19296,-0.729283 -2.30879,-0.118543 -4.62103,-0.13675 -6.93232,-0.147812 -2.60832,-0.0058 -5.21665,-9.95e-4 -7.82497,0.001 -1.35338,0.03625 -2.71048,-0.04195 -4.06358,0.0022 -0.0518,0.0017 0.0993,0.03991 0.15095,0.03685 0.47659,-0.02821 0.95677,-0.04401 1.42635,-0.130209 0.66764,-0.12256 1.317,-0.329515 1.9755,-0.494272 0.55994,0.0912 3.03718,-1.760869 0.99896,-0.249023 -0.12067,0.08951 0.24962,-0.175034 0.39242,-0.221739 0.0462,-0.0151 -0.0396,0.06331 -0.4735,0.487668 1.63342,-1.645189 1.12415,-0.838693 1.7373,-2.083022 -0.51252,2.014309 -1.28007,3.920841 -2.0624,5.845181 -10.9339,24.139168 -45.07185,8.676288 -34.13794,-15.462879 l 0,0 c -1.05879,3.132116 0.42533,-1.366094 0.53414,-1.889771 1.77914,-5.131708 4.26298,-9.964736 8.28321,-13.73712 3.43408,-3.184346 7.16993,-6.030496 11.56095,-7.776811 1.22767,-0.378343 2.4326,-0.840409 3.68301,-1.13503 3.27658,-0.772027 6.63039,-0.674908 9.96552,-0.668646 2.67955,-0.0021 5.35911,-0.0071 8.03866,-5.88e-4 3.06137,0.01545 6.12402,0.04946 9.18112,0.226441 3.00764,0.202318 5.99221,0.565604 8.98662,0.88935 3.49668,0.414869 6.93588,1.111219 10.40986,1.661709 4.81126,0.684877 9.66027,1.043139 14.48469,1.620542 4.24203,0.408806 8.49605,0.818905 12.69272,1.571624 5.25715,1.190361 10.42996,2.832213 15.01757,5.744677 4.07368,2.753177 7.97709,5.790016 11.38663,9.351186 2.71443,3.083976 5.13424,6.377646 6.77582,10.170238 1.71911,3.762974 3.22297,7.656587 3.5892,11.818141 0.18969,3.318495 0.23933,6.624125 -0.43719,9.903045 -0.66517,3.03196 -1.62363,5.95591 -2.86121,8.80318 -1.06184,2.4519 -2.10975,4.90733 -3.12178,7.38087 -1.04712,2.40639 -2.00323,4.84905 -2.76608,7.36244 -0.61933,1.97178 -1.13624,3.96977 -1.50747,6.00393 -0.37461,2.20825 -0.54447,3.06713 -0.49968,3.75254 -0.10097,2.68224 -0.27861,5.36764 -0.77033,8.01094 -0.23671,1.29059 -0.78315,5.27055 -1.65984,7.77764 -1.26669,3.92167 -2.72611,7.77863 -4.14698,11.64629 -1.18814,2.43294 -1.34569,2.91296 -3.00095,5.44332 -1.59411,2.43687 -3.68435,4.50643 -5.7215,6.56384 -1.87682,1.76663 -3.75371,3.54185 -5.28351,5.6265 -1.48078,1.49167 -2.34738,3.52011 -3.5934,5.2015 -0.3177,0.47109 -0.63252,0.94413 -0.95309,1.41327 -0.21742,0.31817 -0.70886,1.33094 -0.66085,0.94858 0.0655,-0.52203 0.49996,-0.9268 0.71823,-1.40553 0.36297,-0.7961 0.43242,-1.7124 0.5466,-2.56307 0.0419,-3.99073 -0.93685,-6.88932 -3.62114,-9.93758 -2.28941,-2.14989 -4.48032,-3.56001 -7.53783,-4.41564 -0.65811,-0.18417 -1.3448,-0.24916 -2.02325,-0.33119 -0.30744,-0.0372 -1.23829,-0.0308 -0.92866,-0.0257 0.42021,0.007 0.84028,0.0208 1.26042,0.0311 3.28546,0.14326 6.56382,0.45175 9.79601,1.0781 2.95701,0.55388 5.90318,1.16921 8.86952,1.67004 1.65934,0.136 3.32827,0.0345 4.99159,0.0347 0.72236,-0.0226 1.42498,-0.17103 2.11432,-0.3913 2.67544,-0.80822 5.36129,-1.5819 8.05223,-2.33813 3.37399,-0.61703 6.76168,-0.94228 10.19605,-0.80094 3.61065,-0.007 7.22133,-0.0199 10.83199,-0.009 5.15875,0.0498 10.22504,0.27503 14.92394,2.75771 1.31534,0.90389 2.75001,1.65493 3.94602,2.71167 4.5286,4.00129 6.92655,9.52491 7.38401,15.46541 -0.0102,1.1369 0.0126,2.27457 -0.0307,3.4107 -0.0997,2.61958 -0.80606,5.2009 -1.39699,7.73694 -0.38007,1.38842 -0.70782,2.78791 -1.07505,4.17843 -0.0115,0.0437 10e-4,-0.0904 0.002,-0.13558 -0.40834,2.46393 -0.62217,3.0932 -0.89562,5.59753 -0.48337,2.6685 -0.81742,4.27852 -1.47958,7.18112 -0.42273,1.28554 1.20883,-3.69157 -0.62303,2.37551 -0.66734,2.21021 -1.60201,4.30604 -2.58946,6.38706 -1.53184,2.94106 -3.18151,5.81874 -5.05384,8.55888 -1.36245,1.86973 -2.53356,3.87557 -3.94928,5.7086 -1.77981,2.54383 -3.56699,5.08494 -5.26401,7.68467 -1.23477,1.87107 -2.45598,3.75057 -3.58494,5.68768 -1.68641,2.80392 -3.45725,5.55178 -5.28844,8.26363 -2.2232,3.35916 -4.37768,6.76291 -6.35123,10.27613 -2.08986,3.58399 -4.31067,7.10183 -6.81145,10.41581 -1.80622,2.33003 -3.5856,4.67081 -5.17265,7.16041 -1.13103,1.58936 -2.1311,3.25632 -3.10438,4.94567 -1.26175,2.38737 -2.38464,4.84476 -3.63916,7.23651 -2.28858,4.3214 -4.70137,8.60223 -7.61843,12.53631 -1.6125,2.15062 -3.28059,4.25741 -4.90082,6.40191 -1.60457,2.11876 -3.23217,4.22305 -4.95714,6.24572 -1.6005,1.90689 -3.16535,3.94253 -5.02752,5.607 -0.15059,0.13461 0.25224,-0.31553 0.37836,-0.4733 -1.20553,1.38665 -2.19827,2.94439 -3.43598,4.30552 -1.73248,2.05151 -3.53502,4.03532 -5.48023,5.88874 -1.09316,1.09915 -2.19124,2.19501 -3.23004,3.34626 -1.76547,2.01758 -3.22224,4.31342 -5.30151,6.04367 -0.98821,0.97524 -1.58935,1.4694 -2.7039,2.89637 -1.76626,2.23221 -3.54022,4.46972 -5.65006,6.39465 -1.09108,1.04223 -2.83753,3.07615 -3.2631,3.47838 0.28366,-0.53196 0.3814,-0.68217 0.61517,-1.28795 0.12305,-0.31886 0.6451,-2.21025 -0.0734,0.29091 -0.0519,0.18058 -0.10852,0.35975 -0.16278,0.53962 -0.9329,3.50517 -2.10548,6.94053 -3.6502,10.22833 -1.69164,3.77171 -3.6047,7.45309 -6.37482,10.56303 -1.87579,2.10318 -2.1453,2.20114 -3.60286,3.92284 -0.81614,1.01319 0.028,0.0126 -0.12048,-0.0745 -10.75903,-6.3135 -20.96058,-13.88867 -32.5968,-18.38485 -1.29978,-0.50222 -2.28887,5.54543 -2.56758,7.01233 -0.21072,4.72552 -0.0196,-0.98746 -0.0827,-1.84564 0.001,-1.75368 0.003,-3.50736 0.004,-5.26104 -4.1e-4,-1.18572 0.003,-2.37175 -0.0294,-3.55713 -0.0285,-0.80296 -0.0999,-1.5992 -0.26391,-2.38854 -0.35315,-2.51034 -0.47481,-5.02884 -0.41702,-7.56167 -0.007,-0.90554 -0.0257,-1.81202 -0.0503,-2.71646 -0.22439,-2.17995 -0.80032,-4.32741 -0.76291,-6.53569 -0.17642,-3.01482 -0.56925,-6.014 -0.57935,-9.03759 0.11552,-3.35372 0.40032,-6.71094 1.29076,-9.96117 0.51528,-1.9079 1.11474,-3.79426 1.47797,-5.73908 0.52778,-2.16816 0.48792,-4.44867 1.10555,-6.60367 0.62448,-2.60752 1.17996,-5.49736 2.25649,-8.09837 0.92304,-2.41524 1.97008,-4.7859 2.50395,-7.32797 0.55392,-1.92847 0.96692,-3.90645 1.42962,-5.84829 0.16563,-0.72921 0.0503,-0.1568 0.15001,-1.68626 0.11157,-1.7109 0.23874,-3.42088 0.31705,-5.13378 -0.0648,-2.20339 -0.091,-4.43374 -0.38302,-6.61554 -0.0611,-0.23154 -0.32448,-0.888 -0.18324,-0.69463 0.27089,0.37088 0.36729,0.84317 0.58651,1.24674 0.19299,0.3553 0.41753,0.69317 0.64778,1.02554 0.85595,1.2356 2.09653,2.15967 3.23211,3.14446 0.24463,0.21215 0.54698,0.34673 0.82048,0.52009 1.96481,0.96894 3.79445,1.59323 5.99075,1.81669 0.27689,0.0282 1.11324,8.6e-4 0.83495,-0.003 -0.77084,-0.0107 -1.5419,0.0105 -2.31273,-0.001 -2.73739,-0.002 -5.47479,-0.005 -8.21216,0.005 -1.62194,0.0103 -3.24378,0.0308 -4.86528,0.0643 -2.6203,0.26919 -5.23053,0.86764 -7.88632,0.51444 -2.3988,-0.18887 -4.7907,-0.48533 -7.12673,-1.0823 4.88172,0.68669 -4.76864,-0.48858 -0.25367,-0.17719 -2.79125,0.0116 -5.59279,0.0225 -8.36277,-0.37657 -0.94971,-0.18638 -1.91279,-0.31426 -2.84912,-0.55913 -5.65215,-1.47814 -10.54294,-4.90412 -13.79257,-9.76878 -0.28427,-0.55061 -0.002,-0.0194 -0.88797,-1.25935 -0.82403,-1.15292 -1.62941,-2.31779 -2.47332,-3.45712 -3.14982,-4.81508 -5.01275,-9.27485 -5.37112,-15.09124 -0.17235,-3.22426 -0.14948,-6.44811 -0.1389,-9.67685 -0.002,-3.11974 -0.009,-6.23964 0.0265,-9.35923 0.054,-3.15673 0.15793,-6.31461 0.49532,-9.45597 0.27204,-2.50221 0.50773,-4.9984 0.74698,-7.50463 0.0401,-0.29297 0.0787,-0.58614 0.12023,-0.87891 0.0196,-0.13802 0.0373,-0.55039 0.063,-0.4134 0.0439,0.23336 -0.0168,0.94961 -0.007,0.71236 0.0544,-1.28058 0.0362,-2.56463 0.11615,-3.8445 0.13158,-2.87543 0.27939,-5.75476 0.5662,-8.61848 0.0336,-3.56439 0.0823,-7.13485 0.46329,-10.68263 0.36924,-3.1698 0.89866,-6.31626 1.24267,-9.48939 0.54197,-3.95899 0.94336,-7.93931 1.78389,-11.85317 0.6931,-4.86994 1.14119,-9.77094 1.84832,-14.63733 0.82252,-4.2188 1.91979,-8.36488 3.13372,-12.48742 0.89947,-2.96815 1.89883,-5.902 2.65594,-8.91323 1.01346,-3.56576 2.05413,-7.12837 3.34628,-10.60513 0.57417,-1.46529 0.60426,-1.49833 1.01771,-3.23584 0.0783,-0.32913 0.17126,-0.65461 0.25689,-0.98192 0.52496,-1.50102 0.49762,-2.43361 0.85122,-3.93375 0.077,0.61707 0.005,0.11351 0.17033,-1.3408 0.1597,-1.40094 0.41649,-2.78699 0.47151,-4.19927 0.56568,-3.94014 1.53885,-7.78671 3.12346,-11.45197 1.30805,-3.20968 2.49857,-6.48315 4.23953,-9.49358 0.0464,-0.078 0.1648,-0.32127 0.13936,-0.23409 -0.21546,0.73823 -0.47437,1.46308 -0.71156,2.19463 0.0398,-0.14213 0.10633,-0.57339 0.1193,-0.42638 0.1962,2.22468 -0.36188,-0.55394 0.0151,0.20687 0.30443,-3.71272 0.85899,-7.407991 1.96757,-10.975259 0.92515,-2.984165 1.95423,-5.954445 3.40999,-8.72703 10.43886,-24.357343 44.88535,-9.594564 34.44649,14.76278 z"
       inkscape:connector-curvature="0"
       transform="translate(-1035.2009,-294.09377)" />
    <text
       xml:space="preserve"
       style="font-size:16px;font-style:normal;font-variant:normal;font-weight:normal;font-stretch:normal;text-align:end;line-height:150%;letter-spacing:0px;word-spacing:0px;writing-mode:lr-tb;text-anchor:end;fill:#000000;fill-opacity:1;stroke:none;font-family:Open Sans;-inkscape-font-specification:Open Sans"
       x="-156.2706"
       y="158.64024"
       id="text3791"
       sodipodi:linespacing="150%"
       transform="translate(-1035.2009,-294.09377)"><tspan
         sodipodi:role="line"
         id="tspan3793"
         x="-156.2706"
         y="158.64024" /></text>
    <path
       style="opacity:0.66949152;fill:none;stroke:none"
       id="path3835"
       d="m 193.06722,67.952955 c 0.28791,0.07444 0.57191,0.166071 0.86373,0.223315 1.80842,0.354749 3.65526,0.576057 5.47306,0.875766 5.71472,0.942218 0.19932,0.09745 6.68006,1.057766 4.99403,0.714136 9.99608,1.372375 14.99784,2.029833 1.98438,0.260837 3.97663,0.465855 5.95446,0.772459 24.34178,3.773479 -11.10859,-1.327116 14.22105,2.256316 2.44289,0.29903 4.88212,0.629724 7.32868,0.897091 3.59235,0.392582 10.21522,0.955918 13.86324,1.256439 5.89029,0.485237 11.77868,0.962038 17.67683,1.33859 6.87719,0.335291 13.76253,0.340769 20.64379,0.521242 2.59687,0.0781 5.20611,0.140957 7.76468,0.624302 1.31729,0.343089 2.55101,0.943503 3.77984,1.518488 1.22929,0.561695 2.47038,1.096274 3.71609,1.620233 12.20511,4.895729 3.18049,1.399832 2.39065,32.133445 -1.85683,0.5407 -3.75695,0.56745 -5.67173,0.55843 -2.54236,-0.0948 -5.08337,-0.0899 -7.62688,-0.0531 -0.87447,0.0127 -1.74913,0.0666 -2.62333,0.0419 -1.12806,-0.0319 -2.2526,-0.14095 -3.3789,-0.21142 -1.29983,-0.0246 -2.60004,-0.0343 -3.8995,-0.0739 -5.67206,-0.17284 -4.10418,-0.28525 -10.04676,-0.19509 -5.77092,0.0876 -11.52117,0.45617 -17.27496,0.87765 -10.00779,0.90296 -19.96867,2.22 -29.92658,3.5471 -4.62599,0.70969 -9.30063,1.49962 -13.64865,3.30499 -0.49733,0.2065 -0.97638,0.45452 -1.46457,0.68178 -0.40041,0.2137 -0.80447,0.42069 -1.20122,0.6411 -1.2549,0.69712 -0.72796,0.46622 -1.95769,1.10292 -0.91371,0.47308 -1.86352,0.87014 -2.79982,1.29525 -1.28357,0.51144 -2.56133,1.07605 -3.90688,1.41059 -0.62349,0.15501 -1.6914,0.32945 -2.32228,0.43939 -3.07428,0.004 -6.1583,0.0497 -9.17032,0.73519 -0.47042,0.10705 -0.92993,0.25741 -1.39489,0.38611 -0.23128,0.0228 -2.50243,1.00012 -2.06456,1.57483 0.1383,0.18153 0.58372,0.57129 0.59237,0.34324 0.37982,-10.01592 0.35647,-20.04308 0.5347,-30.06462 -0.14133,0.13639 -0.36921,0.22055 -0.42401,0.40917 -0.1141,0.39268 0.45743,1.15172 0.61069,1.35131 0.97796,1.27354 2.18647,2.04735 3.52076,2.91096 6.30349,3.37273 13.34649,4.98872 20.25558,6.60469 10.79345,2.28339 21.68402,4.0721 32.55036,5.96774 1.76342,0.31693 3.53436,0.59452 5.29026,0.95078 1.8573,0.37684 3.69361,0.85131 5.54678,1.24799 1.8477,0.39551 3.70491,0.74531 5.55521,1.12846 1.92646,0.39891 3.84305,0.84627 5.77499,1.2177 3.92843,0.75529 6.80073,1.14979 10.72306,1.74067 3.70433,0.52744 7.43786,0.82717 11.17303,1.02304 1.74953,0.0917 3.49971,0.11262 5.24842,0.21938 1.52581,0.12322 2.66355,0.63147 3.787,1.63081 0.70191,0.79795 1.43572,1.55264 1.88554,2.52612 9.05037,-28.75441 8.79019,30.47053 -1.76299,31.73503 -0.74644,0.0894 -1.50406,0.0175 -2.25532,-0.0105 -3.11821,-0.11649 -4.01688,-0.3227 -7.47762,-0.75281 -11.24942,-0.83777 -22.55659,-0.93744 -33.82556,-0.44923 -2.36154,0.10231 -4.72007,0.26524 -7.0801,0.39786 -9.87752,0.72614 -19.74079,1.86051 -29.45725,3.80997 -1.44049,0.28901 -2.87133,0.62418 -4.30699,0.93627 -4.26609,0.90783 -8.38273,2.36299 -12.58527,3.50277 -0.28826,0.0782 -4.48787,1.13426 -4.85788,1.22743 -3.42759,0.77924 -6.89896,1.51529 -10.20416,2.74054 -0.50438,0.18697 -0.98907,0.42329 -1.4836,0.63494 -1.10566,0.46098 -2.00472,1.14506 -2.78411,2.04063 -0.41184,0.47322 -0.63427,0.71977 -0.82217,1.31007 -0.0651,0.20448 -0.0765,0.4223 -0.11477,0.63345 -0.0147,0.20335 -0.0677,0.40751 -0.0443,0.61005 0.0232,0.2004 0.17859,0.77909 0.18146,0.57737 0.141,-9.89396 0.23567,-19.78901 0.23333,-29.68398 -4e-5,-0.1749 -0.17885,0.30271 -0.24023,0.46649 -0.0565,0.15089 -0.13844,0.31175 -0.11092,0.47053 0.0322,0.18572 0.18523,0.32834 0.27784,0.49251 0.22917,0.1782 0.43509,0.39123 0.68752,0.53461 1.62032,0.92032 4.00298,1.47657 5.76515,1.95458 3.14983,0.85443 3.90987,0.99586 7.23416,1.76762 6.57064,1.46547 13.23055,2.47319 19.81688,3.86067 4.62209,0.97369 6.11907,1.37682 10.70316,2.4944 7.98407,2.10383 15.93157,4.4516 23.59797,7.54022 1.25444,0.50539 2.48761,1.06205 3.73141,1.59308 5.23065,2.5158 10.50273,4.92757 15.92098,7.01106 11.78025,4.41581 5.12363,0.81411 3.87711,31.6688 -0.0308,0.76208 -6.89673,0.12345 -7.33311,0.0909 -7.85925,-0.65289 -15.73983,-1.02248 -23.62679,-1.04406 -2.04501,-0.006 -4.0899,0.0329 -6.13485,0.0494 -10.21783,0.22106 -20.46119,0.92817 -30.54674,2.64492 -1.66509,0.28343 -3.31655,0.64177 -4.97483,0.96266 -3.67286,0.74986 -7.30906,1.75466 -10.71587,3.34229 -1.13511,0.52898 -2.39464,1.23463 -3.3901,2.02989 -0.30304,0.24209 -0.55661,0.54032 -0.83492,0.81049 -0.96793,1.45085 -0.55339,1.56489 -0.12791,2.98327 -0.0101,-9.91719 0.007,-19.83445 -0.0303,-29.75158 -7.9e-4,-0.2081 -0.0858,0.41104 -0.0805,0.61907 0.006,0.22702 0.0505,0.45357 0.11337,0.67179 0.37681,1.30757 1.11061,2.0674 2.00041,3.06497 0.57521,0.48141 1.11088,1.01448 1.72564,1.44425 6.40171,4.4753 15.33992,5.56602 22.84295,6.69935 10.44359,1.08257 20.96238,1.48464 31.46004,1.3489 6.66576,-0.0862 9.91385,-0.30838 16.55485,-0.63857 13.09495,-0.81034 26.15263,-2.14091 39.19376,-3.56028 5.0277,-0.32981 9.95122,-1.49266 14.95801,-1.97642 0.66779,9.6e-4 1.12398,-0.0523 1.77362,0.17073 0.36727,0.1261 0.73064,0.28215 1.05239,0.49956 0.20113,0.1359 0.90347,0.92986 0.90283,1.23668 -0.0213,10.27797 -0.27903,20.55409 -0.41855,30.83113 -2.49254,2.15029 -5.85568,1.86199 -8.92928,1.75383 -9.20017,-0.86483 -18.36965,-2.02496 -27.56585,-2.92831 -2.71794,-0.26699 -5.43909,-0.50023 -8.15864,-0.75035 -12.19653,-1.05146 -24.43342,-1.53557 -36.67415,-1.51986 -6.81907,0.009 -10.1003,0.1414 -16.82666,0.3267 -8.38964,0.28958 -16.78843,0.60411 -25.15992,1.25498 -1.86573,0.14505 -6.26186,0.6079 -8.24013,0.81145 -3.53158,0.42103 -7.09718,0.97246 -10.45676,2.19037 -1.20612,0.43725 -1.91115,0.82244 -3.03423,1.37954 -0.64286,0.45732 -1.68228,0.90293 -1.97391,1.73859 -0.18176,0.52085 0.21056,1.03004 0.47559,1.41738 0.0388,-9.90271 0.11765,-19.80535 0.11638,-29.70813 -2e-5,-0.20486 -0.12307,0.39787 -0.12011,0.6027 0.004,0.2453 0.06,0.49052 0.13928,0.72267 0.44234,1.29502 1.50502,2.17102 2.45252,3.0895 0.57288,0.45759 1.12398,0.94389 1.71865,1.37278 5.24384,3.782 11.76453,6.28477 17.72325,8.66481 10.89166,4.12295 22.32209,6.71488 33.81349,8.50662 2.69558,0.42029 5.40598,0.73931 8.10897,1.10897 5.78575,0.47909 11.52777,1.40519 17.31252,1.89214 1.11788,0.0941 17.6636,1.01665 18.59186,1.04671 7.61707,0.24668 9.98567,0.0647 17.42598,-0.15998 5.45697,-0.15197 10.87008,-0.85655 16.29961,-1.34572 2.05444,-0.1851 3.78674,-0.28354 5.81645,-0.0774 11.29655,3.07738 2.38915,16.1825 2.40365,31.46754 2.2e-4,0.23657 -0.40115,0.25296 -0.5849,0.40196 -1.21394,0.98438 0.68495,-0.34778 -0.79016,0.65177 -0.89224,0.54019 -1.69217,1.27602 -2.71262,1.56843 -0.44695,0.12808 -0.90977,0.19231 -1.36466,0.28846 -3.98657,0.54424 -8.00953,0.72641 -12.01356,1.09753 -3.51502,0.32579 -7.02597,0.69405 -10.53964,1.03409 -9.28642,0.83908 -18.56384,1.7703 -27.84423,2.6721 -2.47996,0.24098 -4.95697,0.51756 -7.44135,0.70771 -2.56761,0.19653 -5.14142,0.30141 -7.71213,0.45211 -9.91041,0.83283 -19.91422,1.58209 -29.59258,4.01648 -1.11702,0.28096 -2.21324,0.63894 -3.31985,0.95841 -2.78643,0.82457 -5.37666,2.08006 -7.67107,3.85234 0.0797,0.11477 -0.70213,0.43305 -0.55678,0.69054 0.094,0.16654 0.50168,0.45868 0.50756,0.26752 0.31083,-10.11725 0.4519,-20.24124 0.41708,-30.3632 -7e-4,-0.20312 -0.46836,0.12059 -0.52046,0.31692 -0.0512,0.19273 0.19922,0.34548 0.29883,0.51822 0.32454,0.24053 0.63123,0.50724 0.97363,0.72158 1.12295,0.70294 2.63625,1.41037 3.82713,1.89306 3.78123,1.53263 7.70286,2.51053 11.64625,3.5204 11.73268,2.80784 23.6897,4.49963 35.62885,6.14487 3.84201,0.58794 7.71401,0.96492 11.55694,1.54614 1.86189,0.28161 3.71153,0.63925 5.57006,0.94225 4.41863,0.72038 8.83674,1.37977 13.2835,1.89448 1.80676,0.19387 3.62652,0.23982 5.43557,0.40377 0.50448,0.0457 1.52462,-0.34716 1.51127,0.15921 -0.82586,31.3283 7.84112,31.33544 -3.90607,30.60874 -6.83139,-0.15188 -13.66175,0.0653 -20.48988,0.25372 -12.17403,0.44555 -24.33199,1.32217 -36.46737,2.37553 -8.10117,0.83363 -16.27209,1.12638 -24.32566,2.3974 -1.02325,0.16149 -2.03707,0.37787 -3.05561,0.5668 -1.38654,0.35277 -2.62145,0.59669 -3.92837,1.15204 -0.79418,0.33746 -1.88953,1.09454 -1.42991,1.38703 0.27502,0.175 0.63008,0.16747 0.94511,0.2512 -0.0642,-10.1073 -0.0485,-20.21543 -0.19247,-30.32191 -0.002,-0.13343 -0.25055,0.19164 -0.23489,0.32416 0.0194,0.16415 0.19197,0.2736 0.31816,0.38038 0.84452,0.71462 2.07354,1.03265 3.07512,1.40351 6.57088,2.1243 13.24967,3.8686 19.96291,5.47502 10.45186,2.41091 21.03021,4.20579 31.61012,5.94528 3.27444,0.58038 6.57483,1.0017 9.85251,1.56167 1.70828,0.29184 3.4043,0.65295 5.11322,0.94102 1.66863,0.28128 3.34615,0.5071 5.01827,0.76683 1.66477,0.2586 3.32278,0.56282 4.99238,0.78817 1.52587,0.20596 3.06092,0.33693 4.59138,0.5054 3.16028,0.26562 6.33248,0.49132 9.50638,0.40862 1.1182,-0.0291 2.19863,-0.17942 3.30622,-0.29171 -0.12646,10.28362 0.11424,20.57832 -0.37937,30.85087 -0.0177,0.36728 -0.73558,0.0117 -1.10312,8.7e-4 -0.39801,-0.0117 -0.79603,-0.0323 -1.19259,-0.0682 -2.33644,-0.21168 -4.63018,-0.67939 -6.93074,-1.12112 -10.54595,-1.88682 -21.28375,-2.26063 -31.96981,-2.53432 -7.68068,0.005 -4.88794,-0.0517 -12.46984,0.16791 -5.76212,0.16688 -6.39336,0.0998 -12.04084,0.69667 -4.92554,0.52057 -5.39912,0.68881 -10.10837,1.53364 -3.13664,0.67994 -6.25142,1.54177 -9.23531,2.736 -0.78318,0.31344 -1.85783,0.79243 -2.56777,1.3295 -0.19482,0.14738 -0.34121,0.34969 -0.51182,0.52453 -0.036,0.14809 -0.12468,0.29277 -0.10802,0.44425 0.0351,0.31879 0.69687,0.97779 0.70277,0.65714 0.5628,-30.62773 9.98627,-32.15862 -0.52048,-30.23728 108.80412,9.18504 106.20619,39.9595 -2.59792,30.77445 l 0,0 c -0.29912,-0.0885 -0.88759,0.0463 -0.89736,-0.26545 -0.51819,-16.53311 -9.3296,-28.00777 2.02135,-31.70795 1.30169,-0.26947 2.57233,-0.37502 3.90239,-0.44717 3.16185,-0.17151 6.32794,-0.25919 9.48893,-0.44876 1.61674,-0.10614 3.23236,-0.23093 4.85021,-0.31843 4.21079,-0.22773 7.09102,-0.28044 11.3432,-0.43849 2.08248,-0.0774 4.16319,-0.2101 6.24671,-0.25102 4.1781,-0.0821 8.35882,0.117 12.53667,-0.0401 10.70589,0.0183 21.41855,-0.018 32.11564,-0.4926 1.65919,-0.11388 3.39401,-0.19588 5.05111,-0.42494 0.19547,-0.027 1.99066,-0.34325 2.40086,-0.48919 0.13702,-0.0487 0.36145,-0.3836 0.3655,-0.23823 0.2829,10.16008 0.31788,20.32555 0.47682,30.48833 -0.0451,-0.13021 -0.0304,-0.30135 -0.13537,-0.39064 -0.44045,-0.37461 -2.17179,-1.00288 -2.48106,-1.10956 -3.08766,-1.06506 -6.28868,-1.7596 -9.46632,-2.48884 -7.67028,-1.46828 -1.55039,-0.34257 -9.60881,-1.6911 -1.67255,-0.27989 -3.33743,-0.60584 -5.01305,-0.86676 -1.70717,-0.26583 -3.42747,-0.44283 -5.13391,-0.71328 -1.50691,-0.23883 -8.41568,-1.5287 -9.87225,-1.79848 -10.52477,-2.00163 -21.0392,-4.08149 -31.6451,-5.61873 -6.7084,-0.92745 -13.42777,-1.76659 -20.16444,-2.46238 -0.1975,-0.0227 -2.59157,-0.2928 -2.90326,-0.34612 -0.75394,-0.12897 -1.12868,-0.27981 -1.84168,-0.48789 -10.91837,-3.1864 -0.94736,3.10705 -1.51262,-31.18327 0.47107,-0.12786 1.32349,-0.38272 1.85692,-0.45614 2.09287,-0.28805 4.23559,0.01 6.33179,-5.5e-4 9.13724,0.291 18.28833,0.20986 27.42047,-0.20957 3.87994,-0.19666 8.46699,-0.40634 12.33312,-0.69605 8.05433,-0.60357 16.07044,-1.63273 24.08414,-2.6197 1.67014,-0.23985 3.34394,-0.45542 5.0104,-0.71955 2.10203,-0.33317 5.9069,-1.05159 8.09524,-1.4574 1.35769,-0.25177 3.92568,-0.70755 5.36002,-1.04142 0.61265,-0.14261 1.21516,-0.32572 1.82274,-0.48858 10.23724,-4.73236 -0.39426,-0.18622 -0.008,29.79934 0.006,0.49551 1.1446,-0.0482 1.41194,-0.46544 0.1784,-0.27844 -0.35987,-0.56803 -0.61497,-0.77845 -0.46484,-0.38344 -0.98487,-0.70089 -1.51827,-0.98121 -0.81706,-0.42941 -1.68164,-0.76159 -2.52246,-1.14238 -3.6767,-1.30502 -3.95979,-1.49102 -7.99053,-2.52083 -7.28537,-1.86135 -14.75955,-2.83878 -22.14683,-4.18932 -11.88848,-1.7998 -23.79758,-3.48216 -35.74544,-4.84035 -5.87383,-0.64324 -11.81129,-1.07279 -17.56703,-2.47317 -0.0904,-0.023 -2.23282,-0.56321 -2.23358,-0.58949 -1.17038,-40.58876 -8.94634,-26.5786 2.16823,-31.62391 2.79755,-1.04988 5.77076,-1.25997 8.73956,-1.3672 1.69115,-0.0697 6.27392,-0.26306 7.73606,-0.30126 8.48411,-0.22164 16.98241,-0.0529 25.45135,-0.71108 3.33349,-0.29709 11.67925,-1.02283 15.06132,-1.39472 9.29076,-1.0216 18.54823,-2.41605 27.70568,-4.29057 4.88403,-1.0824 9.78216,-2.11698 14.58372,-3.53417 1.41294,-0.41703 4.1283,-1.29747 5.60755,-1.93099 0.54159,-0.23195 1.05117,-0.5325 1.57676,-0.79874 0.7703,-0.5787 2.07258,-1.56019 2.36661,-2.54222 -0.0194,-0.081 -0.0474,-0.1605 -0.0583,-0.24311 -0.0132,-0.1004 0.0402,-0.21786 -0.0138,-0.30349 -0.0775,-0.12277 -0.34685,-0.41062 -0.3454,-0.26542 0.10004,10.03252 0.27773,20.06583 0.64283,30.09221 0.008,0.20839 0.36257,-0.25307 0.43663,-0.448 0.07,-0.18429 -0.0282,-0.39328 -0.0423,-0.58992 -0.23365,-0.24454 -0.42438,-0.53893 -0.70095,-0.73361 -1.05757,-0.74446 -2.94479,-1.44955 -4.06349,-1.78807 -5.23966,-1.5855 -10.72488,-2.12307 -16.14109,-2.70634 -7.97177,-0.54268 -9.25076,-0.69872 -17.46521,-0.96028 -3.16888,-0.1009 -6.34087,-0.0871 -9.50938,-0.19904 -3.05669,-0.10802 -6.10847,-0.32882 -9.16422,-0.46085 -3.02812,-0.13083 -6.06187,-0.13887 -9.08693,-0.3277 -2.78555,-0.17387 -5.5589,-0.50666 -8.33835,-0.75999 -2.7296,-0.27589 -5.46294,-0.51701 -8.1888,-0.82768 -11.53609,-1.31478 -23.02014,-3.21594 -34.2948,-6.00606 -1.66013,-0.43608 -3.32673,-0.84827 -4.98041,-1.30825 -3.47428,-0.96638 -4.60628,-1.35861 -7.90172,-2.49304 -2.07225,-0.71335 -3.67574,-1.24495 -5.65106,-2.12655 -0.66998,-0.29902 -1.31441,-0.65228 -1.97161,-0.97842 -0.75111,-0.42986 -1.99274,-1.11891 -2.74191,-1.62205 -9.73502,-6.53794 -2.62831,-24.33526 -2.24521,-32.83264 0.16661,-0.1958 0.31687,-0.40677 0.49982,-0.58739 1.13789,-1.12341 2.77321,-1.5037 4.25541,-1.93218 1.03877,-0.26016 2.37944,-0.60904 3.40921,-0.8049 3.63881,-0.6921 7.34993,-0.73835 11.04162,-0.64893 11.17804,0.45658 22.32554,1.46126 33.50719,1.86136 6.64265,0.30956 10.11595,0.49357 16.84475,0.71327 9.31103,0.30401 18.62048,0.42868 27.93562,0.49334 2.93705,0.0204 5.87411,0.0403 8.81116,0.0604 11.77718,0.051 23.67139,0.41474 35.32704,-1.58139 1.13298,-0.28063 4.48492,-0.79751 5.12567,-2.15316 0.19898,-0.42097 0.0661,-0.65009 -0.036,-1.06118 -0.0531,9.88524 -0.10618,19.77048 -0.15927,29.65572 0.20217,-0.32125 0.33483,-0.698 0.60473,-0.9649 0.15643,-0.15468 0.40573,-0.20011 0.54781,-0.36806 0.30475,-0.36026 -0.30458,-0.53287 -0.44976,-0.62222 -1.40397,-0.44236 -2.84009,-0.68965 -4.30085,-0.88205 -3.40713,-0.44879 -6.84452,-0.65841 -10.27799,-0.75061 -4.70029,-0.12568 -5.68774,-0.18263 -10.56313,-0.17736 -9.55007,0.0103 -19.09277,0.44832 -28.6386,0.67487 -16.1066,0.58886 -32.22541,0.93134 -48.3435,0.84152 -5.76854,-0.18581 -11.51641,-0.31608 -17.23455,-1.17587 -2.24632,-0.33776 -4.80685,-0.82746 -6.98566,-1.5764 -0.72321,-0.2486 -1.40159,-0.61226 -2.10238,-0.91839 -1.07634,-0.60383 -1.69698,-0.88369 -2.62803,-1.63322 -8.66152,-6.97283 -1.88801,-31.77162 -1.97357,-32.81866 0.0662,-0.16835 0.11362,-0.34541 0.19876,-0.50504 0.57812,-1.08395 1.84235,-1.65586 2.90165,-2.12607 5.21334,-1.71612 10.78008,-1.89975 16.17869,-2.63554 2.84017,-0.25226 7.89037,-0.70809 10.65371,-0.92192 8.37811,-0.64831 16.77177,-1.08709 25.15398,-1.67644 5.79411,-0.33407 11.58882,-0.64101 17.37834,-1.04878 2.90224,-0.20442 6.01011,-0.406 8.90924,-0.76354 1.11987,-0.13812 2.23112,-0.33892 3.34668,-0.50838 0.80847,-0.1925 1.63545,-0.31932 2.42541,-0.57749 0.45211,-0.14777 1.09658,-0.19379 1.27879,-0.63315 0.12007,-0.28953 -0.85095,-0.72374 -0.84604,-0.41034 0.15493,9.89507 0.86936,19.77347 1.30404,29.66021 -0.15354,-0.30707 -0.22418,-0.67229 -0.46062,-0.92122 -0.38466,-0.40498 -0.90208,-0.65888 -1.35312,-0.98831 -3.15934,-1.86348 -0.53738,-0.35382 -4.11972,-2.2978 -3.92552,-2.1302 -7.81519,-4.326 -11.69818,-6.53249 -3.18757,-1.68071 -4.23208,-2.30079 -7.59261,-3.77818 -6.18865,-2.7207 -12.63806,-4.83238 -19.15205,-6.61583 -1.74932,-0.43687 -3.49005,-0.90971 -5.24796,-1.3106 -8.24473,-1.88019 -16.65122,-2.97703 -25.06905,-3.7032 -3.32246,-0.2749 -6.64555,-0.48828 -9.97038,-0.72845 -0.64227,-0.0464 -3.05773,-0.19526 -3.80854,-0.31329 -0.43928,-0.0691 -0.86544,-0.20487 -1.29815,-0.3073 -0.6472,-0.25386 -1.43033,-0.51891 -2.01464,-0.91366 -0.24253,-0.16384 -0.64499,-0.29803 -0.64968,-0.59067 -0.26347,-16.46355 -5.86812,-23.28731 1.02924,-32.02677 1.65026,-1.63465 3.65394,-2.67851 5.90262,-3.27524 3.97003,-1.04765 7.97489,-1.96193 12.01978,-2.67315 5.85101,-1.17444 11.71887,-2.33012 17.66447,-2.90992 11.32963,-1.10238 22.6936,-1.79503 34.06771,-2.24065 7.01779,-0.27823 7.30242,-0.30053 14.36111,-0.53572 8.84881,-0.29484 17.74801,-0.35583 26.50574,-1.81469 0.97132,-0.24136 5.4532,-1.22548 6.89398,-1.93841 0.34183,-0.16914 0.64308,-0.45874 0.82263,-0.79521 0.0716,-0.13424 -0.0943,-0.29217 -0.17284,-0.42248 -0.093,-0.15421 -0.33572,-0.60257 -0.33654,-0.42251 -0.0453,9.9866 0.1351,19.97295 0.20265,29.95943 0.10091,-0.90768 0.2357,-1.60315 -0.38297,-2.38807 -0.39639,-0.91272 -0.9149,-1.70266 -1.82147,-2.18492 -1.6132,-0.80837 -3.25369,-1.36079 -4.981,-1.89429 -3.68892,-1.13935 -7.41802,-2.14419 -11.16939,-3.05628 -4.61214,-1.0934 -5.9561,-1.46472 -10.70744,-2.36651 -1.92865,-0.36605 -3.8725,-0.64836 -5.80224,-1.00869 -1.85705,-0.34675 -3.70123,-0.75991 -5.55721,-1.11238 -11.53364,-2.19033 0.36085,0.23006 -10.79452,-2.08634 -10.80208,-2.10136 -21.66005,-3.89062 -32.57685,-5.28893 -7.08211,-1.03722 -14.25363,-1.84866 -21.11503,-3.97461 -1.44783,-0.54396 -2.04921,-0.72024 -3.38656,-1.39814 -0.96767,-0.49051 -1.7935,-1.1539 -2.72093,-1.70308 -0.2899,-0.17167 -0.59215,-0.32158 -0.88823,-0.48236 0.13055,-8.17689 -8.93503,-29.31621 2.90181,-31.72715 0.81712,-0.16643 1.33932,-0.189408 2.19024,-0.26945 2.46116,-0.162819 4.88074,-0.401564 7.31959,-0.777494 0.56827,-0.08759 1.142,-0.144523 1.70518,-0.260442 0.47735,-0.09825 0.94102,-0.254048 1.41154,-0.381073 1.93132,-0.481951 3.7984,-1.129387 5.60025,-1.983264 2.05419,-0.87446 4.05365,-1.906101 6.24076,-2.424208 5.18767,-1.19408 10.51231,-1.526752 15.82332,-1.636484 10.00514,-0.580387 20.00583,-1.243365 29.99573,-2.046516 3.88294,-0.291746 7.76945,-0.536329 11.65079,-0.848632 5.25738,-0.423024 10.49342,-0.991605 15.72999,-1.611353 1.30666,-0.154644 2.61455,-0.298687 3.92183,-0.448031 4.48479,-0.63846 8.99778,-1.063245 13.46956,-1.799275 0.83021,-0.154317 1.7617,-0.248597 2.55935,-0.555875 0.22025,-0.08485 0.63666,-0.222024 0.5527,-0.442612 -0.0484,-0.127152 -0.22376,-0.154832 -0.33564,-0.232248 -0.17429,10.135391 -0.5976,20.269557 -0.52288,30.406167 0.005,0.71242 1.00913,-0.46959 1.00964,-0.47209 0.0397,-0.19372 -0.38037,-0.53682 -0.46455,-0.59446 -0.1579,-0.10812 -0.33673,-0.18196 -0.5051,-0.27294 -1.24847,-0.56354 -2.47458,-1.18089 -3.77133,-1.62603 -1.12917,-0.50681 -2.248,-1.03305 -3.35679,-1.58311 -2.283,-1.00888 -4.71909,-1.63258 -7.16302,-2.11066 -6.87001,-1.18956 -13.78026,-2.1281 -20.6447,-3.35655 -12.91606,-2.03288 -25.86993,-3.81429 -38.86504,-5.266182 -12.16119,-1.13073 -2.41002,-0.339351 -14.18799,-0.992596 -1.98003,-0.109819 -3.95608,-0.284503 -5.93597,-0.396855 -4.97234,-0.282161 -9.95264,-0.413411 -14.93264,-0.292432 -2.11094,0.05645 -4.52735,0.109493 -6.65859,0.205903 -1.76625,0.0799 -3.58527,0.131349 -5.32737,0.47309 -0.29182,0.05724 -0.57582,0.148877 -0.86373,0.223315 -108.75592,0 -108.75592,-30.760818 0,-30.760818 z"
       inkscape:connector-curvature="0"
       transform="translate(-1035.2009,-294.09377)" />
    <path
       style="opacity:0.22272727;fill:none;stroke:#ffffff;stroke-width:1;stroke-linecap:round;stroke-linejoin:round;stroke-miterlimit:4;stroke-opacity:1;stroke-dasharray:3, 3;stroke-dashoffset:0"
       d="m -867.59519,-210.05529 217.0104,0"
       id="path3798"
       inkscape:connector-curvature="0"
       sodipodi:nodetypes="cc" />
    <path
       inkscape:connector-curvature="0"
       id="path3804"
       d="m -911.68581,103.09939 243.17335,0"
       style="opacity:0.21818182;fill:none;stroke:#ffffff;stroke-width:1;stroke-linecap:round;stroke-linejoin:round;stroke-miterlimit:4;stroke-opacity:1;stroke-dasharray:3, 3;stroke-dashoffset:0"
       sodipodi:nodetypes="cc" />
    <path
       sodipodi:nodetypes="cc"
       style="opacity:0.23636364;fill:none;stroke:#ffffff;stroke-width:1;stroke-linecap:round;stroke-linejoin:round;stroke-miterlimit:4;stroke-opacity:1;stroke-dasharray:3, 3;stroke-dashoffset:0;filter:url(#filter3868)"
       d="m -891.43466,-97.750457 243.17335,0"
       id="path3806"
       inkscape:connector-curvature="0" />
    <path
       inkscape:connector-curvature="0"
       id="path3808"
       d="m -881.98733,-31.266939 243.17335,0"
       style="opacity:0.36363636;fill:none;stroke:#ffffff;stroke-width:1;stroke-linecap:round;stroke-linejoin:round;stroke-miterlimit:4;stroke-opacity:1;stroke-dasharray:3, 3;stroke-dashoffset:0"
       sodipodi:nodetypes="cc" />
    <g
       id="g3819"
       transform="matrix(0.32992123,0,0,0.30911865,-476.27653,-0.81431654)">
      <path
         transform="translate(-1035.2009,-294.09377)"
         inkscape:connector-curvature="0"
         id="path3815"
         d="m -120.5,172.18753 44.5,47.5"
         style="fill:none;stroke:#ffffff;stroke-width:2.19194818;stroke-linecap:round;stroke-linejoin:round;stroke-miterlimit:4;stroke-opacity:1;stroke-dasharray:8.76779316, 8.76779316;stroke-dashoffset:0" />
      <path
         style="fill:none;stroke:#ffffff;stroke-width:2.19194818;stroke-linecap:round;stroke-linejoin:round;stroke-miterlimit:4;stroke-opacity:1;stroke-dasharray:8.76779316, 8.76779316;stroke-dashoffset:0"
         d="m -1111.2009,-121.90624 -44.5,47.5"
         id="path3817"
         inkscape:connector-curvature="0" />
    </g>
    <g
       transform="matrix(0.36727315,0,0,0.40023695,-270.96163,-58.76622)"
       id="g3825">
      <path
         style="fill:none;stroke:#ffffff;stroke-width:1.82576493;stroke-linecap:round;stroke-linejoin:round;stroke-miterlimit:4;stroke-opacity:1;stroke-dasharray:7.30305971,7.30305971;stroke-dashoffset:0"
         d="m -120.5,172.18753 44.5,47.5"
         id="path3827"
         inkscape:connector-curvature="0"
         transform="translate(-1035.2009,-294.09377)" />
      <path
         inkscape:connector-curvature="0"
         id="path3829"
         d="m -1111.2009,-121.90624 -44.5,47.5"
         style="fill:none;stroke:#ffffff;stroke-width:1.82576493;stroke-linecap:round;stroke-linejoin:round;stroke-miterlimit:4;stroke-opacity:1;stroke-dasharray:7.30305971,7.30305971;stroke-dashoffset:0" />
    </g>
    <g
       transform="matrix(0.3483675,0,0,0.3057751,-414.57828,133.18852)"
       id="g3831">
      <path
         style="fill:none;stroke:#ffffff;stroke-width:3.06393908;stroke-linecap:round;stroke-linejoin:round;stroke-miterlimit:4;stroke-opacity:1;stroke-dasharray:12.25575631,12.25575631;stroke-dashoffset:0"
         d="m -120.5,172.18753 44.5,47.5"
         id="path3833"
         inkscape:connector-curvature="0"
         transform="translate(-1035.2009,-294.09377)" />
      <path
         inkscape:connector-curvature="0"
         id="path3836"
         d="m -1111.2009,-121.90624 -44.5,47.5"
         style="fill:none;stroke:#ffffff;stroke-width:3.06393908;stroke-linecap:round;stroke-linejoin:round;stroke-miterlimit:4;stroke-opacity:1;stroke-dasharray:12.25575631,12.25575631;stroke-dashoffset:0" />
    </g>
    <path
       sodipodi:nodetypes="cc"
       style="opacity:0.15454545;fill:none;stroke:#ffffff;stroke-width:1;stroke-linecap:round;stroke-linejoin:round;stroke-miterlimit:4;stroke-opacity:1;stroke-dasharray:3, 3;stroke-dashoffset:0"
       d="m -810.61551,126.84855 17.55534,-372.59273"
       id="path3850"
       inkscape:connector-curvature="0" />
    <path
       inkscape:connector-curvature="0"
       id="path3854"
       d="m -735.51296,126.84855 17.55534,-361.09273"
       style="opacity:0.16818182;fill:none;stroke:#ffffff;stroke-width:1;stroke-linecap:round;stroke-linejoin:round;stroke-miterlimit:4;stroke-opacity:1;stroke-dasharray:3, 3;stroke-dashoffset:0"
       sodipodi:nodetypes="cc" />
    <g
       id="g3858"
       transform="matrix(0.40061251,0,0,0.1769453,-273.68175,-13.666638)">
      <path
         transform="translate(-1035.2009,-294.09377)"
         inkscape:connector-curvature="0"
         id="path3860"
         d="m -120.5,172.18753 44.5,47.5"
         style="fill:none;stroke:#ffffff;stroke-width:3.06393909;stroke-linecap:round;stroke-linejoin:round;stroke-miterlimit:4;stroke-opacity:1;stroke-dasharray:12.25575631, 12.25575631;stroke-dashoffset:0" />
      <path
         style="fill:none;stroke:#ffffff;stroke-width:3.06393909;stroke-linecap:round;stroke-linejoin:round;stroke-miterlimit:4;stroke-opacity:1;stroke-dasharray:12.25575631, 12.25575631;stroke-dashoffset:0"
         d="m -1111.2009,-121.90624 -44.5,47.5"
         id="path3862"
         inkscape:connector-curvature="0" />
    </g>
    <path
       inkscape:connector-curvature="0"
       id="path3864"
       d="m -857.81489,126.84855 17.55534,-372.59273"
       style="opacity:0.44545455;fill:none;stroke:#ffffff;stroke-width:1;stroke-linecap:round;stroke-linejoin:round;stroke-miterlimit:4;stroke-opacity:1;stroke-dasharray:3, 3;stroke-dashoffset:0"
       sodipodi:nodetypes="cc" />
    <path
       sodipodi:nodetypes="cc"
       style="opacity:0.45909095;fill:none;stroke:#ffffff;stroke-width:1;stroke-linecap:round;stroke-linejoin:round;stroke-miterlimit:4;stroke-opacity:1;stroke-dasharray:3, 3;stroke-dashoffset:0"
       d="m -698.51296,126.84855 17.55534,-361.09273"
       id="path3866"
       inkscape:connector-curvature="0" />
  </g>
</svg>
