<svg xmlns="http://www.w3.org/2000/svg" xmlns:xlink="http://www.w3.org/1999/xlink" width="514.451" height="491.688"><defs><linearGradient id="b"><stop offset="0" stop-color="#fff"/><stop offset="1" stop-color="#fff" stop-opacity="0"/></linearGradient><linearGradient id="a"><stop offset="0" stop-color="#fff"/><stop offset="1" stop-color="#fff" stop-opacity="0"/></linearGradient><radialGradient xlink:href="#a" id="c" gradientUnits="userSpaceOnUse" gradientTransform="matrix(.59351 0 0 .50913 -316.986 -22.765)" cx="-773.359" cy="-48.984" fx="-773.359" fy="-48.984" r="591.609"/><radialGradient xlink:href="#b" id="d" gradientUnits="userSpaceOnUse" gradientTransform="matrix(.44805 0 0 .42374 -429.227 -29.043)" cx="-788.578" cy="-49.063" fx="-788.578" fy="-49.063" r="588.578"/><filter id="e"><feGaussianBlur stdDeviation="1.216"/></filter></defs><path d="M201.923 78.516c8.763.41 17.54.426 26.31.496 10.492-.083 20.983.209 31.44 1.089 4.369.298 8.645 1.263 12.944 2.031 3.024.532 6.078.828 9.121 1.215 2.769.44 5.57.545 8.357.807 3.39.263 6.696.99 9.966 1.883 1.29.565 2.66.976 3.872 1.695 1.524.903 3.082 1.843 4.286 3.142 4.356 4.698 7.315 10.242 6.056 17.148-1.628 8.932-4.512 10.38-9.887 14.917-1.898 1.068-3.738 2.248-5.695 3.204-1.854.905-3.793 1.63-5.72 2.369-8.05 3.086-16.353 5.184-24.73 7.15-11.879 2.883-23.993 4.53-36.074 6.277-10.802 1.65-21.459 4.153-32.05 6.82-8.137 2.08-16.478 3.551-24.419 6.34-.328.154-.672.279-.986.462-.036.021.08.062.12.044.396-.18.849-.305 1.149-.621 4.724-4.98 6.997-6.621 7.104-13.806.033-2.236-.986-4.362-1.48-6.544-.045-.247-.385-.767-.135-.742.527.053.892.57 1.333.863 1.014.675 1.99 1.409 3.031 2.042a60.087 60.087 0 0 0 4.04 2.263c4.699 2.385 7.494 3.391 12.542 5.457 19.274 6.999 39.767 9.494 59.975 12.244 9.173 1.244 18.393 2.09 27.578 3.228 3.14.39 7.418.948 10.605 1.59 1.345.271 2.67.636 4.004.954 1.68.665 3.514 1.026 5.037 1.996 8.201 5.224 11.471 9.668 10.977 21.325-.278 6.565-5.828 11.628-10.676 14.963-1.624 1.117-3.464 1.882-5.197 2.822-14.31 6.579-29.891 9.446-45.285 12.215-21.3 3.64-42.8 5.898-64.31 7.854-2.397.23-4.794.453-7.19.688-1.78.175-3.561.333-5.337.54-.94.11-1.876.247-2.807.409-.106.018-.36.216-.294.131 4.831-6.254 13.958-10.794 14.615-18.67.561-6.743-7.784-11.07-11.676-16.605 18.175 2.791 36.57 3.796 54.9 5.014 37.063 2.263 74.132 4.479 111.212 6.464 9.816.645 19.647 1.174 29.441 2.126 1.413.137 2.83.263 4.232.486 1.241.196 3.628-.484 3.69.77.597 12.237-1.24 24.472-1.86 36.708-2.066.171-4.13.41-6.2.514-2.179.11-13.936.147-14.839.15-12.676.047-25.353.033-38.03.034-31.386-.01-62.772-.022-94.159-.028-12.07.07-24.141-.123-36.21.078-4.57.077-9.137.147-13.664.8 13.326-1.475 13.16-14.272 12.126-25.521-.226-2.467-3.2-3.782-4.755-5.71-.069-.085-.205-.34-.1-.312 1.048.275 2.04.727 3.06 1.09 16.847 5.885 34.112 10.361 51.473 14.42 10.254 2.337 20.579 4.34 30.764 6.974 3.891 1.006 9.778 2.634 13.683 4.112 1.717.65 3.366 1.468 5.049 2.202 9.635 7.056 14.385 8.235 9.93 27.32-1.146 4.91-6.956 7.454-11.222 10.14-2.684 1.69-6.038 1.97-9.13 2.675-4.672 1.065-14.366 2.12-18.963 2.681-24.788 2.655-49.617 4.893-74.405 7.55-9.452 1.254-19.033 1.546-28.452 3.075-.94.153-3.636 1.08-2.773.68 13.41-6.237 1.46 13.311 9.266-28.707-1.302-1.23-3.559-1.932-3.905-3.69-.218-1.104 2.206.458 3.311.678 2.234.444 4.463.912 6.704 1.316 10.087 1.818 20.247 3.15 30.403 4.51 11.215 1.575 22.49 2.633 33.718 4.106 4.913.645 10.274 1.355 15.144 2.46 1.797.407 3.553.975 5.33 1.462 12.915 6.989 15.605 5.836 10.244 31.61-.842 4.046-6.531 5.122-10.14 7.136-2.338 1.305-5 1.924-7.552 2.737-5.855 1.864-12.314 3.323-18.266 4.773-18.152 4.164-36.505 7.365-54.638 11.608-1.23.334-2.468.637-3.69 1.001-3.703 1.105 1.526.105 1.659-.778 1.51-10.067 3.313-20.417 1.808-30.485-.526-3.52-10.457-3.291-5.657-3.317 6.307.315 12.77-.342 18.999.987 1.678.358 3.305.925 4.958 1.387 7.281 4.445 8.694 3.974 12.738 12.393.998 2.077 1.214 4.459 1.54 6.74.193 1.356.023 2.738.009 4.107-.005.465-.048 1.858-.067 1.393-.035-.843.013-1.688.02-2.531-.208-1.003-.518-1.99-.622-3.009-.011-.109.213-.198.3-.132.674.503 1.2 1.18 1.837 1.73 4.233 3.645 8.848 6.614 13.555 9.6 11.957 7.23 24.849 12.658 37.253 19.028 3.724 2.283 11.573 6.547 11.057 11.248-1.016 9.25-5.86 17.951-11.204 25.57-1.551 2.21-5.253 1.297-7.924 1.7-2.266.341-9.538.398-11.626.438-3.727.122-7.117.153-10.808.556-.861.094-3.344.82-2.56.452 2.417-1.132 6.264-.412 7.51-2.771 9.839-18.627 8.724-17.295 1.629-27.205 9.852 3.398 20.157 5.12 30.283 7.474 12.823 3.578 16.058 3.496 7.465 34.897-1.19 4.344-13.851 2.401-18.691 1.981a310.608 310.608 0 0 0-5.846-.449c-2.341-.159-4.685-.282-7.027-.424-16.69-.823 1.418.061-13.574-.646-1.469-.069-2.937-.167-4.407-.217-.258-.01-.84.29-.773.04 9.58-35.97 20.5-28.689 6.993-36.142 4.448.895 8.89 1.818 13.332 2.739 1.073.222 5.44 1.068 6.678 1.476 1.572.517 3.087 1.194 4.63 1.791-.798 11.537.57 23.432-2.394 34.61-.619 2.335-4.733.998-7.129 1.31-1.36.177-2.743.105-4.115.155-3.973.144-7.934.253-11.9.54-2.005.342-4.2.315-6.144 1.025-.202.073.437-.02.641-.09.7-.242 1.537-.317 2.058-.843 3.002-3.033 5.579-6.46 8.368-9.689-.71-5.552-.411-11.33-2.13-16.658-.675-2.093-3.168-3.052-4.729-4.602-.033-.033.17.074.136.041-.114-.11-.537-.333-.385-.283.736.245 1.437.585 2.158.871.792.315 1.587.622 2.381.932 7.725 3.274 15.776 5.768 23.365 9.369 3.09 1.466 6.093 3.104 9.14 4.655 23.559 12.133 6.4 45.451-17.159 33.318-2.26-1.18-4.484-2.436-6.782-3.543-7.202-3.469-14.91-5.746-22.241-8.907-2.724-1.069-5.493-2.101-8.138-3.358-.656-.312-1.344-.595-1.91-1.052-2.157-1.74-5.215-2.93-6.226-5.51-2.175-5.551-1.9-11.772-2.851-17.657 2.9-3.543 5.458-7.395 8.697-10.629.976-.974 2.452-1.27 3.732-1.78 4.895-1.949 10.261-2.403 15.437-2.997 4.43-.295 8.849-.478 13.286-.61.742-.023 2.704-.617 2.227-.048-.675.806-2.88-.075-3 .97-1.278 11.29-.645 22.715-.969 34.072 1.004.331 2.034.588 3.01.993.508.21-1.063-.29-1.6-.408-4.447-.976-8.922-1.84-13.382-2.75-1.436-.294-2.871-.592-4.307-.888-18.828-6.484-11.68-1.016.857-37.898.32-.942 1.992-.025 2.987.004 3.565.106 7.125.334 10.688.504 2.571.123 5.143.255 7.714.383 6.147.375 8.403.468 14.372.994 1.598.14 6.094-.447 4.789.486-2.729 1.953-9.192-.358-9.618 2.97-4.02 31.41 16.1 37.266 3.775 33.45-13.835-3.24-28.142-5.315-40.966-11.783-3.311-3.003-9.137-4.61-9.934-9.007-1.501-8.289.167-17.375 3.774-24.987 1.684-3.555 6.878-3.883 10.56-5.266 1.751-.658 3.696-.595 5.556-.787 4.41-.453 8.385-.502 12.814-.645 1.65-.025 3.301-.042 4.952-.077.905-.018 2.177-.81 2.714-.081.45.61-1.769.27-2.057.972-3.265 7.943-7.873 15.794-8.36 24.367-.11 1.931 9.678 9.606 5.93 6.646-10.586-5.482-21.517-10.225-31.953-16.01-2.818-1.563-5.593-3.201-8.39-4.802-2.574-1.67-5.201-3.259-7.721-5.009-4.181-2.904-8.895-6.585-12.581-10.138-2.905-2.8-6.743-7.132-8.613-10.747-1.207-2.333-1.874-4.908-2.81-7.363-.18-1.905-.411-3.805-.538-5.715-.03-.463-.392-1.47.066-1.393.472.08.02.964.137 1.428.36 1.433.54 2.966 1.288 4.24 3.62 6.17 4.062 5.508 9.67 8.364.45.054.897.197 1.347.16.273-.022-.523-.174-.795-.205-.835-.094-1.677-.13-2.517-.166-3.96-.167-7.927-.05-11.888-.222-3.799-.258-13.864-.53-14.853-4.108-8.128-29.413-3.685-31.527 14.158-36.234 18.031-4.205 36.262-7.453 54.322-11.532 6.108-1.476 9.046-2.109 14.833-3.765 1.26-.36 3.69-2.488 3.748-1.18.08 1.807-3.69 2.234-3.621 4.041.955 25.118-2.415 22.279 9.158 27.06-4.712-1.562-9.725-2.076-14.624-2.72-11.358-1.493-22.767-2.559-34.112-4.158-10.942-1.469-21.894-2.897-32.756-4.9-2.494-.461-13.563-2.6-16.11-3.758-3.71-1.688-7.015-4.153-10.523-6.23 1.03-9.862.054-20.148 3.09-29.59.84-2.615 4.912-2.5 7.512-3.389 1.936-.662 3.993-.912 6.014-1.238 9.67-1.56 19.501-1.9 29.207-3.164 24.615-2.637 49.27-4.872 73.886-7.49 2.897-.348 5.799-.67 8.693-1.044 1.983-.257 3.949-.651 5.938-.852.482-.049 1.701-.306 1.448.107-1.725 2.812-6.045 4.394-6.232 7.688-1.04 18.272-.13 17.579 8.386 22.535-3.479-1.929-8.208-2.979-11.954-3.953-10.068-2.617-20.289-4.554-30.422-6.892-18.876-4.425-37.648-9.318-55.95-15.767-5.094-1.93-16.76-6.05-17.996-12.103-1.456-7.128-1.095-14.967 1.465-21.776 2.038-5.42 9.746-6.748 14.521-7.992 1.52-.18 3.034-.407 4.558-.538 4.179-.357 9.392-.488 13.484-.555 12.179-.202 24.36-.013 36.54-.08 31.383.007 62.766.018 94.15.028 12.607 0 25.214.012 37.821-.033 2.814-.01 5.627-.022 8.44-.046 1.662-.015 3.324-.124 4.984-.07.1.003.124.158.186.238.06 12.094-.305 24.197.18 36.282.017.43 1.708.204 1.28.153-10.402-1.245-20.884-1.68-31.33-2.412-37.24-1.995-74.471-4.22-111.696-6.493-14.17-.944-28.336-1.824-42.46-3.333-2.954-.316-11.406-1.342-14.519-1.864-1.882-.316-3.74-.762-5.61-1.143-5.194-5.902-15.369-9.847-15.582-17.707-.468-17.262 11.718-19.694 22.15-20.913 2.071-.241 11.568-1.136 12.908-1.264 20.433-1.855 40.859-3.984 61.095-7.421 11.821-2.107 23.807-4.144 34.964-8.76.282-.08.972-.503.846-.238-2.47 5.189-5.593-2.713-5.108 10.329.41 11.017 2.556 13.568 9.94 18.055.577.35 1.303.35 1.954.524-3.152-.934-6.534-1.257-9.776-1.659-9.431-1.17-18.897-2.035-28.314-3.32-23.388-3.189-47.048-6.3-69.242-14.747-2.997-1.25-6.031-2.417-8.992-3.75-7.158-3.226-14.179-6.982-20.34-11.896-1.81-1.443-3.608-2.925-5.203-4.603-1.61-1.695-2.92-3.653-4.38-5.479-1.167-3.347-3.159-6.512-3.504-10.04-.33-3.375.205-6.938 1.539-10.055 3.198-7.473 9.393-11.015 16.38-13.694 8.96-3.01 18.197-5.055 27.39-7.22 11.837-2.97 23.749-5.746 35.823-7.564 11.019-1.592 22.075-3.05 32.909-5.68 3.016-.701 7.147-1.624 10.162-2.47 3.37-.946 5.927-1.833 9.198-2.99 2.745-.971 1.747-1.33 2.908-.81-2.68 3.168-4.22 4.755-4.916 10.638-.861 7.29 3.056 13.832 9.157 17.226.838.465 1.784.702 2.676 1.053.355.077.728.095 1.064.232.313.126-.661-.134-.991-.203-1.896-.397 1.826.125-1.681-.286l-1.061-.126c-1.113-.17-.054-.022-2.273-.173a99.992 99.992 0 0 1-7.08-.751c-3.658-.505-7.344-.82-10.977-1.505-3.138-.578-6.26-1.298-9.444-1.563-9.484-.841-19.006-.997-28.523-.952-9.56-.076-19.13-.09-28.682-.59-26.432-1.888-23.762-39.27 2.67-37.382z" opacity=".034" fill="#fff"/><g opacity=".747"><path d="M-1010.86-293.002v17.702h-20.358v1.982h20.358v24.82h-20.358V-247h20.358v24.82h-20.358v1.982h20.358v24.82h-20.358v1.996h20.358v24.82h-20.358v1.982h20.358v24.82h-20.358v1.497h20.358v24.82h-20.358v2.507h20.358v24.821h-20.358v1.483h20.358v24.82h-20.358v1.995h20.358v24.82h-20.358v1.983h20.358v24.82h-20.358V-6.2h20.358v23.756h-20.358v2.548h20.358V44.37h-20.358v2.548h20.358v23.755h-20.358v1.996h20.358v24.82h-20.358v1.982h20.358v24.82h-20.358v1.982h20.358v24.834h-20.358v1.483h20.358v24.82h-20.358v1.982h20.358v18.2h1.982v-18.2h24.82v18.2h1.901v-18.2h24.82v18.2h1.996v-18.2h24.82v18.2h1.9v-18.2h24.821v18.2h1.982v-18.2h24.82v18.2h1.915v-18.2h24.82v18.2h1.982v-18.2h10.004v18.2h1.981v-18.2H-811.475v18.2h1.9v-18.2h24.821v18.2h1.995v-18.2h24.82v18.2h1.902v-18.2h24.82v18.2h1.982v-18.2h24.308v18.2h2.427v-18.2h24.375v18.2h2.427v-18.2h24.294v18.2h1.996v-18.2h24.82v18.2h1.9v-18.2h24.821v18.2h1.982v-18.2h24.82v18.2h1.915v-18.2h24.82v18.2h1.982v-18.2h21.598v-1.982h-21.598v-24.82h21.598v-1.483h-21.598v-24.834h21.598v-1.982h-21.598v-24.82h21.598V97.49h-21.598V72.67h21.598v-1.996h-21.598V46.92h21.598V44.37h-21.598V20.104h21.598v-2.548h-21.598V-6.2h21.598v-1.995h-21.598v-24.82h21.598v-1.982h-21.598v-24.82h21.598v-1.996h-21.598v-24.82h21.598v-1.483h-21.598v-24.82h21.598v-2.508h-21.598v-24.82h21.598v-1.497h-21.598v-24.82h21.598v-1.982h-21.598v-24.82h21.598v-1.996h-21.598v-24.82h21.598v-1.982h-21.598V-247h21.598v-1.497h-21.598v-24.82h21.598v-1.982h-21.598v-17.702h-1.982v17.702h-24.82v-17.702h-1.915v17.702h-24.82v-17.702h-1.982v17.702h-24.82v-17.702h-1.901v17.702h-24.82v-17.702h-1.996v17.702h-24.294v-17.702h-2.427v17.702H-702.5v-17.702h-2.427v17.702h-24.308v-17.702h-1.982v17.702h-24.82v-17.702h-1.901v17.702h-24.82v-17.702h-1.996v17.702h-24.82v-17.702h-1.901v17.702H-836.296v-17.702h-1.981v17.702h-10.004v-17.702h-1.982v17.702h-24.82v-17.702h-1.915v17.702h-24.82v-17.702h-1.982v17.702h-24.82v-17.702h-1.901v17.702h-24.82v-17.702h-1.996v17.702h-24.82v-17.702h-1.9v17.702h-24.821v-17.702h-1.982zm1.982 19.684h24.82v24.82h-24.82v-24.82zm26.721 0h24.82v24.82h-24.82v-24.82zm26.816 0h24.82v24.82h-24.82v-24.82zm26.72 0h24.821v24.82h-24.82v-24.82zm26.803 0h24.82v24.82h-24.82v-24.82zm26.735 0h24.82v24.82h-24.82v-24.82zm26.802 0h10.004v24.82h-10.004v-24.82zm11.985 0H-811.475v24.82H-836.296v-24.82zm26.722 0h24.82v24.82h-24.82v-24.82zm26.815 0h24.82v24.82h-24.82v-24.82zm26.722 0h24.82v24.82h-24.82v-24.82zm26.802 0h24.308v24.82h-24.308v-24.82zm26.735 0h24.375v24.82H-702.5v-24.82zm26.802 0h24.294v24.82h-24.294v-24.82zm26.29 0h24.82v24.82h-24.82v-24.82zm26.72 0h24.821v24.82h-24.82v-24.82zm26.803 0h24.82v24.82h-24.82v-24.82zm26.735 0h24.82v24.82h-24.82v-24.82zm-439.728 26.317h24.82v24.82h-24.82V-247zm26.721 0h24.82v24.82h-24.82V-247zm26.816 0h24.82v24.82h-24.82V-247zm26.72 0h24.821v24.82h-24.82V-247zm26.803 0h24.82v24.82h-24.82V-247zm26.735 0h24.82v24.82h-24.82V-247zm26.802 0h10.004v24.82h-10.004V-247zm11.985 0H-811.475v24.82H-836.296V-247zm26.722 0h24.82v24.82h-24.82V-247zm26.815 0h24.82v24.82h-24.82V-247zm26.722 0h24.82v24.82h-24.82V-247zm26.802 0h24.308v24.82h-24.308V-247zm26.735 0h24.375v24.82H-702.5V-247zm26.802 0h24.294v24.82h-24.294V-247zm26.29 0h24.82v24.82h-24.82V-247zm26.72 0h24.821v24.82h-24.82V-247zm26.803 0h24.82v24.82h-24.82V-247zm26.735 0h24.82v24.82h-24.82V-247zm-439.728 26.802h24.82v24.82h-24.82v-24.82zm26.721 0h24.82v24.82h-24.82v-24.82zm26.816 0h24.82v24.82h-24.82v-24.82zm26.72 0h24.821v24.82h-24.82v-24.82zm26.803 0h24.82v24.82h-24.82v-24.82zm26.735 0h24.82v24.82h-24.82v-24.82zm26.802 0h10.004v24.82h-10.004v-24.82zm11.985 0H-811.475v24.82H-836.296v-24.82zm26.722 0h24.82v24.82h-24.82v-24.82zm26.815 0h24.82v24.82h-24.82v-24.82zm26.722 0h24.82v24.82h-24.82v-24.82zm26.802 0h24.308v24.82h-24.308v-24.82zm26.735 0h24.375v24.82H-702.5v-24.82zm26.802 0h24.294v24.82h-24.294v-24.82zm26.29 0h24.82v24.82h-24.82v-24.82zm26.72 0h24.821v24.82h-24.82v-24.82zm26.803 0h24.82v24.82h-24.82v-24.82zm26.735 0h24.82v24.82h-24.82v-24.82zm-439.728 26.816h24.82v24.82h-24.82v-24.82zm26.721 0h24.82v24.82h-24.82v-24.82zm26.816 0h24.82v24.82h-24.82v-24.82zm26.72 0h24.821v24.82h-24.82v-24.82zm26.803 0h24.82v24.82h-24.82v-24.82zm26.735 0h24.82v24.82h-24.82v-24.82zm26.802 0h10.004v24.82h-10.004v-24.82zm11.985 0H-811.475v24.82H-836.296v-24.82zm26.722 0h24.82v24.82h-24.82v-24.82zm26.815 0h24.82v24.82h-24.82v-24.82zm26.722 0h24.82v24.82h-24.82v-24.82zm26.802 0h24.308v24.82h-24.308v-24.82zm26.735 0h24.375v24.82H-702.5v-24.82zm26.802 0h24.294v24.82h-24.294v-24.82zm26.29 0h24.82v24.82h-24.82v-24.82zm26.72 0h24.821v24.82h-24.82v-24.82zm26.803 0h24.82v24.82h-24.82v-24.82zm26.735 0h24.82v24.82h-24.82v-24.82zm-439.728 26.802h24.82v24.82h-24.82v-24.82zm26.721 0h24.82v24.82h-24.82v-24.82zm26.816 0h24.82v24.82h-24.82v-24.82zm26.72 0h24.821v24.82h-24.82v-24.82zm26.803 0h24.82v24.82h-24.82v-24.82zm26.735 0h24.82v24.82h-24.82v-24.82zm26.802 0h10.004v24.82h-10.004v-24.82zm11.985 0H-811.475v24.82H-836.296v-24.82zm26.722 0h24.82v24.82h-24.82v-24.82zm26.815 0h24.82v24.82h-24.82v-24.82zm26.722 0h24.82v24.82h-24.82v-24.82zm26.802 0h24.308v24.82h-24.308v-24.82zm26.735 0h24.375v24.82H-702.5v-24.82zm26.802 0h24.294v24.82h-24.294v-24.82zm26.29 0h24.82v24.82h-24.82v-24.82zm26.72 0h24.821v24.82h-24.82v-24.82zm26.803 0h24.82v24.82h-24.82v-24.82zm26.735 0h24.82v24.82h-24.82v-24.82zm-439.728 26.317h24.82v24.82h-24.82v-24.82zm26.721 0h24.82v24.82h-24.82v-24.82zm26.816 0h24.82v24.82h-24.82v-24.82zm26.72 0h24.821v24.82h-24.82v-24.82zm26.803 0h24.82v24.82h-24.82v-24.82zm26.735 0h24.82v24.82h-24.82v-24.82zm26.802 0h10.004v24.82h-10.004v-24.82zm11.985 0H-811.475v24.82H-836.296v-24.82zm26.722 0h24.82v24.82h-24.82v-24.82zm26.815 0h24.82v24.82h-24.82v-24.82zm26.722 0h24.82v24.82h-24.82v-24.82zm26.802 0h24.308v24.82h-24.308v-24.82zm26.735 0h24.375v24.82H-702.5v-24.82zm26.802 0h24.294v24.82h-24.294v-24.82zm26.29 0h24.82v24.82h-24.82v-24.82zm26.72 0h24.821v24.82h-24.82v-24.82zm26.803 0h24.82v24.82h-24.82v-24.82zm26.735 0h24.82v24.82h-24.82v-24.82zm-439.728 27.327h24.82v24.82h-24.82v-24.82zm26.721 0h24.82v24.82h-24.82v-24.82zm26.816 0h24.82v24.82h-24.82v-24.82zm26.72 0h24.821v24.82h-24.82v-24.82zm26.803 0h24.82v24.82h-24.82v-24.82zm26.735 0h24.82v24.82h-24.82v-24.82zm26.802 0h10.004v24.821h-10.004v-24.82zm11.985 0H-811.475v24.82H-836.296v-24.82zm26.722 0h24.82v24.82h-24.82v-24.82zm26.815 0h24.82v24.82h-24.82v-24.82zm26.722 0h24.82v24.82h-24.82v-24.82zm26.802 0h24.308v24.821h-24.308v-24.82zm26.735 0h24.375v24.82H-702.5v-24.82zm26.802 0h24.294v24.82h-24.294v-24.82zm26.29 0h24.82v24.82h-24.82v-24.82zm26.72 0h24.821v24.82h-24.82v-24.82zm26.803 0h24.82v24.82h-24.82v-24.82zm26.735 0h24.82v24.82h-24.82v-24.82zm-439.728 26.304h24.82v24.82h-24.82v-24.82zm26.721 0h24.82v24.82h-24.82v-24.82zm26.816 0h24.82v24.82h-24.82v-24.82zm26.72 0h24.821v24.82h-24.82v-24.82zm26.803 0h24.82v24.82h-24.82v-24.82zm26.735 0h24.82v24.82h-24.82v-24.82zm26.802 0h10.004v24.82h-10.004v-24.82zm11.985 0H-811.475v24.82H-836.296v-24.82zm26.722 0h24.82v24.82h-24.82v-24.82zm26.815 0h24.82v24.82h-24.82v-24.82zm26.722 0h24.82v24.82h-24.82v-24.82zm26.802 0h24.308v24.82h-24.308v-24.82zm26.735 0h24.375v24.82H-702.5v-24.82zm26.802 0h24.294v24.82h-24.294v-24.82zm26.29 0h24.82v24.82h-24.82v-24.82zm26.72 0h24.821v24.82h-24.82v-24.82zm26.803 0h24.82v24.82h-24.82v-24.82zm26.735 0h24.82v24.82h-24.82v-24.82zm-439.728 26.815h24.82v24.82h-24.82v-24.82zm26.721 0h24.82v24.82h-24.82v-24.82zm26.816 0h24.82v24.82h-24.82v-24.82zm26.72 0h24.821v24.82h-24.82v-24.82zm26.803 0h24.82v24.82h-24.82v-24.82zm26.735 0h24.82v24.82h-24.82v-24.82zm26.802 0h10.004v24.82h-10.004v-24.82zm11.985 0H-811.475v24.82H-836.296v-24.82zm26.722 0h24.82v24.82h-24.82v-24.82zm26.815 0h24.82v24.82h-24.82v-24.82zm26.722 0h24.82v24.82h-24.82v-24.82zm26.802 0h24.308v24.82h-24.308v-24.82zm26.735 0h24.375v24.82H-702.5v-24.82zm26.802 0h24.294v24.82h-24.294v-24.82zm26.29 0h24.82v24.82h-24.82v-24.82zm26.72 0h24.821v24.82h-24.82v-24.82zm26.803 0h24.82v24.82h-24.82v-24.82zm26.735 0h24.82v24.82h-24.82v-24.82zm-439.728 26.803h24.82v24.82h-24.82v-24.82zm26.721 0h24.82v24.82h-24.82v-24.82zm26.816 0h24.82v24.82h-24.82v-24.82zm26.72 0h24.821v24.82h-24.82v-24.82zm26.803 0h24.82v24.82h-24.82v-24.82zm26.735 0h24.82v24.82h-24.82v-24.82zm26.802 0h10.004v24.82h-10.004v-24.82zm11.985 0H-811.475v24.82H-836.296v-24.82zm26.722 0h24.82v24.82h-24.82v-24.82zm26.815 0h24.82v24.82h-24.82v-24.82zm26.722 0h24.82v24.82h-24.82v-24.82zm26.802 0h24.308v24.82h-24.308v-24.82zm26.735 0h24.375v24.82H-702.5v-24.82zm26.802 0h24.294v24.82h-24.294v-24.82zm26.29 0h24.82v24.82h-24.82v-24.82zm26.72 0h24.821v24.82h-24.82v-24.82zm26.803 0h24.82v24.82h-24.82v-24.82zm26.735 0h24.82v24.82h-24.82v-24.82zM-1008.878-6.2h24.82v23.756h-24.82V-6.2zm26.721 0h24.82v23.756h-24.82V-6.2zm26.816 0h24.82v23.756h-24.82V-6.2zm26.72 0h24.821v23.756h-24.82V-6.2zm26.803 0h24.82v23.756h-24.82V-6.2zm26.735 0h24.82v23.756h-24.82V-6.2zm26.802 0h10.004v23.756h-10.004V-6.2zm11.985 0H-811.475v23.756H-836.296V-6.2zm26.722 0h24.82v23.756h-24.82V-6.2zm26.815 0h24.82v23.756h-24.82V-6.2zm26.722 0h24.82v23.756h-24.82V-6.2zm26.802 0h24.308v23.756h-24.308V-6.2zm26.735 0h24.375v23.756H-702.5V-6.2zm26.802 0h24.294v23.756h-24.294V-6.2zm26.29 0h24.82v23.756h-24.82V-6.2zm26.72 0h24.821v23.756h-24.82V-6.2zm26.803 0h24.82v23.756h-24.82V-6.2zm26.735 0h24.82v23.756h-24.82V-6.2zm-439.728 26.304h24.82V44.37h-24.82V20.104zm26.721 0h24.82V44.37h-24.82V20.104zm26.816 0h24.82V44.37h-24.82V20.104zm26.72 0h24.821V44.37h-24.82V20.104zm26.803 0h24.82V44.37h-24.82V20.104zm26.735 0h24.82V44.37h-24.82V20.104zm26.802 0h10.004V44.37h-10.004V20.104zm11.985 0H-811.475V44.37H-836.296V20.104zm26.722 0h24.82V44.37h-24.82V20.104zm26.815 0h24.82V44.37h-24.82V20.104zm26.722 0h24.82V44.37h-24.82V20.104zm26.802 0h24.308V44.37h-24.308V20.104zm26.735 0h24.375V44.37H-702.5V20.104zm26.802 0h24.294V44.37h-24.294V20.104zm26.29 0h24.82V44.37h-24.82V20.104zm26.72 0h24.821V44.37h-24.82V20.104zm26.803 0h24.82V44.37h-24.82V20.104zm26.735 0h24.82V44.37h-24.82V20.104zm-439.728 26.815h24.82v23.755h-24.82V46.92zm26.721 0h24.82v23.755h-24.82V46.92zm26.816 0h24.82v23.755h-24.82V46.92zm26.72 0h24.821v23.755h-24.82V46.92zm26.803 0h24.82v23.755h-24.82V46.92zm26.735 0h24.82v23.755h-24.82V46.92zm26.802 0h10.004v23.755h-10.004V46.92zm11.985 0H-811.475v23.755H-836.296V46.92zm26.722 0h24.82v23.755h-24.82V46.92zm26.815 0h24.82v23.755h-24.82V46.92zm26.722 0h24.82v23.755h-24.82V46.92zm26.802 0h24.308v23.755h-24.308V46.92zm26.735 0h24.375v23.755H-702.5V46.92zm26.802 0h24.294v23.755h-24.294V46.92zm26.29 0h24.82v23.755h-24.82V46.92zm26.72 0h24.821v23.755h-24.82V46.92zm26.803 0h24.82v23.755h-24.82V46.92zm26.735 0h24.82v23.755h-24.82V46.92zm-439.728 25.75h24.82V97.49h-24.82V72.67zm26.721 0h24.82V97.49h-24.82V72.67zm26.816 0h24.82V97.49h-24.82V72.67zm26.72 0h24.821V97.49h-24.82V72.67zm26.803 0h24.82V97.49h-24.82V72.67zm26.735 0h24.82V97.49h-24.82V72.67zm26.802 0h10.004V97.49h-10.004V72.67zm11.985 0H-811.475V97.49H-836.296V72.67zm26.722 0h24.82V97.49h-24.82V72.67zm26.815 0h24.82V97.49h-24.82V72.67zm26.722 0h24.82V97.49h-24.82V72.67zm26.802 0h24.308V97.49h-24.308V72.67zm26.735 0h24.375V97.49H-702.5V72.67zm26.802 0h24.294V97.49h-24.294V72.67zm26.29 0h24.82V97.49h-24.82V72.67zm26.72 0h24.821V97.49h-24.82V72.67zm26.803 0h24.82V97.49h-24.82V72.67zm26.735 0h24.82V97.49h-24.82V72.67zm-439.728 26.803h24.82v24.82h-24.82v-24.82zm26.721 0h24.82v24.82h-24.82v-24.82zm26.816 0h24.82v24.82h-24.82v-24.82zm26.72 0h24.821v24.82h-24.82v-24.82zm26.803 0h24.82v24.82h-24.82v-24.82zm26.735 0h24.82v24.82h-24.82v-24.82zm26.802 0h10.004v24.82h-10.004v-24.82zm11.985 0H-811.475v24.82H-836.296v-24.82zm26.722 0h24.82v24.82h-24.82v-24.82zm26.815 0h24.82v24.82h-24.82v-24.82zm26.722 0h24.82v24.82h-24.82v-24.82zm26.802 0h24.308v24.82h-24.308v-24.82zm26.735 0h24.375v24.82H-702.5v-24.82zm26.802 0h24.294v24.82h-24.294v-24.82zm26.29 0h24.82v24.82h-24.82v-24.82zm26.72 0h24.821v24.82h-24.82v-24.82zm26.803 0h24.82v24.82h-24.82v-24.82zm26.735 0h24.82v24.82h-24.82v-24.82zm-439.728 26.802h24.82v24.834h-24.82v-24.834zm26.721 0h24.82v24.834h-24.82v-24.834zm26.816 0h24.82v24.834h-24.82v-24.834zm26.72 0h24.821v24.834h-24.82v-24.834zm26.803 0h24.82v24.834h-24.82v-24.834zm26.735 0h24.82v24.834h-24.82v-24.834zm26.802 0h10.004v24.834h-10.004v-24.834zm11.985 0H-811.475v24.834H-836.296v-24.834zm26.722 0h24.82v24.834h-24.82v-24.834zm26.815 0h24.82v24.834h-24.82v-24.834zm26.722 0h24.82v24.834h-24.82v-24.834zm26.802 0h24.308v24.834h-24.308v-24.834zm26.735 0h24.375v24.834H-702.5v-24.834zm26.802 0h24.294v24.834h-24.294v-24.834zm26.29 0h24.82v24.834h-24.82v-24.834zm26.72 0h24.821v24.834h-24.82v-24.834zm26.803 0h24.82v24.834h-24.82v-24.834zm26.735 0h24.82v24.834h-24.82v-24.834zm-439.728 26.317h24.82v24.82h-24.82v-24.82zm26.721 0h24.82v24.82h-24.82v-24.82zm26.816 0h24.82v24.82h-24.82v-24.82zm26.72 0h24.821v24.82h-24.82v-24.82zm26.803 0h24.82v24.82h-24.82v-24.82zm26.735 0h24.82v24.82h-24.82v-24.82zm26.802 0h10.004v24.82h-10.004v-24.82zm11.985 0H-811.475v24.82H-836.296v-24.82zm26.722 0h24.82v24.82h-24.82v-24.82zm26.815 0h24.82v24.82h-24.82v-24.82zm26.722 0h24.82v24.82h-24.82v-24.82zm26.802 0h24.308v24.82h-24.308v-24.82zm26.735 0h24.375v24.82H-702.5v-24.82zm26.802 0h24.294v24.82h-24.294v-24.82zm26.29 0h24.82v24.82h-24.82v-24.82zm26.72 0h24.821v24.82h-24.82v-24.82zm26.803 0h24.82v24.82h-24.82v-24.82zm26.735 0h24.82v24.82h-24.82v-24.82z" opacity=".1" fill="url(#c)" transform="translate(1035.2 294.094)"/><path d="M-984.91-294.094v43.73h-50.29v4.91h50.29v61.317h-50.29v3.689h50.29v61.317h-50.29v4.91h50.29v61.316h-50.29v4.91h50.29V13.32h-50.29v4.91h50.29v61.33h-50.29v3.675h50.29v61.317h-50.29v4.91h50.29v44.964h4.909v-44.964h61.316v44.964h4.709v-44.964h61.317v44.964h4.91v-44.964h61.316v44.964h4.708v-44.964h61.317v44.964h4.91v-44.964h61.316v44.964h4.709v-44.964h61.316v44.964h4.91v-44.964h53.349v-4.91h-53.349V83.236h53.349v-3.675h-53.349v-61.33h53.349v-4.91h-53.349v-61.316h53.349v-4.91h-53.349v-61.317h53.349v-4.91h-53.349v-61.316h53.349v-3.689h-53.349v-61.317h53.349v-4.91h-53.349v-43.73h-4.91v43.73h-61.316v-43.73h-4.709v43.73h-61.316v-43.73h-4.91v43.73h-61.317v-43.73h-4.708v43.73h-61.317v-43.73h-4.91v43.73h-61.316v-43.73h-4.709v43.73H-980v-43.73h-4.91zm4.909 48.64h61.316v61.317H-980v-61.317zm66.025 0h61.317v61.317h-61.317v-61.317zm66.226 0h61.317v61.317h-61.317v-61.317zm66.025 0h61.317v61.317h-61.317v-61.317zm66.227 0h61.316v61.317h-61.316v-61.317zm66.025 0h61.316v61.317h-61.316v-61.317zm-330.528 65.006h61.316v61.317H-980v-61.317zm66.025 0h61.317v61.317h-61.317v-61.317zm66.226 0h61.317v61.317h-61.317v-61.317zm66.025 0h61.317v61.317h-61.317v-61.317zm66.227 0h61.316v61.317h-61.316v-61.317zm66.025 0h61.316v61.317h-61.316v-61.317zm-330.528 66.226h61.316v61.317H-980v-61.317zm66.025 0h61.317v61.317h-61.317v-61.317zm66.226 0h61.317v61.317h-61.317v-61.317zm66.025 0h61.317v61.317h-61.317v-61.317zm66.227 0h61.316v61.317h-61.316v-61.317zm66.025 0h61.316v61.317h-61.316v-61.317zm-330.528 66.227h61.316V13.32H-980v-61.316zm66.025 0h61.317V13.32h-61.317v-61.316zm66.226 0h61.317V13.32h-61.317v-61.316zm66.025 0h61.317V13.32h-61.317v-61.316zm66.227 0h61.316V13.32h-61.316v-61.316zm66.025 0h61.316V13.32h-61.316v-61.316zM-980.001 18.23h61.316v61.33H-980v-61.33zm66.025 0h61.317v61.33h-61.317v-61.33zm66.226 0h61.317v61.33h-61.317v-61.33zm66.025 0h61.317v61.33h-61.317v-61.33zm66.227 0h61.316v61.33h-61.316v-61.33zm66.025 0h61.316v61.33h-61.316v-61.33zm-330.528 65.005h61.316v61.317H-980V83.236zm66.025 0h61.317v61.317h-61.317V83.236zm66.226 0h61.317v61.317h-61.317V83.236zm66.025 0h61.317v61.317h-61.317V83.236zm66.227 0h61.316v61.317h-61.316V83.236zm66.025 0h61.316v61.317h-61.316V83.236z" opacity=".1" fill="url(#d)" transform="translate(1035.2 294.094)"/></g><path style="line-height:125%;-inkscape-font-specification:Sans Bold" d="M264.398 86.554c27.495-.184 54.63.976 53.585 3.827L279.07 196.914s64.818-2.393 65.068 0c.61 5.831-115.464 189.463-115.464 189.463l5.742-124.395s-45.64 2.249-47.844-.638c-3.237-4.239 19.836-160.716 21.689-169.049.896-4.026 28.642-5.556 56.137-5.741z" font-size="40" font-weight="700" letter-spacing="0" word-spacing="0" fill="none" stroke="#fff" stroke-width="6" stroke-linecap="round" font-family="Sans"/><path d="M37.948 58.764C31.373 33.099 53.022 9.947 77.37 6.16c35.58-5.533 66.069 24.19 69.632 58.344 1.243 11.913-.539 24.06-4.952 35.184" transform="matrix(-.44784 -.90583 .89402 -.45376 346.16 248.144)" fill="none" stroke="#fff" stroke-opacity=".784" stroke-dasharray="3,3"/><path d="M98.306 267.092c17.366-10.34 40.108-3.128 49.832 14.17 10.814 19.235 2.815 43.996-16.318 54.418a42.063 42.063 0 0 1-18.32 5.058" transform="matrix(1.27933 0 0 1.32112 32.129 -83.607)" fill="none" stroke="#fff" stroke-linecap="round" stroke-linejoin="round" stroke-opacity=".803" stroke-dasharray="2.00000005,2.00000005"/><path d="M227.687 97.317a27.304 27.304 0 0 0-2.026 4.952c-.285.922-.377 1.886-.43 2.844-.325 4.422-1.611 8.58-3.597 12.531-1.264 2.104-1.91 4.154-2.86 6.493-.25.053-.972 3.114-.651 1.992a118.002 118.002 0 0 1-.852 6.985c-.4 2.505-.974 4.976-1.603 7.432-.58 2.831-1.54 5.55-2.588 8.24a126.078 126.078 0 0 0-2.182 7.13c-.648 2.165-1.173 4.363-1.872 6.515-.952 2.93-.475 1.156-.894 2.782-.814 2.961-1.74 5.894-2.276 8.921-.452 4.29-.964 8.577-1.554 12.85-.792 3.835-1.244 7.716-1.748 11.593-.291 2.943-.84 5.852-1.157 8.79-.2 2.26-.206 4.531-.226 6.798-.176 3.326-.454 6.644-.603 9.972-.013 2.617-.245 5.215-.6 7.806-.136 2.157-.387 4.303-.618 6.452-.207 2.01-.251 4.03-.283 6.049-.03 2.907-.023 5.814-.022 8.721l.001 1.6.003 4.277c.001 1.347-.076 1.703.036 1.09.023.192-.034.413.068.577.09.146-.003-.344-.028-.513-.188-1.282-.623-2.445-1.235-3.579 1.261 1.716 2.496 3.451 3.697 5.21-1.916-3.09-5.292-4.989-8.724-5.859-1.173-.137 2.385-.071 2.418-.071 2.927.084 5.81.577 8.681 1.099.526.197 1.033.242 1.573.258.986.031-.212-.01-1.52-.006-.119 0-.462.065-.354.02.7-.296 1.833-.265 2.565-.357 3.024-.318 6.07-.313 9.106-.333 2.826-.012 5.653-.008 8.479-.006 4.254-.16 8.443.476 12.352 2.237 1.032.465 1.981 1.097 2.972 1.645 6.275 4.237 9.11 9.384 11.125 16.43 1.381 5.077 1.59 10.352 1.755 15.58a124.028 124.028 0 0 1-.712 12.386c-.592 3.856-1.501 7.657-2.524 11.418-.845 3.68-2.27 7.18-3.61 10.698-.406 1.21-.498 2.103-.824 3.465-.04 1.555-.472 3.441-.758 4.998-.495 2.814-1.345 5.545-2.069 8.303-.045.311-.022.81-.035 1.428.015-.149-.037-.57.046-.446.114.17.045.408.065.611.038.397.075.794.11 1.191.124 1.43.222 2.86.31 4.293.01 1.25.264 1.996.541 4.136.268 2.333.315 4.683.337 7.03-.007.47.032 5.924-.01 2.233.366 2.07.543 4.165.65 6.262.073 1.773.07 3.547.072 5.321l-.004 5.299c.075 2.29-.07 4.551-.254 6.834-.209.97-.282 1.978-.626 2.908-6.312 17.091-8.84 3.783-34.468-14.088-.244-.17 3.12-4.686 3.438-5.11.36-.449.715-.902 1.081-1.345.417-.506 1.603-1.895 2.071-2.388.551-.58 1.127-1.135 1.69-1.704.124-.126.278-.231.372-.382.076-.122-.211.194-.316.292-.012.111.62-.883.446-.68-.136.16-.187.405-.369.51-.12.07.103-.26.16-.388.138-.32.282-.639.424-.958.567-1.374 1.29-2.745 1.559-4.221.903-4.045 2.635-7.732 4.853-11.211 2.225-3.159 4.897-5.988 7.575-8.766 1.416-1.225 1.958-2.065 3.022-3.412 1.699-2.25 3.7-4.222 5.674-6.223.458-.426.929-.84 1.376-1.278.235-.23-.924.925-.742.65.765-1.155 1.768-2.21 2.665-3.262 1.615-1.855 3.347-3.604 5.08-5.348 1.247-1.149 2.343-2.364 3.422-3.642 1.038-1.258 2.208-2.843 3.469-4.345 1.633-1.573 3.093-3.28 4.546-5.011 1.327-1.54 2.56-3.158 3.786-4.778 1.581-2.09 3.21-4.143 4.78-6.242 1.677-2.367 3.104-4.916 4.435-7.492 1.237-2.416 2.396-4.87 3.658-7.273 1.657-3.048 3.506-5.98 5.467-8.84 1.97-3.029 4.137-5.909 6.348-8.763a70.862 70.862 0 0 0 4.011-6.254c2.337-4.146 4.885-8.165 7.503-12.136 1.538-2.273 3.03-4.57 4.442-6.921 1.373-2.352 2.866-4.629 4.351-6.908 1.903-2.917 3.906-5.768 5.9-8.623 1.444-1.944 2.737-3.992 4.133-5.97.767-1.29 1.584-2.557 2.232-3.915-.324.44-.071.115.378-.919.032-.072.113-.295.08-.223-.289.652-.885 2.8-.07-.311.186-1.266.581-2.503.728-3.773.12-1.755.576-3.461.828-5.196.489-2.69 1.203-5.33 1.924-7.966.307-.93.341-3.5.144.582.18 4.14 2.074 7.827 5.093 10.655.913.855 2.022 1.475 3.032 2.212 3.41 1.49 2.155 1.143 4.744 1.78.12.03.364-.047.364.077 0 .122-.243 0-.365-.002-2.166-.025.72 0-2.023-.021-3.475-.008-6.95.003-10.425.01-1.204.03-2.41-.027-3.612.006-.259.007.517-.023.774.006.195.022-1.37.133.158.012.273-.053 1.043-.326.82-.16-.434.325-4.625 1.345-5.394 1.603-3.18 1.01-6.464 1.58-9.778 1.909-3.412.252-6.838.212-10.253.074-4.692-.337-9.285-1.402-13.898-2.262-1.46-.293-2.945-.422-4.432-.471-5.819-.033-10.525-1.927-15.06-5.58-.84-.677-1.514-1.538-2.272-2.307-3.726-4.525-5.751-10.05-5.75-15.927 0-1.269.194-2.53.29-3.795.547-3.115 1.417-6.214 2.928-9.013 1.038-1.923 2.278-3.647 3.484-5.448 1.878-3.11 4.006-6.031 6.346-8.805 2.367-3.034 5.125-5.739 7.918-8.377l.456-.487c.215-.23.44-.454.646-.693.017-.02.048-.081.02-.079-.377.034-.429.639-.72.883-.122.102.12-.296.18-.444-.101.156-.353.647-.305.467.662-2.443 1.838-4.943 2.595-7.406.147-.941.299-2.02.508-3.161.136-.856.153-1.727.18-2.592.074-2.919.517-5.813 1.004-8.686.624-3.614 1.554-7.158 2.609-10.666 1.165-3.85 2.62-7.597 4.207-11.29.996-2.467 2.065-4.902 3.108-7.348.32-.431 1.144-3.408.529-1.312-.23 1.756-.135-3.19-.098 1.193-.117-.465.089.832.094.858.028.143.178.55.102.426-1.219-1.99-.042-.419-.4-.892l-.26-.496c-.214-.443-.417-.891-.642-1.328-.161-.314.31.634.446.96.01.026.036.102.014.084-.13-.107-.233-.24-.349-.361-.104-.09-.246-.122-.353-.205-.38-.293-2.15-1.77-2.34-1.924-1.096-.888-1.22-1.174-.925-.625-.895-.364-1.84-.537-2.861-.73-2.753-.292-5.502-.62-8.259-.879-5.355-.598-10.722-1.08-16.063-1.805-3.195-.347-6.303-1.226-9.5-1.547-2.4-.246-4.784-.582-7.193-.73-2.309-.118-4.621-.136-6.932-.147-2.609-.006-5.217 0-7.825.001-1.354.036-2.71-.042-4.064.002-.052.002.1.04.151.037.477-.028.957-.044 1.426-.13.668-.123 1.317-.33 1.976-.494.56.09 3.037-1.761.999-.25-.12.09.25-.174.392-.221.046-.015-.04.063-.473.488 1.633-1.646 1.124-.84 1.737-2.083-.512 2.014-1.28 3.92-2.062 5.845-10.934 24.139-45.072 8.676-34.138-15.463-1.059 3.132.425-1.366.534-1.89 1.779-5.132 4.263-9.965 8.283-13.737 3.434-3.184 7.17-6.03 11.561-7.777 1.228-.378 2.433-.84 3.683-1.135 3.277-.772 6.63-.675 9.966-.669 2.68-.002 5.359-.007 8.038 0 3.062.015 6.124.05 9.181.226 3.008.203 5.993.566 8.987.89 3.497.415 6.936 1.11 10.41 1.661 4.811.685 9.66 1.043 14.485 1.62 4.242.41 8.496.82 12.692 1.573 5.257 1.19 10.43 2.832 15.018 5.744 4.073 2.753 7.977 5.79 11.386 9.351 2.715 3.084 5.135 6.378 6.776 10.17 1.72 3.764 3.223 7.657 3.59 11.819.19 3.318.239 6.624-.438 9.903a47.598 47.598 0 0 1-2.86 8.803 394.22 394.22 0 0 0-3.123 7.38c-1.047 2.407-2.003 4.85-2.766 7.363a49.978 49.978 0 0 0-1.507 6.004c-.375 2.208-.545 3.067-.5 3.753-.1 2.682-.279 5.367-.77 8.01-.237 1.291-.783 5.271-1.66 7.778-1.267 3.922-2.726 7.779-4.147 11.647-1.188 2.433-1.346 2.913-3.001 5.443-1.594 2.437-3.684 4.506-5.722 6.564-1.876 1.766-3.753 3.542-5.283 5.626-1.48 1.492-2.347 3.52-3.593 5.202-.318.47-.633.944-.954 1.413-.217.318-.708 1.331-.66.949.065-.522.5-.927.718-1.406.363-.796.432-1.712.546-2.563.042-3.99-.936-6.89-3.62-9.938-2.29-2.15-4.481-3.56-7.539-4.415-.658-.184-1.344-.25-2.023-.331-.307-.038-1.238-.031-.928-.026.42.007.84.02 1.26.031 3.285.143 6.564.452 9.796 1.078 2.957.554 5.903 1.17 8.87 1.67 1.659.136 3.328.035 4.991.035.722-.023 1.425-.171 2.114-.391a431.994 431.994 0 0 1 8.053-2.339c3.374-.617 6.761-.942 10.196-.8 3.61-.007 7.221-.02 10.832-.01 5.158.05 10.225.276 14.924 2.758 1.315.904 2.75 1.655 3.946 2.712 4.528 4.001 6.926 9.525 7.384 15.465-.01 1.137.012 2.275-.031 3.411-.1 2.62-.806 5.2-1.397 7.737-.38 1.388-.708 2.788-1.075 4.178-.012.044 0-.09.002-.135-.408 2.464-.622 3.093-.896 5.597-.483 2.669-.817 4.279-1.48 7.181-.422 1.286 1.21-3.691-.622 2.376-.668 2.21-1.602 4.306-2.59 6.387-1.532 2.941-3.181 5.819-5.054 8.559-1.362 1.87-2.533 3.875-3.949 5.708-1.78 2.544-3.567 5.085-5.264 7.685-1.235 1.871-2.456 3.75-3.585 5.688a187.036 187.036 0 0 1-5.288 8.263c-2.223 3.36-4.378 6.763-6.352 10.277-2.09 3.584-4.31 7.101-6.811 10.415-1.806 2.33-3.586 4.671-5.173 7.16-1.13 1.59-2.13 3.257-3.104 4.946-1.262 2.388-2.385 4.845-3.64 7.237-2.288 4.321-4.7 8.602-7.618 12.536-1.612 2.15-3.28 4.258-4.9 6.402-1.605 2.119-3.233 4.223-4.958 6.246-1.6 1.907-3.165 3.942-5.027 5.607-.15.135.252-.316.378-.473-1.205 1.386-2.198 2.944-3.436 4.305-1.732 2.052-3.535 4.035-5.48 5.889-1.093 1.099-2.191 2.195-3.23 3.346-1.765 2.018-3.222 4.314-5.301 6.044-.989.975-1.59 1.47-2.704 2.896-1.767 2.232-3.54 4.47-5.65 6.395-1.092 1.042-2.838 3.076-3.264 3.478.284-.532.382-.682.616-1.288.123-.319.645-2.21-.074.291-.052.18-.108.36-.163.54-.932 3.505-2.105 6.94-3.65 10.228-1.691 3.772-3.604 7.453-6.375 10.563-1.875 2.103-2.145 2.201-3.602 3.923-.817 1.013.028.013-.12-.074-10.76-6.314-20.961-13.89-32.598-18.385-1.3-.503-2.289 5.545-2.567 7.012-.211 4.726-.02-.987-.083-1.846l.004-5.26c0-1.186.003-2.372-.03-3.558-.028-.803-.1-1.599-.263-2.388a46.53 46.53 0 0 1-.417-7.562 139.67 139.67 0 0 0-.05-2.716c-.225-2.18-.8-4.328-.764-6.536-.176-3.015-.569-6.014-.579-9.038.116-3.353.4-6.71 1.29-9.96.516-1.909 1.116-3.795 1.479-5.74.528-2.168.488-4.449 1.105-6.604.625-2.607 1.18-5.497 2.257-8.098.923-2.415 1.97-4.786 2.504-7.328.554-1.929.967-3.906 1.43-5.848.165-.73.05-.157.15-1.687.111-1.71.238-3.42.317-5.133-.065-2.204-.091-4.434-.383-6.616-.062-.231-.325-.888-.184-.695.271.371.368.844.587 1.247.193.356.417.693.648 1.026.856 1.235 2.096 2.16 3.232 3.144.244.212.547.347.82.52 1.965.97 3.795 1.594 5.99 1.817.278.028 1.114 0 .836-.003-.771-.01-1.542.01-2.313-.001-2.737-.002-5.475-.005-8.212.005-1.622.01-3.244.03-4.865.064-2.62.27-5.23.868-7.887.515-2.398-.19-4.79-.486-7.126-1.083 4.881.687-4.769-.488-.254-.177-2.791.012-5.593.023-8.363-.376-.95-.187-1.913-.315-2.849-.56-5.652-1.478-10.543-4.904-13.792-9.768-.285-.55-.002-.02-.888-1.26-.824-1.153-1.63-2.317-2.474-3.457-3.15-4.815-5.013-9.275-5.37-15.091-.173-3.224-.15-6.448-.14-9.677-.002-3.12-.009-6.24.027-9.359.054-3.157.158-6.315.495-9.456.272-2.502.508-4.998.747-7.505l.12-.879c.02-.138.038-.55.063-.413.044.233-.017.95-.007.712.055-1.28.036-2.564.116-3.844.132-2.876.28-5.755.567-8.619.033-3.564.082-7.134.463-10.682.37-3.17.899-6.316 1.243-9.49.542-3.959.943-7.939 1.783-11.853.694-4.87 1.142-9.77 1.849-14.637.822-4.219 1.92-8.365 3.133-12.488.9-2.968 1.9-5.902 2.656-8.913 1.014-3.565 2.055-7.128 3.347-10.605.574-1.465.604-1.498 1.017-3.236.079-.329.172-.654.257-.982.525-1.5.498-2.433.852-3.933.077.617.005.113.17-1.341.16-1.401.416-2.787.471-4.2.566-3.94 1.54-7.786 3.124-11.451 1.308-3.21 2.498-6.484 4.24-9.494.046-.078.164-.321.139-.234-.216.738-.475 1.463-.712 2.195.04-.143.106-.574.12-.427.196 2.225-.362-.554.015.207.304-3.713.859-7.408 1.967-10.975.925-2.984 1.954-5.955 3.41-8.727 10.439-24.358 44.885-9.595 34.447 14.763z" opacity=".034" fill="#fff"/><text style="text-align:end;line-height:150%;-inkscape-font-specification:Open Sans" x="-156.271" y="158.64" font-size="16" font-weight="400" letter-spacing="0" word-spacing="0" text-anchor="end" font-family="Open Sans"/><path d="M193.067 67.953c.288.074.572.166.864.223 1.808.355 3.655.576 5.473.876 5.715.942.2.097 6.68 1.058 4.994.714 9.996 1.372 14.998 2.03 1.984.26 3.977.465 5.954.772 24.342 3.774-11.108-1.327 14.221 2.256 2.443.3 4.883.63 7.33.898 3.591.392 10.214.955 13.862 1.256 5.89.485 11.779.962 17.677 1.339 6.877.335 13.763.34 20.644.52 2.597.079 5.206.142 7.765.625 1.317.343 2.55.944 3.78 1.519 1.229.561 2.47 1.096 3.716 1.62 12.205 4.896 3.18 1.4 2.39 32.133-1.857.54-3.757.568-5.672.559-2.542-.095-5.083-.09-7.626-.053-.875.012-1.75.066-2.624.041-1.128-.031-2.252-.14-3.379-.211-1.3-.025-2.6-.034-3.9-.074-5.671-.173-4.103-.285-10.046-.195-5.77.088-11.521.456-17.275.878-10.008.903-19.969 2.22-29.926 3.547-4.626.71-9.301 1.5-13.65 3.305-.496.206-.975.454-1.464.682-.4.213-.804.42-1.2.64-1.256.698-.729.467-1.959 1.104-.913.473-1.863.87-2.8 1.295-1.283.511-2.56 1.076-3.906 1.41-.624.155-1.692.33-2.323.44-3.074.004-6.158.05-9.17.735-.47.107-.93.257-1.395.386-.231.023-2.502 1-2.064 1.575.138.181.583.571.592.343.38-10.016.357-20.043.535-30.064-.142.136-.37.22-.424.409-.114.392.457 1.151.61 1.351.978 1.274 2.187 2.047 3.521 2.911 6.304 3.373 13.347 4.989 20.256 6.605 10.793 2.283 21.684 4.072 32.55 5.967 1.764.317 3.535.595 5.29.951 1.858.377 3.694.852 5.547 1.248 1.848.396 3.705.746 5.555 1.129 1.927.399 3.843.846 5.775 1.217 3.929.756 6.801 1.15 10.723 1.741 3.705.527 7.438.827 11.173 1.023 1.75.092 3.5.113 5.249.22 1.526.123 2.663.63 3.787 1.63.702.798 1.436 1.553 1.885 2.526 9.05-28.754 8.79 30.47-1.763 31.735-.746.09-1.504.018-2.255-.01-3.118-.117-4.017-.323-7.477-.753-11.25-.838-22.557-.937-33.826-.45-2.362.103-4.72.266-7.08.399-9.878.726-19.74 1.86-29.457 3.81-1.44.289-2.872.624-4.307.936-4.266.908-8.383 2.363-12.586 3.503-.288.078-4.488 1.134-4.858 1.227-3.427.78-6.899 1.515-10.204 2.74-.504.188-.989.424-1.483.636-1.106.46-2.005 1.145-2.784 2.04-.412.474-.635.72-.823 1.31-.065.205-.076.423-.114.634-.015.203-.068.407-.045.61.024.2.179.779.182.577.14-9.894.235-19.789.233-29.684 0-.175-.179.303-.24.467-.057.15-.139.311-.111.47.032.186.185.329.278.493.229.178.435.391.687.534 1.62.92 4.003 1.477 5.765 1.955 3.15.854 3.91.996 7.235 1.768 6.57 1.465 13.23 2.473 19.817 3.86 4.622.974 6.119 1.377 10.703 2.495 7.984 2.103 15.931 4.451 23.598 7.54 1.254.505 2.487 1.062 3.731 1.593 5.23 2.516 10.503 4.928 15.921 7.011 11.78 4.416 5.124.814 3.877 31.669-.03.762-6.897.123-7.333.09-7.86-.652-15.74-1.022-23.627-1.043-2.045-.006-4.09.033-6.135.05-10.217.22-20.46.927-30.546 2.644-1.665.283-3.317.642-4.975.963-3.673.75-7.31 1.754-10.716 3.342-1.135.529-2.395 1.235-3.39 2.03-.303.242-.557.54-.835.81-.968 1.451-.553 1.565-.128 2.984-.01-9.918.007-19.835-.03-29.752-.001-.208-.086.411-.08.62a2.7 2.7 0 0 0 .113.67c.376 1.308 1.11 2.068 2 3.066.575.481 1.11 1.014 1.726 1.444 6.401 4.475 15.34 5.566 22.843 6.7 10.443 1.082 20.962 1.484 31.46 1.348 6.665-.086 9.914-.308 16.555-.638 13.094-.81 26.152-2.141 39.193-3.56 5.028-.33 9.951-1.493 14.958-1.977.668.001 1.124-.052 1.774.17.367.127.73.283 1.052.5.201.136.904.93.903 1.237-.021 10.278-.279 20.554-.418 30.831-2.493 2.15-5.856 1.862-8.93 1.754-9.2-.865-18.37-2.025-27.566-2.928-2.718-.267-5.439-.5-8.158-.75-12.197-1.052-24.434-1.536-36.674-1.52-6.82.008-10.1.14-16.827.326-8.39.29-16.788.604-25.16 1.255-1.866.145-6.262.608-8.24.812-3.532.42-7.097.972-10.457 2.19-1.206.437-1.911.822-3.034 1.38-.643.457-1.682.902-1.974 1.738-.182.521.21 1.03.476 1.417.038-9.902.117-19.805.116-29.708 0-.205-.123.398-.12.603.004.245.06.49.14.723.442 1.295 1.504 2.17 2.452 3.09.573.457 1.124.943 1.718 1.372 5.244 3.782 11.765 6.285 17.724 8.665 10.891 4.123 22.322 6.715 33.813 8.506 2.696.42 5.406.74 8.11 1.11 5.785.478 11.527 1.405 17.312 1.892 1.117.094 17.663 1.016 18.591 1.046 7.618.247 9.986.065 17.426-.16 5.457-.152 10.87-.856 16.3-1.345 2.054-.186 3.787-.284 5.816-.078 11.297 3.078 2.39 16.183 2.404 31.468 0 .236-.401.253-.585.402-1.214.984.685-.348-.79.651-.892.54-1.692 1.276-2.713 1.569-.447.128-.91.192-1.364.288-3.987.545-8.01.727-12.014 1.098-3.515.326-7.026.694-10.54 1.034-9.286.839-18.563 1.77-27.844 2.672-2.48.241-4.957.518-7.441.708-2.568.196-5.141.301-7.712.452-9.91.833-19.914 1.582-29.593 4.016-1.117.281-2.213.64-3.32.959-2.786.824-5.376 2.08-7.67 3.852.08.115-.703.433-.557.69.094.167.501.46.507.268.311-10.117.452-20.241.417-30.363 0-.203-.468.12-.52.317-.051.193.199.345.299.518.324.24.63.507.973.722 1.123.703 2.636 1.41 3.827 1.893 3.782 1.532 7.703 2.51 11.647 3.52 11.732 2.808 23.69 4.5 35.628 6.145 3.842.588 7.714.965 11.557 1.546 1.862.282 3.712.64 5.57.942 4.42.72 8.837 1.38 13.284 1.895 1.807.194 3.626.24 5.436.404.504.045 1.524-.348 1.51.159-.825 31.328 7.842 31.335-3.905 30.609-6.832-.152-13.662.065-20.49.253-12.174.446-24.332 1.322-36.468 2.376-8.1.833-16.272 1.126-24.325 2.397-1.023.162-2.037.378-3.056.567-1.386.353-2.621.597-3.928 1.152-.794.338-1.89 1.095-1.43 1.387.275.175.63.168.945.251-.064-10.107-.048-20.215-.192-30.322-.002-.133-.251.192-.235.325.02.164.192.273.318.38.844.715 2.073 1.033 3.075 1.403 6.57 2.125 13.25 3.869 19.963 5.475 10.452 2.411 21.03 4.206 31.61 5.946 3.274.58 6.575 1.001 9.853 1.561 1.708.292 3.404.653 5.113.941 1.668.282 3.346.508 5.018.767 1.665.259 3.323.563 4.992.788 1.526.206 3.061.337 4.592.506 3.16.265 6.332.491 9.506.408 1.118-.029 2.199-.179 3.306-.291-.126 10.283.115 20.578-.379 30.85-.018.368-.736.012-1.103.001a19.624 19.624 0 0 1-1.193-.068c-2.336-.211-4.63-.68-6.93-1.12-10.546-1.888-21.284-2.261-31.97-2.535-7.681.005-4.888-.052-12.47.168-5.762.167-6.393.1-12.041.696-4.925.521-5.4.69-10.108 1.534-3.137.68-6.252 1.542-9.236 2.736-.783.314-1.857.792-2.567 1.33-.195.147-.342.35-.512.524-.036.148-.125.293-.108.444.035.32.697.978.703.657.562-30.627 9.986-32.158-.521-30.237 108.804 9.185 106.206 39.96-2.598 30.775-.299-.089-.887.046-.897-.266-.518-16.533-9.33-28.008 2.021-31.708 1.302-.27 2.572-.375 3.903-.447 3.161-.171 6.327-.26 9.488-.449 1.617-.106 3.233-.23 4.85-.318 4.211-.228 7.092-.28 11.344-.439 2.082-.077 4.163-.21 6.247-.25 4.178-.083 8.358.116 12.536-.04 10.706.018 21.419-.019 32.116-.493 1.66-.114 3.394-.196 5.051-.425.195-.027 1.99-.344 2.4-.49.138-.048.362-.383.366-.238.283 10.16.318 20.326.477 30.489-.045-.13-.03-.302-.135-.391-.44-.375-2.172-1.003-2.481-1.11-3.088-1.065-6.289-1.76-9.467-2.488-7.67-1.469-1.55-.343-9.608-1.691-1.673-.28-3.338-.606-5.013-.867-1.708-.266-3.428-.443-5.134-.714-1.507-.238-8.416-1.528-9.873-1.798-10.524-2.002-21.039-4.081-31.645-5.619-6.708-.927-13.427-1.766-20.164-2.462-.198-.023-2.592-.293-2.903-.346-.754-.13-1.13-.28-1.842-.488-10.918-3.187-.947 3.107-1.513-31.183.471-.128 1.324-.383 1.857-.457 2.093-.288 4.236.01 6.332 0 9.137.29 18.288.21 27.42-.21 3.88-.196 8.467-.406 12.334-.696 8.054-.603 16.07-1.632 24.084-2.62 1.67-.24 3.344-.455 5.01-.719 2.102-.333 5.907-1.052 8.095-1.457 1.358-.252 3.926-.708 5.36-1.042.613-.142 1.216-.325 1.823-.488 10.237-4.733-.394-.187-.008 29.799.006.495 1.145-.048 1.412-.465.178-.279-.36-.568-.615-.779a8.82 8.82 0 0 0-1.518-.981c-.817-.43-1.682-.762-2.523-1.142-3.676-1.306-3.96-1.492-7.99-2.521-7.286-1.862-14.76-2.84-22.147-4.19-11.888-1.8-23.798-3.482-35.745-4.84-5.874-.643-11.812-1.073-17.567-2.473-.09-.023-2.233-.563-2.234-.59-1.17-40.588-8.946-26.578 2.168-31.624 2.798-1.05 5.77-1.26 8.74-1.367 1.69-.07 6.274-.263 7.736-.301 8.484-.222 16.982-.053 25.451-.711 3.334-.297 11.68-1.023 15.061-1.395 9.291-1.021 18.549-2.416 27.706-4.29 4.884-1.083 9.782-2.117 14.584-3.535 1.413-.417 4.128-1.297 5.607-1.93.542-.233 1.052-.533 1.577-.8.77-.578 2.073-1.56 2.367-2.542-.02-.08-.048-.16-.059-.243-.013-.1.04-.217-.013-.303-.078-.123-.347-.41-.346-.266.1 10.033.278 20.066.643 30.093.008.208.363-.253.437-.448.07-.185-.028-.394-.043-.59-.233-.245-.424-.54-.7-.734-1.058-.744-2.945-1.45-4.064-1.788-5.24-1.585-10.725-2.123-16.141-2.706-7.972-.543-9.25-.699-17.465-.96-3.17-.101-6.341-.088-9.51-.2-3.056-.108-6.108-.328-9.164-.46-3.028-.131-6.062-.14-9.087-.328-2.785-.174-5.559-.507-8.338-.76-2.73-.276-5.463-.517-8.189-.828-11.536-1.315-23.02-3.216-34.295-6.006-1.66-.436-3.326-.848-4.98-1.308-3.474-.966-4.606-1.359-7.902-2.493-2.072-.714-3.676-1.245-5.651-2.127-.67-.299-1.314-.652-1.972-.978-.75-.43-1.992-1.119-2.741-1.622-9.735-6.538-2.629-24.335-2.246-32.833.167-.196.317-.407.5-.587 1.138-1.124 2.773-1.504 4.256-1.932 1.038-.26 2.379-.61 3.409-.805 3.639-.692 7.35-.739 11.041-.65 11.178.457 22.326 1.462 33.508 1.862 6.642.31 10.116.494 16.844.713 9.311.304 18.62.43 27.936.494l8.811.06c11.777.051 23.671.415 35.327-1.581 1.133-.28 4.485-.798 5.126-2.153.199-.421.066-.65-.036-1.062l-.16 29.656c.203-.321.335-.698.605-.965.157-.154.406-.2.548-.368.305-.36-.305-.533-.45-.622-1.404-.442-2.84-.69-4.3-.882-3.408-.449-6.845-.658-10.279-.75-4.7-.126-5.687-.183-10.563-.178-9.55.01-19.092.448-28.638.675-16.107.589-32.226.931-48.344.841-5.768-.185-11.516-.316-17.234-1.176-2.247-.337-4.807-.827-6.986-1.576-.723-.249-1.402-.612-2.102-.918-1.077-.604-1.697-.884-2.628-1.634-8.662-6.972-1.888-31.771-1.974-32.818.066-.169.114-.346.199-.505.578-1.084 1.842-1.656 2.901-2.126 5.214-1.716 10.78-1.9 16.18-2.636 2.84-.252 7.89-.708 10.653-.922 8.378-.648 16.772-1.087 25.154-1.676 5.794-.334 11.589-.641 17.378-1.049 2.902-.204 6.01-.406 8.91-.764 1.12-.138 2.23-.338 3.346-.508.809-.192 1.636-.32 2.426-.577.452-.148 1.096-.194 1.278-.634.12-.29-.85-.723-.846-.41.155 9.895.87 19.774 1.304 29.66-.153-.307-.224-.672-.46-.92-.385-.406-.902-.66-1.353-.99-3.16-1.863-.538-.353-4.12-2.297-3.926-2.13-7.815-4.326-11.698-6.533-3.188-1.68-4.232-2.3-7.593-3.778-6.189-2.72-12.638-4.832-19.152-6.616-1.75-.436-3.49-.91-5.248-1.31-8.245-1.88-16.651-2.977-25.069-3.703-3.322-.275-6.646-.489-9.97-.729-.643-.046-3.058-.195-3.809-.313-.44-.07-.865-.205-1.298-.307-.647-.254-1.43-.52-2.015-.914-.242-.164-.645-.298-.65-.59-.263-16.464-5.868-23.288 1.03-32.027 1.65-1.635 3.654-2.679 5.902-3.276 3.97-1.047 7.975-1.962 12.02-2.673 5.851-1.174 11.72-2.33 17.665-2.91 11.33-1.102 22.693-1.795 34.067-2.24 7.018-.279 7.303-.3 14.362-.536 8.848-.295 17.748-.356 26.505-1.815.972-.241 5.453-1.225 6.894-1.938.342-.17.643-.459.823-.795.071-.135-.094-.293-.173-.423-.093-.154-.336-.602-.336-.422-.046 9.986.135 19.973.202 29.959.101-.908.236-1.603-.383-2.388-.396-.913-.915-1.703-1.821-2.185-1.613-.808-3.254-1.36-4.981-1.894a189.7 189.7 0 0 0-11.17-3.057c-4.612-1.093-5.956-1.464-10.707-2.366-1.929-.366-3.873-.648-5.802-1.009-1.857-.347-3.702-.76-5.558-1.112-11.533-2.19.361.23-10.794-2.086-10.802-2.102-21.66-3.891-32.577-5.29-7.082-1.037-14.254-1.848-21.115-3.974-1.448-.544-2.05-.72-3.387-1.398-.967-.49-1.793-1.154-2.72-1.703-.29-.172-.593-.322-.889-.483.13-8.176-8.935-29.316 2.902-31.727.817-.166 1.34-.19 2.19-.27 2.462-.162 4.881-.4 7.32-.777.568-.087 1.142-.144 1.705-.26.477-.098.941-.254 1.412-.381a29.95 29.95 0 0 0 5.6-1.983c2.054-.875 4.054-1.907 6.24-2.425 5.188-1.194 10.513-1.526 15.824-1.636 10.005-.58 20.006-1.244 29.996-2.047 3.883-.291 7.77-.536 11.65-.848 5.258-.423 10.494-.992 15.73-1.612 1.307-.154 2.615-.298 3.922-.448 4.485-.638 8.998-1.063 13.47-1.799.83-.154 1.762-.249 2.56-.556.22-.085.636-.222.552-.442-.048-.128-.224-.155-.336-.233-.174 10.136-.597 20.27-.523 30.406.005.713 1.01-.47 1.01-.472.04-.193-.38-.536-.464-.594-.158-.108-.337-.182-.506-.273-1.248-.564-2.474-1.18-3.77-1.626a96.041 96.041 0 0 1-3.358-1.583c-2.283-1.01-4.719-1.633-7.163-2.11-6.87-1.19-13.78-2.129-20.644-3.357-12.916-2.033-25.87-3.815-38.865-5.267-12.162-1.13-2.41-.339-14.188-.992-1.98-.11-3.957-.285-5.936-.397-4.973-.282-9.953-.413-14.933-.292-2.111.056-4.527.109-6.659.205-1.766.08-3.585.132-5.327.474-.292.057-.576.148-.864.223-108.756 0-108.756-30.761 0-30.761z" opacity=".669" fill="none"/><path d="M167.606 84.038h217.01" opacity=".223" fill="none" stroke="#fff" stroke-linecap="round" stroke-linejoin="round" stroke-dasharray="3,3"/><path d="M123.515 397.193h243.173" opacity=".218" fill="none" stroke="#fff" stroke-linecap="round" stroke-linejoin="round" stroke-dasharray="3,3"/><path d="M-891.435-97.75h243.174" opacity=".236" fill="none" stroke="#fff" stroke-linecap="round" stroke-linejoin="round" stroke-dasharray="3,3" filter="url(#e)" transform="translate(1035.2 294.094)"/><path d="M153.214 262.827h243.173" opacity=".364" fill="none" stroke="#fff" stroke-linecap="round" stroke-linejoin="round" stroke-dasharray="3,3"/><g fill="none" stroke="#fff" stroke-width="2.192" stroke-linecap="round" stroke-linejoin="round" stroke-dasharray="8.76779316,8.76779316"><path transform="matrix(.32992 0 0 .30912 217.39 202.37)" d="M-120.5 172.188l44.5 47.5"/><path d="M-1111.2-121.906l-44.5 47.5" transform="matrix(.32992 0 0 .30912 558.924 293.28)"/></g><g fill="none" stroke="#fff" stroke-width="1.826" stroke-linecap="round" stroke-linejoin="round" stroke-dasharray="7.30305971,7.30305971"><path d="M-120.5 172.188l44.5 47.5" transform="matrix(.36727 0 0 .40024 384.038 117.62)"/><path d="M-1111.2-121.906l-44.5 47.5" transform="matrix(.36727 0 0 .40024 764.24 235.328)"/></g><g fill="none" stroke="#fff" stroke-width="3.064" stroke-linecap="round" stroke-linejoin="round" stroke-dasharray="12.25575631,12.25575631"><path d="M-120.5 172.188l44.5 47.5" transform="matrix(.34837 0 0 .30578 259.992 337.356)"/><path d="M-1111.2-121.906l-44.5 47.5" transform="matrix(.34837 0 0 .30578 620.623 427.282)"/></g><path d="M224.585 420.942L242.141 48.35" opacity=".155" fill="none" stroke="#fff" stroke-linecap="round" stroke-linejoin="round" stroke-dasharray="3,3"/><path d="M299.688 420.942L317.243 59.85" opacity=".168" fill="none" stroke="#fff" stroke-linecap="round" stroke-linejoin="round" stroke-dasharray="3,3"/><g fill="none" stroke="#fff" stroke-width="3.064" stroke-linecap="round" stroke-linejoin="round" stroke-dasharray="12.25575631,12.25575631"><path transform="matrix(.40061 0 0 .17695 346.805 228.389)" d="M-120.5 172.188l44.5 47.5"/><path d="M-1111.2-121.906l-44.5 47.5" transform="matrix(.40061 0 0 .17695 761.52 280.427)"/></g><path d="M177.386 420.942L194.941 48.35" opacity=".445" fill="none" stroke="#fff" stroke-linecap="round" stroke-linejoin="round" stroke-dasharray="3,3"/><path d="M336.688 420.942L354.243 59.85" opacity=".459" fill="none" stroke="#fff" stroke-linecap="round" stroke-linejoin="round" stroke-dasharray="3,3"/></svg>