<?xml version="1.0" encoding="UTF-8" standalone="no"?>
<svg
   xmlns:dc="http://purl.org/dc/elements/1.1/"
   xmlns:cc="http://creativecommons.org/ns#"
   xmlns:rdf="http://www.w3.org/1999/02/22-rdf-syntax-ns#"
   xmlns:svg="http://www.w3.org/2000/svg"
   xmlns="http://www.w3.org/2000/svg"
   xmlns:sodipodi="http://sodipodi.sourceforge.net/DTD/sodipodi-0.dtd"
   xmlns:inkscape="http://www.inkscape.org/namespaces/inkscape"
   width="127.99997"
   height="117.47135"
   viewBox="0 0 127.99997 117.47135"
   id="svg2"
   version="1.1"
   inkscape:version="0.48.4 r9939"
   sodipodi:docname="cogs.svg">
  <metadata
     id="metadata10">
    <rdf:RDF>
      <cc:Work
         rdf:about="">
        <dc:format>image/svg+xml</dc:format>
        <dc:type
           rdf:resource="http://purl.org/dc/dcmitype/StillImage" />
      </cc:Work>
    </rdf:RDF>
  </metadata>
  <defs
     id="defs8" />
  <sodipodi:namedview
     pagecolor="#ffffff"
     bordercolor="#666666"
     borderopacity="1"
     objecttolerance="10"
     gridtolerance="10"
     guidetolerance="10"
     inkscape:pageopacity="0"
     inkscape:pageshadow="2"
     inkscape:window-width="1920"
     inkscape:window-height="1031"
     id="namedview6"
     showgrid="false"
     inkscape:zoom="0.70710678"
     inkscape:cx="-529.23396"
     inkscape:cy="92.281692"
     inkscape:window-x="0"
     inkscape:window-y="0"
     inkscape:window-maximized="1"
     inkscape:current-layer="svg2"
     fit-margin-top="0"
     fit-margin-left="0"
     fit-margin-right="0"
     fit-margin-bottom="0" />
  <path
     style="font-size:medium;font-style:normal;font-variant:normal;font-weight:normal;font-stretch:normal;text-indent:0;text-align:start;text-decoration:none;line-height:normal;letter-spacing:normal;word-spacing:normal;text-transform:none;direction:ltr;block-progression:tb;writing-mode:lr-tb;text-anchor:start;baseline-shift:baseline;color:#000000;fill:#ffffff;fill-opacity:1;stroke:none;stroke-width:1.30000001;marker:none;visibility:visible;display:inline;overflow:visible;enable-background:accumulate;font-family:Sans;-inkscape-font-specification:Sans;stroke-miterlimit:4;stroke-dasharray:none"
     d="m 93.65625,-0.28125 c -0.244428,0 -0.255902,0.0409371 -0.3125,0.0625 -0.0566,0.0215629 -0.09978,0.067175 -0.15625,0.09375 -0.112939,0.05315003 -0.235011,0.09617116 -0.40625,0.1875 -0.342479,0.18265769 -0.816351,0.45755947 -1.4375,0.8125 -1.237699,0.7072279 -2.567771,1.4546471 -3.9375,2.25 -1.366962,0.7937074 -2.177836,1.2764237 -2.25,1.3125 L 85.09375,4.46875 85.03125,4.5 C 84.735253,4.7220649 84.5,5.1214005 84.5,5.53125 c 0,0.7898154 0.302621,1.7949441 0.875,3.34375 0.539698,1.460375 1.371245,3.44191 2.40625,5.75 -0.607086,0.865426 -1.138875,1.812938 -1.625,2.84375 -3.07586,0.317357 -5.511869,0.63313 -7.125,0.96875 C 78.185529,18.613456 77.551915,18.793064 77.0625,19 76.817792,19.103468 76.597385,19.212085 76.40625,19.375 76.215115,19.537915 76,19.796347 76,20.15625 l 0,9.28125 c 0,0.359905 0.215115,0.618336 0.40625,0.78125 0.191135,0.162914 0.411543,0.271533 0.65625,0.375 0.489415,0.206934 1.12303,0.386544 1.96875,0.5625 1.613131,0.335619 4.04914,0.65139 7.125,0.96875 0.462871,0.985095 0.987429,1.952076 1.625,2.875 -1.034594,2.307241 -1.866696,4.258766 -2.40625,5.71875 -0.572379,1.548806 -0.875,2.553935 -0.875,3.34375 0,0.409852 0.235257,0.809188 0.53125,1.03125 l 0.03125,0.03125 0.03125,0 c 2.693618,1.567588 4.722417,2.746053 6.09375,3.53125 0.685666,0.392599 1.203929,0.707354 1.5625,0.90625 0.179285,0.09945 0.333712,0.164565 0.4375,0.21875 0.05189,0.02709 0.08173,0.04229 0.125,0.0625 0.02164,0.01011 0.06039,0.01838 0.09375,0.03125 0.01668,0.0064 0.02919,0.02171 0.0625,0.03125 0.01665,0.0048 0.03302,-0.0056 0.0625,0 0.02948,0.0056 0.12431,0.03125 0.125,0.03125 0.431023,0 0.595239,-0.17905 0.8125,-0.34375 0.217261,-0.1647 0.450721,-0.382399 0.71875,-0.65625 0.536058,-0.547703 1.216151,-1.32824 2.0625,-2.375 1.558785,-1.927967 2.582018,-3.24743 3.25,-4.21875 0.64928,0.0581 1.2644,0.09375 1.65625,0.09375 0.39042,0 0.97918,-0.03608 1.625,-0.09375 0.66798,0.97132 1.69122,2.290783 3.25,4.21875 0.84635,1.046758 1.52646,1.827301 2.0625,2.375 0.26802,0.273849 0.50151,0.491552 0.71875,0.65625 0.21724,0.164698 0.38143,0.34375 0.8125,0.34375 6.9e-4,0 0.0955,-0.02569 0.125,-0.03125 0.0295,-0.0056 0.0458,0.0048 0.0625,0 0.0333,-0.0095 0.0458,-0.02481 0.0625,-0.03125 0.0334,-0.01288 0.0721,-0.02114 0.0937,-0.03125 0.0433,-0.02022 0.0731,-0.0354 0.125,-0.0625 0.10381,-0.05419 0.2582,-0.1193 0.4375,-0.21875 0.3586,-0.1989 0.87682,-0.51365 1.5625,-0.90625 1.37135,-0.7852 3.40016,-1.963661 6.09375,-3.53125 l 0.0312,0 0.0312,-0.03125 c 0.29599,-0.222062 0.53125,-0.621398 0.53125,-1.03125 0,-0.789815 -0.30262,-1.794944 -0.875,-3.34375 C 118.3667,39.258766 117.53459,37.307241 116.5,35 c 0.63757,-0.922931 1.16217,-1.889896 1.625,-2.875 3.07586,-0.31736 5.51187,-0.633131 7.125,-0.96875 0.84572,-0.175956 1.47933,-0.355566 1.96875,-0.5625 0.24471,-0.103467 0.46512,-0.212086 0.65625,-0.375 0.19113,-0.162914 0.40625,-0.421345 0.40625,-0.78125 l 0,-9.28125 c 0,-0.359904 -0.21511,-0.618335 -0.40625,-0.78125 -0.19114,-0.162915 -0.41154,-0.271532 -0.65625,-0.375 -0.48942,-0.206936 -1.12303,-0.386544 -1.96875,-0.5625 -1.61313,-0.33562 -4.04914,-0.651393 -7.125,-0.96875 -0.48604,-1.030834 -1.01786,-1.978305 -1.625,-2.84375 1.03501,-2.30809 1.86655,-4.289625 2.40625,-5.75 0.57238,-1.5488059 0.875,-2.5539346 0.875,-3.34375 0,-0.4098495 -0.23525,-0.8091851 -0.53125,-1.03125 l -0.0312,-0.03125 -0.0312,0 c -2.65023,-1.5459429 -4.6571,-2.7242868 -6.03125,-3.5 -0.68707,-0.38785662 -1.2192,-0.67637901 -1.59375,-0.875 -0.18728,-0.09931049 -0.34903,-0.16212847 -0.46875,-0.21875 -0.0599,-0.0283108 -0.0991,-0.0715215 -0.15625,-0.09375 -0.0572,-0.0222285 -0.0463,-0.0625 -0.3125,-0.0625 l -0.125,0 -0.0937,0.0625 -0.40625,0.125 -0.15625,0.03125 -0.125,0.125 c -1.77394,1.7739066 -3.75079,4.2148338 -5.90625,7.1875 -0.66354,-0.059856 -1.25836,-0.09375 -1.65625,-0.09375 -0.39184,0 -1.00697,0.03566 -1.65625,0.09375 C 99.830756,6.2784804 98.808625,4.9697546 97.25,3.0625 96.403585,2.0267992 95.723718,1.2607855 95.1875,0.71875 94.919391,0.44773225 94.686054,0.2254793 94.46875,0.0625 94.251446,-0.1004793 94.083625,-0.28125 93.65625,-0.28125 z M 93.625,1.1875 c 0.008,-0.00404 0.0237,0.00379 0.03125,0 0.125163,0.095525 0.299111,0.2653418 0.53125,0.5 0.479149,0.4843478 1.137565,1.2329342 1.96875,2.25 1.671513,2.0453929 2.818127,3.5552589 3.40625,4.4375 l 0.25,0.34375 0.40625,-0.03125 c 0.87144,-0.087138 1.54277,-0.15625 1.9375,-0.15625 0.3948,0 1.03481,0.069112 1.90625,0.15625 l 0.40625,0.03125 0.21875,-0.34375 c 2.19527,-3.0561877 4.16053,-5.4259864 5.90625,-7.1875 0.007,0.00321 0.0244,-0.00341 0.0312,0 0.08,0.039889 0.15788,0.09083 0.28125,0.15625 0.35387,0.1876515 0.88104,0.4590616 1.5625,0.84375 1.34081,0.7568941 3.32233,1.8994005 5.90625,3.40625 -0.0111,0.3398853 -0.24064,1.3496631 -0.78125,2.8125 -0.55332,1.4972374 -1.37828,3.483344 -2.5,5.96875 l -0.1875,0.375 0.25,0.34375 c 0.71763,0.970828 1.35079,2.073192 1.90625,3.3125 l 0.15625,0.375 0.40625,0.03125 c 3.27649,0.329848 5.74636,0.667656 7.34375,1 0.7987,0.166172 1.38596,0.328038 1.71875,0.46875 0.10831,0.0458 0.14068,0.06492 0.1875,0.09375 l 0,8.84375 c -0.0468,0.02883 -0.0792,0.04795 -0.1875,0.09375 -0.33279,0.140711 -0.92005,0.302578 -1.71875,0.46875 -1.59739,0.332344 -4.06726,0.670149 -7.34375,1 l -0.40625,0.0625 -0.15625,0.34375 c -0.50947,1.146477 -1.13832,2.277236 -1.90625,3.34375 l -0.25,0.3125 0.1875,0.375 c 1.12172,2.485406 1.94668,4.471513 2.5,5.96875 0.54061,1.462837 0.77011,2.472615 0.78125,2.8125 -2.62823,1.529351 -4.65614,2.66804 -6,3.4375 -0.68286,0.390985 -1.18348,0.682108 -1.53125,0.875 -0.0949,0.05265 -0.14973,0.0876 -0.21875,0.125 -0.12524,-0.09803 -0.30565,-0.238242 -0.53125,-0.46875 -0.4793,-0.489725 -1.1375,-1.253162 -1.96875,-2.28125 -1.67191,-2.067884 -2.8167,-3.584375 -3.40625,-4.46875 l -0.25,-0.34375 -0.40625,0.03125 c -0.87144,0.08715 -1.51145,0.15625 -1.90625,0.15625 -0.39472,0 -1.06606,-0.0691 -1.9375,-0.15625 l -0.4062,-0.03125 -0.25,0.34375 c -0.589546,0.884375 -1.734341,2.400866 -3.40625,4.46875 -0.831251,1.028087 -1.489441,1.791529 -1.96875,2.28125 -0.225606,0.230506 -0.406,0.370723 -0.53125,0.46875 -0.06901,-0.0374 -0.123835,-0.07235 -0.21875,-0.125 -0.347754,-0.192896 -0.8484,-0.484014 -1.53125,-0.875 -1.343852,-0.769463 -3.371737,-1.908149 -6,-3.4375 0.01114,-0.339885 0.240642,-1.349663 0.78125,-2.8125 0.553321,-1.497237 1.409531,-3.483344 2.53125,-5.96875 l 0.15625,-0.375 -0.25,-0.3125 C 88.35706,33.464728 87.728289,32.333989 87.21875,31.1875 l -0.15625,-0.34375 -0.40625,-0.0625 c -3.27649,-0.329851 -5.746361,-0.667656 -7.34375,-1 -0.798695,-0.166172 -1.385957,-0.328039 -1.71875,-0.46875 -0.108315,-0.0458 -0.140685,-0.06492 -0.1875,-0.09375 l 0,-8.84375 c 0.04681,-0.02883 0.07919,-0.04795 0.1875,-0.09375 0.332792,-0.140712 0.920056,-0.302578 1.71875,-0.46875 1.597389,-0.332344 4.06726,-0.670152 7.34375,-1 l 0.40625,-0.03125 0.15625,-0.375 c 0.555602,-1.239336 1.188672,-2.34165 1.90625,-3.3125 L 89.375,14.75 89.21875,14.375 C 88.097031,11.889594 87.240821,9.9034874 86.6875,8.40625 86.152461,6.9584837 85.92213,5.9757139 85.90625,5.625 86.214916,5.4651501 86.825655,5.0981968 88.125,4.34375 89.492205,3.5498629 90.796682,2.7991888 92.03125,2.09375 92.646167,1.7423705 93.117812,1.4830023 93.4375,1.3125 93.52913,1.26363 93.559704,1.22056 93.625,1.1875 z M 36.65625,15.625 c -0.629413,0 -1.220127,0.188599 -1.6875,0.5625 C 34.501377,16.561401 34.183361,17.090082 34,17.71875 L 34,17.75 c -0.528576,2.026232 -1.030703,5.384898 -1.5,9.875 -1.578659,0.535744 -3.033604,1.14666 -4.34375,1.8125 l -7.28125,-5.71875 -0.03125,0 0,-0.03125 c -0.540239,-0.378163 -1.178413,-0.59375 -1.8125,-0.59375 -0.781663,0 -1.428764,0.441655 -2.34375,1.125 -0.914986,0.683345 -2.037464,1.684757 -3.375,3 -2.64606,2.601952 -4.4443908,4.546204 -5.46875,5.9375 -0.00292,0.004 0.0029,0.0273 0,0.03125 -0.00268,0.0036 -0.028586,-0.0036 -0.03125,0 -0.4056349,0.479719 -0.59375,1.098195 -0.59375,1.75 0,0.578786 0.2070652,1.128943 0.5625,1.6875 l 0.03125,0.03125 0.03125,0.0625 c 2.372609,2.838656 4.222535,5.231946 5.6875,7.28125 -0.755665,1.518677 -1.365118,2.93432 -1.8125,4.28125 L 1.875,49.8125 l -0.03125,0 c -0.6009427,0.08154 -1.12210928,0.455893 -1.5,0.96875 -0.37859473,0.513818 -0.625,1.082716 -0.625,1.6875 l 0,12.25 c 0,0.63409 0.22178163,1.260376 0.625,1.75 0.39834379,0.483724 0.9525763,0.806022 1.5625,0.875 0.00933,0.0011 0.021897,-9.35e-4 0.03125,0 l 9.65625,1.53125 c 0.491629,1.470285 1.163685,3.042972 2,4.6875 -0.68979,0.936935 -1.586116,2.136564 -2.84375,3.71875 -1.3710869,1.724918 -2.2883871,2.884993 -2.75,3.53125 -0.3656003,0.522286 -0.59375,1.077459 -0.59375,1.65625 0,0.609094 0.2909902,1.083052 0.71875,1.71875 0.4277598,0.635698 1.0360318,1.415036 1.84375,2.3125 1.615436,1.794929 4.031595,4.150057 7.21875,7.09375 l 0.03125,0.03125 c 0.539221,0.431381 1.157202,0.6875 1.8125,0.6875 0.663906,0 1.261559,-0.242178 1.71875,-0.65625 l 0.03125,0.03125 0.0625,-0.0625 7.4375,-5.5625 c 1.500849,0.744996 2.912632,1.305518 4.21875,1.71875 L 33.96875,99.5 c 0.0014,0.01442 0.02952,0.01689 0.03125,0.03125 0.07409,0.61412 0.381497,1.18248 0.875,1.59375 0.505063,0.42087 1.136566,0.65625 1.78125,0.65625 l 12.3125,0 c 0.629412,0 1.220128,-0.1886 1.6875,-0.5625 0.467372,-0.3739 0.785392,-0.90259 0.96875,-1.53125 l 0,-0.03125 c 0.527298,-2.065231 1.030575,-5.444167 1.5,-9.9375 1.504207,-0.47657 2.965616,-1.051288 4.375,-1.75 l 7.25,5.71875 0.03125,0 0,0.03125 c 0.540237,0.378177 1.178416,0.59375 1.8125,0.59375 0.784734,0 1.434058,-0.43549 2.34375,-1.125 0.909692,-0.68951 2.017248,-1.704748 3.34375,-3.03125 2.607834,-2.60784 4.406887,-4.56118 5.46875,-5.9375 0.01162,-0.01506 0.05106,-0.04758 0.0625,-0.0625 L 77.78125,84.125 c 0.403413,-0.444885 0.625,-1.025577 0.625,-1.65625 0,-0.604785 -0.221875,-1.187493 -0.59375,-1.71875 l 0,-0.03125 -0.03125,-0.03125 c -2.361549,-2.825423 -4.225131,-5.206553 -5.6875,-7.25 0.762264,-1.529179 1.362355,-2.957223 1.8125,-4.3125 L 83.75,67.59375 c 0.01474,-0.0016 0.0166,-0.02926 0.03125,-0.03125 0.600827,-0.08163 1.122182,-0.42471 1.5,-0.9375 0.378657,-0.513808 0.59375,-1.082687 0.59375,-1.6875 l 0,-12.25 c 0,-0.634104 -0.190476,-1.260383 -0.59375,-1.75 C 84.88539,50.45678 84.347661,50.119527 83.75,50 l -0.03125,0 -9.6875,-1.46875 c -0.458448,-1.352213 -1.098465,-2.905198 -1.9375,-4.6875 0.644529,-0.927734 1.495575,-2.106885 2.71875,-3.65625 1.325847,-1.679408 2.243099,-2.876227 2.78125,-3.59375 l 0.03125,0 c 0.365587,-0.522282 0.59375,-1.077464 0.59375,-1.65625 0,-0.609094 -0.29099,-1.083052 -0.71875,-1.71875 -0.42776,-0.635698 -1.036032,-1.415036 -1.84375,-2.3125 -1.615435,-1.794927 -4.031598,-4.150064 -7.21875,-7.09375 l -0.03125,-0.03125 c -0.539222,-0.431383 -1.157197,-0.6875 -1.8125,-0.6875 -0.651775,0 -1.270285,0.2194 -1.75,0.625 -0.01036,0.0088 -0.02102,0.0223 -0.03125,0.03125 l -7.46875,5.625 c -1.527932,-0.760428 -2.92343,-1.3639 -4.25,-1.78125 l -1.4375,-9.6875 c -9.26e-4,-0.0093 10e-4,-0.02202 0,-0.03125 l -0.03125,0 C 51.550926,17.260871 51.24352,16.692516 50.75,16.28125 50.244946,15.860366 49.613442,15.625 48.96875,15.625 l -12.3125,0 z m 65.5,0 c -2.46605,0 -4.67833,0.928323 -6.46875,2.71875 -1.790424,1.790409 -2.71875,4.002664 -2.71875,6.46875 0,2.504815 0.915438,4.696702 2.6875,6.46875 1.772058,1.772051 3.995235,2.6875 6.5,2.6875 2.50483,0 4.69669,-0.915446 6.46875,-2.6875 1.77199,-1.77205 2.6875,-3.963942 2.6875,-6.46875 0,-2.466079 -0.9284,-4.678338 -2.71875,-6.46875 -1.79042,-1.790431 -3.97139,-2.71875 -6.4375,-2.71875 z m -65.5,1.40625 12.3125,0 c 0.326508,0 0.585441,0.0712 0.875,0.3125 0.289566,0.241304 0.381073,0.46695 0.40625,0.71875 l 0,0.03125 1.53125,10.125 0.0625,0.4375 0.4375,0.125 c 1.446761,0.425525 3.063534,1.088185 4.84375,2 L 57.53125,31 57.875,30.71875 65.6875,24.8125 65.71875,24.78125 C 65.941383,24.586451 66.20012,24.5 66.59375,24.5 c 0.303202,0 0.580139,0.09315 0.90625,0.34375 0.01406,0.01298 0.01722,0.01829 0.03125,0.03125 3.148719,2.909512 5.506386,5.239735 7.0625,6.96875 0.781522,0.868358 1.38314,1.611054 1.75,2.15625 0.36686,0.545196 0.46875,0.950627 0.46875,0.9375 0,0.215827 -0.09131,0.483112 -0.34375,0.84375 l 0.03125,0 c -0.521356,0.69513 -1.458363,1.886841 -2.78125,3.5625 -1.329911,1.684565 -2.321129,3.00433 -3,4 l -0.25,0.34375 0.1875,0.34375 c 1.006307,2.100121 1.747429,3.886953 2.21875,5.34375 l 0.125,0.40625 0.4375,0.0625 10.03125,1.53125 0.03125,0 c 0.272471,0.05951 0.472136,0.207219 0.6875,0.46875 0.21486,0.260863 0.3125,0.506667 0.3125,0.84375 l 0,12.25 c 0,0.278094 -0.104273,0.550048 -0.34375,0.875 -0.230972,0.313484 -0.387191,0.386768 -0.5625,0.40625 l -0.03125,0 L 73.28125,67.8125 72.875,67.875 72.75,68.28125 c -0.470832,1.498131 -1.180927,3.155329 -2.09375,4.9375 l -0.1875,0.375 0.25,0.34375 c 1.506257,2.126475 3.512768,4.653085 5.96875,7.59375 L 76.65625,81.5625 C 76.902401,81.914149 77,82.190628 77,82.46875 77,82.862388 76.9176,83.082394 76.75,83.25 l -0.03125,0.03125 -0.03125,0.03125 c -0.973977,1.270391 -2.789295,3.226788 -5.40625,5.84375 -1.300158,1.300158 -2.364475,2.28243 -3.1875,2.90625 -0.823025,0.62382 -1.445961,0.84375 -1.5,0.84375 -0.324443,0 -0.641273,-0.09189 -0.96875,-0.3125 L 65.59375,92.5625 58,86.625 57.65625,86.34375 57.25,86.5625 c -1.595465,0.819303 -3.243427,1.482409 -4.96875,2 l -0.4375,0.125 -0.0625,0.46875 c -0.484044,4.752376 -0.989357,8.156251 -1.5,10.15625 -0.125656,0.430825 -0.305192,0.656654 -0.5,0.8125 -0.194808,0.15585 -0.426565,0.25 -0.8125,0.25 l -12.3125,0 c -0.326502,0 -0.585423,-0.0712 -0.875,-0.3125 -0.289557,-0.241305 -0.381064,-0.466935 -0.40625,-0.71875 l -0.03125,-0.03125 -1.5,-10.125 -0.0625,-0.4375 -0.4375,-0.125 C 31.896989,88.199475 30.28023,87.536815 28.5,86.625 L 28.09375,86.40625 27.75,86.6875 l -7.8125,5.875 -0.03125,0.03125 -0.03125,0.0625 c -0.155815,0.155819 -0.395501,0.25 -0.84375,0.25 -0.303193,0 -0.580138,-0.09315 -0.90625,-0.34375 -0.01406,-0.01298 -0.01722,-0.01829 -0.03125,-0.03125 -3.148723,-2.909519 -5.506384,-5.239733 -7.0625,-6.96875 -0.781523,-0.868359 -1.383139,-1.611055 -1.75,-2.15625 -0.366861,-0.545195 -0.46875,-0.950631 -0.46875,-0.9375 0,-0.215809 0.091297,-0.483103 0.34375,-0.84375 0.4212937,-0.58981 1.321561,-1.750308 2.6875,-3.46875 1.371906,-1.725948 2.407912,-3.076519 3.125,-4.0625 l 0.25,-0.375 -0.1875,-0.375 C 14.031063,71.43037 13.26443,69.660301 12.75,68.03125 L 12.625,67.625 12.1875,67.53125 2.125,65.96875 l -0.03125,0 0,-0.03125 C 1.8316033,65.911293 1.6510895,65.82187 1.4375,65.5625 1.2226784,65.301644 1.125,65.055873 1.125,64.71875 l 0,-12.25 c 0,-0.278109 0.1043047,-0.550032 0.34375,-0.875 0.2309825,-0.31348 0.3871809,-0.38677 0.5625,-0.40625 l 0.03125,0 10.25,-1.59375 0.4375,-0.0625 0.125,-0.40625 c 0.470846,-1.498134 1.180933,-3.155328 2.09375,-4.9375 l 0.1875,-0.375 -0.25,-0.34375 C 13.403005,41.346519 11.417931,38.80816 8.96875,35.875 8.7061581,35.462344 8.625,35.153327 8.625,34.9375 c 0,-0.393638 0.086456,-0.652377 0.28125,-0.875 L 8.9375,34.03125 c 0.9211494,-1.256122 2.738055,-3.219512 5.375,-5.8125 1.311197,-1.289344 2.389989,-2.256051 3.21875,-2.875 0.828761,-0.618949 1.442903,-0.84375 1.5,-0.84375 0.324466,0 0.641275,0.0919 0.96875,0.3125 l 0.03125,0.03125 7.59375,5.9375 0.34375,0.28125 0.40625,-0.21875 c 1.459431,-0.772638 3.102828,-1.454993 4.96875,-2.0625 l 0.4375,-0.15625 0.0625,-0.4375 c 0.484022,-4.75216 0.990848,-8.141977 1.5,-10.09375 0.125659,-0.430832 0.30519,-0.656651 0.5,-0.8125 0.19481,-0.155849 0.426567,-0.25 0.8125,-0.25 z m 65.5,0 c 2.12509,0 3.87286,0.747851 5.4375,2.3125 1.56458,1.564628 2.3125,3.343683 2.3125,5.46875 0,2.174632 -0.74244,3.929893 -2.28125,5.46875 -1.53887,1.538866 -3.29411,2.28125 -5.46875,2.28125 -2.17457,0 -3.961125,-0.742381 -5.5,-2.28125 C 95.117378,28.742391 94.375,26.987125 94.375,24.8125 c 0,-2.125061 0.747857,-3.904119 2.3125,-5.46875 1.564646,-1.564653 3.34373,-2.3125 5.46875,-2.3125 z M 42.8125,41.0625 c -4.844521,0 -9.041236,1.72875 -12.46875,5.15625 -3.427514,3.427514 -5.1875,7.624222 -5.1875,12.46875 0,4.844528 1.759985,9.072499 5.1875,12.5 3.427514,3.427514 7.624229,5.15625 12.46875,5.15625 4.844528,0 9.041236,-1.728736 12.46875,-5.15625 3.427501,-3.427501 5.1875,-7.655473 5.1875,-12.5 0,-4.844527 -1.76,-9.041236 -5.1875,-12.46875 C 51.853736,42.79125 47.657027,41.0625 42.8125,41.0625 z m 0,1.375 c 4.51434,0 8.305674,1.586937 11.5,4.78125 3.194313,3.194326 4.75,6.95441 4.75,11.46875 0,4.51434 -1.555688,8.305688 -4.75,11.5 -3.194326,3.194326 -6.985661,4.78125 -11.5,4.78125 -4.514332,0 -8.305674,-1.586924 -11.5,-4.78125 -3.194325,-3.194312 -4.75,-6.985661 -4.75,-11.5 0,-4.514339 1.555674,-8.274424 4.75,-11.46875 3.194326,-3.194313 6.985667,-4.78125 11.5,-4.78125 z m 50.84375,25.09375 c -0.244431,0 -0.255902,0.04094 -0.3125,0.0625 -0.0566,0.02156 -0.09978,0.03593 -0.15625,0.0625 -0.112939,0.05315 -0.235011,0.12742 -0.40625,0.21875 -0.342479,0.182659 -0.816351,0.457556 -1.4375,0.8125 -1.2377,0.707222 -2.567771,1.454647 -3.9375,2.25 -1.366962,0.793708 -2.177783,1.276394 -2.25,1.3125 l -0.0625,0.03125 -0.0625,0.03125 C 84.735242,72.534562 84.5,72.933903 84.5,73.34375 c 0,0.789815 0.302621,1.794946 0.875,3.34375 0.539554,1.459982 1.371656,3.411512 2.40625,5.71875 -0.613113,0.871185 -1.134862,1.835682 -1.625,2.875 -3.07586,0.317357 -5.511869,0.63313 -7.125,0.96875 -0.845721,0.175956 -1.479335,0.355564 -1.96875,0.5625 -0.244708,0.103468 -0.465115,0.212085 -0.65625,0.375 C 76.215115,87.350415 76,87.608847 76,87.96875 L 76,97.25 c 0,0.359903 0.215115,0.618335 0.40625,0.78125 0.191135,0.162915 0.411542,0.271532 0.65625,0.375 0.489415,0.206936 1.123029,0.386544 1.96875,0.5625 1.613131,0.33562 4.04914,0.651393 7.125,0.96875 0.45908,0.97703 0.994059,1.92787 1.625,2.84375 -1.035005,2.30809 -1.866552,4.28962 -2.40625,5.75 -0.572379,1.54881 -0.875,2.55393 -0.875,3.34375 0,0.40985 0.235229,0.8092 0.53125,1.03125 l 0.03125,0.0312 0.03125,0 c 2.693618,1.56759 4.722417,2.74605 6.09375,3.53125 0.685666,0.3926 1.203929,0.6761 1.5625,0.875 0.179285,0.0995 0.333712,0.19582 0.4375,0.25 0.05189,0.0271 0.08173,0.0423 0.125,0.0625 0.02164,0.0101 0.06039,0.0184 0.09375,0.0312 0.01668,0.006 0.02919,0.0217 0.0625,0.0312 0.01665,0.005 0.03302,-0.006 0.0625,0 0.02948,0.006 0.12431,0.0312 0.125,0.0312 0.431023,0 0.595239,-0.17905 0.8125,-0.34375 0.217261,-0.1647 0.450721,-0.3824 0.71875,-0.65625 0.536058,-0.5477 1.216151,-1.32824 2.0625,-2.375 1.558784,-1.92798 2.582021,-3.24745 3.25,-4.21875 0.64928,0.0581 1.26441,0.0937 1.65625,0.0937 0.39041,0 0.97919,-0.0361 1.625,-0.0937 0.66798,0.9713 1.69122,2.29077 3.25,4.21875 0.84635,1.04676 1.52646,1.8273 2.0625,2.375 0.26802,0.27385 0.50151,0.49155 0.71875,0.65625 0.21724,0.1647 0.38143,0.34375 0.8125,0.34375 6.9e-4,0 0.0955,-0.0257 0.125,-0.0312 0.0295,-0.006 0.0458,0.005 0.0625,0 0.0333,-0.01 0.0458,-0.0248 0.0625,-0.0312 0.0334,-0.0129 0.0721,-0.0211 0.0937,-0.0312 0.0433,-0.0202 0.0731,-0.0354 0.125,-0.0625 0.10381,-0.0542 0.2582,-0.15055 0.4375,-0.25 0.3586,-0.1989 0.87682,-0.4824 1.5625,-0.875 1.37135,-0.7852 3.40016,-1.96366 6.09375,-3.53125 l 0.0312,0 0.0312,-0.0312 c 0.29602,-0.22205 0.53125,-0.6214 0.53125,-1.03125 0,-0.78982 -0.30262,-1.79494 -0.875,-3.34375 -0.5397,-1.46038 -1.37124,-3.44191 -2.40625,-5.75 0.63094,-0.91589 1.16597,-1.86671 1.625,-2.84375 3.07586,-0.317357 5.51187,-0.63313 7.125,-0.96875 0.84572,-0.175956 1.47933,-0.355564 1.96875,-0.5625 0.24471,-0.103468 0.46511,-0.212085 0.65625,-0.375 0.19114,-0.162915 0.40625,-0.421346 0.40625,-0.78125 l 0,-9.28125 c 0,-0.359904 -0.21511,-0.618335 -0.40625,-0.78125 -0.19114,-0.162915 -0.41154,-0.271532 -0.65625,-0.375 -0.48942,-0.206936 -1.12303,-0.386544 -1.96875,-0.5625 -1.61313,-0.33562 -4.04914,-0.651393 -7.125,-0.96875 -0.49006,-1.039341 -1.01183,-2.003796 -1.625,-2.875 1.03459,-2.307238 1.8667,-4.258768 2.40625,-5.71875 0.57238,-1.548804 0.875,-2.553935 0.875,-3.34375 0,-0.409847 -0.23524,-0.809188 -0.53125,-1.03125 l -0.0312,-0.03125 -0.0312,0 c -2.65023,-1.545946 -4.6571,-2.724285 -6.03125,-3.5 -0.68707,-0.387857 -1.2192,-0.676379 -1.59375,-0.875 -0.18728,-0.09931 -0.34903,-0.162128 -0.46875,-0.21875 -0.0599,-0.02831 -0.0991,-0.07152 -0.15625,-0.09375 -0.0572,-0.02223 -0.0463,-0.0625 -0.3125,-0.0625 l -0.125,0 -0.0937,0.03125 L 110,67.71875 109.84375,67.75 l -0.125,0.125 c -1.77394,1.773907 -3.75079,4.214834 -5.90625,7.1875 -0.66354,-0.05986 -1.25835,-0.09375 -1.65625,-0.09375 -0.39184,0 -1.00697,0.03566 -1.65625,0.09375 C 99.830756,74.09098 98.808625,72.782255 97.25,70.875 96.403585,69.839296 95.723718,69.042037 95.1875,68.5 94.919391,68.228981 94.686054,68.03798 94.46875,67.875 94.251446,67.71202 94.083627,67.53125 93.65625,67.53125 z M 93.625,69 c 0.008,-0.004 0.0237,0.0038 0.03125,0 0.125163,0.09553 0.299111,0.265341 0.53125,0.5 0.479149,0.484349 1.137565,1.232931 1.96875,2.25 1.671513,2.045393 2.818127,3.555259 3.40625,4.4375 l 0.25,0.34375 0.40625,-0.0625 c 0.87144,-0.08714 1.54277,-0.125 1.9375,-0.125 0.3948,0 1.03481,0.03786 1.90625,0.125 l 0.40625,0.0625 0.21875,-0.34375 c 2.19527,-3.056188 4.16053,-5.425986 5.90625,-7.1875 0.007,0.0032 0.0244,-0.0034 0.0312,0 0.08,0.03989 0.15788,0.09083 0.28125,0.15625 0.35387,0.187652 0.88104,0.459061 1.5625,0.84375 1.34081,0.756896 3.32233,1.899397 5.90625,3.40625 -0.0111,0.339885 -0.24064,1.349665 -0.78125,2.8125 -0.55332,1.497236 -1.37828,3.483348 -2.5,5.96875 l -0.1875,0.375 0.25,0.34375 c 0.71763,0.970836 1.35079,2.073198 1.90625,3.3125 l 0.15625,0.34375 0.40625,0.0625 c 3.27649,0.329848 5.74636,0.667656 7.34375,1 0.7987,0.166172 1.38596,0.328038 1.71875,0.46875 0.10831,0.0458 0.14068,0.06492 0.1875,0.09375 l 0,8.84375 c -0.0468,0.02883 -0.0792,0.04795 -0.1875,0.09375 -0.33279,0.140712 -0.92005,0.302578 -1.71875,0.46875 -1.59739,0.332344 -4.06726,0.670152 -7.34375,1 L 117.21875,98.625 117.0625,99 c -0.50947,1.14648 -1.13831,2.27723 -1.90625,3.34375 l -0.25,0.3125 0.1875,0.375 c 1.12172,2.4854 1.94668,4.47151 2.5,5.96875 0.54061,1.46284 0.77011,2.47261 0.78125,2.8125 -2.62823,1.52935 -4.65614,2.66804 -6,3.4375 -0.68286,0.39099 -1.18348,0.68211 -1.53125,0.875 -0.0949,0.0526 -0.14973,0.0876 -0.21875,0.125 -0.12524,-0.098 -0.30565,-0.23824 -0.53125,-0.46875 -0.4793,-0.48972 -1.1375,-1.25316 -1.96875,-2.28125 -1.67191,-2.0679 -2.8167,-3.58439 -3.40625,-4.46875 l -0.25,-0.34375 -0.40625,0.0312 c -0.87144,0.0871 -1.51144,0.125 -1.90625,0.125 -0.39473,0 -1.06606,-0.0379 -1.9375,-0.125 l -0.40625,-0.0312 -0.25,0.34375 c -0.589549,0.88436 -1.73434,2.40085 -3.40625,4.46875 -0.831251,1.02809 -1.489441,1.79153 -1.96875,2.28125 -0.225606,0.23051 -0.406,0.37072 -0.53125,0.46875 -0.06901,-0.0374 -0.123835,-0.0724 -0.21875,-0.125 -0.347754,-0.1929 -0.8484,-0.48401 -1.53125,-0.875 -1.343852,-0.76946 -3.371737,-1.90815 -6,-3.4375 0.01114,-0.33989 0.240642,-1.34966 0.78125,-2.8125 0.553321,-1.49724 1.409531,-3.48335 2.53125,-5.96875 l 0.15625,-0.375 -0.25,-0.3125 C 88.357059,101.27722 87.728289,100.14649 87.21875,99 L 87.0625,98.625 86.65625,98.59375 c -3.27649,-0.329848 -5.746361,-0.667656 -7.34375,-1 -0.798694,-0.166172 -1.385958,-0.328038 -1.71875,-0.46875 -0.108314,-0.0458 -0.140685,-0.06492 -0.1875,-0.09375 l 0,-8.84375 c 0.04681,-0.02883 0.07919,-0.04795 0.1875,-0.09375 0.332792,-0.140712 0.920056,-0.302578 1.71875,-0.46875 1.597389,-0.332344 4.06726,-0.670152 7.34375,-1 l 0.40625,-0.0625 0.15625,-0.34375 c 0.555602,-1.23933 1.188671,-2.341642 1.90625,-3.3125 l 0.25,-0.34375 -0.15625,-0.375 c -1.121719,-2.485402 -1.977929,-4.471514 -2.53125,-5.96875 -0.535039,-1.447765 -0.76537,-2.430536 -0.78125,-2.78125 0.308623,-0.159838 0.919406,-0.526804 2.21875,-1.28125 1.367204,-0.793887 2.671683,-1.544568 3.90625,-2.25 0.614917,-0.351383 1.086562,-0.610746 1.40625,-0.78125 0.09163,-0.04887 0.122204,-0.09194 0.1875,-0.125 z m 8.53125,14.4375 c -2.46605,0 -4.67833,0.928323 -6.46875,2.71875 -1.790423,1.790416 -2.71875,3.97142 -2.71875,6.4375 0,2.504815 0.915438,4.727952 2.6875,6.5 1.772058,1.77204 3.995235,2.6875 6.5,2.6875 2.50483,0 4.69669,-0.91545 6.46875,-2.6875 1.77199,-1.77205 2.6875,-3.995192 2.6875,-6.5 0,-2.466073 -0.9284,-4.647082 -2.71875,-6.4375 -1.79042,-1.790431 -3.97139,-2.71875 -6.4375,-2.71875 z m 0,1.40625 c 2.12509,0 3.87286,0.747851 5.4375,2.3125 1.56458,1.564635 2.3125,3.31244 2.3125,5.4375 0,2.174632 -0.74244,3.961143 -2.28125,5.5 -1.53887,1.53886 -3.29411,2.28125 -5.46875,2.28125 -2.17457,0 -3.961125,-0.742387 -5.5,-2.28125 -1.538872,-1.538859 -2.28125,-3.325375 -2.28125,-5.5 0,-2.125053 0.747856,-3.872862 2.3125,-5.4375 1.564646,-1.564653 3.34373,-2.3125 5.46875,-2.3125 z"
     id="path4"
     inkscape:connector-curvature="0" />
</svg>
