<svg xmlns="http://www.w3.org/2000/svg" width="128" height="117.471" viewBox="0 0 127.99997 117.47135"><path style="text-indent:0;text-align:start;line-height:normal;text-transform:none;block-progression:tb;marker:none;-inkscape-font-specification:Sans" d="M93.656-.281c-.244 0-.256.04-.312.062-.057.022-.1.067-.156.094-.113.053-.236.096-.407.188-.342.182-.816.457-1.437.812-1.238.707-2.568 1.455-3.938 2.25-1.367.794-2.178 1.276-2.25 1.313l-.062.03-.063.032c-.296.222-.531.621-.531 1.031 0 .79.303 1.795.875 3.344.54 1.46 1.371 3.442 2.406 5.75a19.142 19.142 0 0 0-1.625 2.844c-3.076.317-5.512.633-7.125.968-.845.176-1.48.356-1.969.563-.244.103-.465.212-.656.375-.19.163-.406.421-.406.781v9.282c0 .36.215.618.406.78.191.164.412.272.656.376.49.207 1.124.386 1.97.562 1.612.336 4.048.652 7.124.969A20.01 20.01 0 0 0 87.781 35c-1.034 2.307-1.866 4.259-2.406 5.719-.572 1.549-.875 2.554-.875 3.343 0 .41.235.81.531 1.032l.031.031h.032a1152.06 1152.06 0 0 0 6.094 3.531c.685.393 1.203.708 1.562.907.18.099.334.164.438.218.051.027.081.043.124.063.022.01.06.018.094.031.017.006.03.022.063.031.016.005.033-.005.062 0 .03.006.125.032.125.032.431 0 .595-.18.813-.344.217-.165.45-.383.719-.657.536-.547 1.216-1.328 2.062-2.374 1.559-1.928 2.582-3.248 3.25-4.22.65.059 1.264.094 1.656.094.39 0 .98-.036 1.625-.093.668.971 1.691 2.29 3.25 4.218.847 1.047 1.527 1.828 2.063 2.376.268.273.501.491.719.656.217.164.38.343.812.343 0 0 .096-.025.125-.03.03-.006.046.004.063 0 .033-.01.045-.026.062-.032.033-.013.072-.021.094-.031.043-.02.073-.036.125-.063.104-.054.258-.119.437-.218.359-.2.877-.514 1.563-.907 1.371-.785 3.4-1.963 6.093-3.531h.032l.03-.031c.297-.222.532-.622.532-1.032 0-.79-.303-1.794-.875-3.343-.54-1.46-1.371-3.412-2.406-5.719a19.93 19.93 0 0 0 1.625-2.875c3.076-.317 5.512-.633 7.125-.969.846-.176 1.48-.355 1.969-.562.244-.104.465-.212.656-.375s.406-.422.406-.782v-9.28c0-.36-.215-.62-.406-.782-.191-.163-.412-.272-.656-.375-.49-.207-1.123-.387-1.969-.563-1.613-.335-4.05-.65-7.125-.968a19.13 19.13 0 0 0-1.625-2.844c1.035-2.308 1.867-4.29 2.406-5.75.573-1.549.875-2.554.875-3.344 0-.41-.235-.809-.531-1.031l-.031-.031h-.031c-2.65-1.546-4.657-2.725-6.032-3.5a69.585 69.585 0 0 0-1.593-.875c-.188-.1-.35-.162-.47-.219-.06-.028-.098-.072-.155-.094-.058-.022-.047-.062-.313-.062h-.125l-.094.062-.406.125-.156.032-.125.124c-1.774 1.774-3.75 4.215-5.906 7.188a20.206 20.206 0 0 0-1.657-.094 20.9 20.9 0 0 0-1.656.094c-.67-.972-1.691-2.28-3.25-4.188-.846-1.035-1.526-1.801-2.063-2.343a6.894 6.894 0 0 0-.718-.656c-.218-.163-.385-.344-.813-.344zm-.031 1.469c.008-.005.024.003.031 0 .125.095.3.265.531.5.48.484 1.138 1.232 1.97 2.25 1.67 2.045 2.817 3.555 3.406 4.437l.25.344.406-.031c.871-.088 1.543-.157 1.937-.157.395 0 1.035.07 1.906.156l.407.032.219-.344c2.195-3.056 4.16-5.426 5.906-7.188.007.004.024-.003.031 0 .08.04.158.091.281.157.354.187.881.459 1.563.843 1.34.757 3.322 1.9 5.906 3.407-.011.34-.24 1.35-.781 2.812-.554 1.497-1.379 3.484-2.5 5.969l-.188.375.25.344c.718.97 1.351 2.073 1.906 3.312l.157.375.406.032c3.276.33 5.746.667 7.344 1 .798.166 1.386.328 1.718.468.109.046.141.065.188.094v8.844a1.1 1.1 0 0 1-.188.093c-.332.141-.92.303-1.718.47-1.598.332-4.068.67-7.344 1l-.406.062-.157.343a18.742 18.742 0 0 1-1.906 3.344l-.25.313.188.375c1.121 2.485 1.946 4.471 2.5 5.968.54 1.463.77 2.473.781 2.813-2.628 1.53-4.656 2.668-6 3.438-.683.39-1.184.682-1.531.874-.095.053-.15.088-.219.126-.125-.099-.306-.239-.531-.47-.48-.489-1.138-1.252-1.969-2.28-1.672-2.068-2.817-3.585-3.406-4.47l-.25-.343-.407.031c-.871.087-1.511.157-1.906.157s-1.066-.07-1.937-.157l-.406-.031-.25.344c-.59.884-1.735 2.4-3.407 4.468-.831 1.029-1.49 1.792-1.969 2.282-.225.23-.405.37-.53.468-.07-.037-.125-.072-.22-.124-.347-.193-.848-.485-1.53-.876-1.345-.769-3.372-1.908-6-3.437.01-.34.24-1.35.78-2.813.554-1.497 1.41-3.483 2.532-5.968l.156-.375-.25-.313a18.746 18.746 0 0 1-1.906-3.343l-.156-.344-.407-.063c-3.276-.33-5.746-.667-7.344-1-.798-.166-1.385-.328-1.718-.468a1.131 1.131 0 0 1-.188-.094v-8.844c.047-.029.08-.048.188-.094.333-.14.92-.302 1.719-.468 1.597-.333 4.067-.67 7.343-1l.406-.032.157-.375a17.707 17.707 0 0 1 1.906-3.312l.25-.344-.156-.375c-1.122-2.485-1.978-4.472-2.531-5.969-.536-1.448-.766-2.43-.782-2.781.309-.16.92-.527 2.219-1.281a648.302 648.302 0 0 1 3.906-2.25 54.643 54.643 0 0 1 1.406-.781c.092-.05.123-.092.188-.125zM36.656 15.624c-.63 0-1.22.189-1.687.563-.468.373-.786.902-.969 1.53v.032c-.529 2.026-1.03 5.385-1.5 9.875a33.055 33.055 0 0 0-4.344 1.813l-7.281-5.72h-.031v-.03a3.193 3.193 0 0 0-1.813-.594c-.781 0-1.429.441-2.343 1.125-.915.683-2.038 1.685-3.375 3-2.647 2.602-4.445 4.546-5.47 5.937-.002.004.004.028 0 .032-.002.003-.028-.004-.03 0-.406.48-.594 1.098-.594 1.75 0 .578.207 1.128.562 1.687l.032.031.03.063c2.373 2.838 4.223 5.232 5.688 7.281-.755 1.519-1.365 2.934-1.812 4.281l-9.844 1.532h-.031c-.601.081-1.122.455-1.5.968-.379.514-.625 1.083-.625 1.688v12.25c0 .634.222 1.26.625 1.75.398.483.952.806 1.562.875h.032l9.656 1.531c.491 1.47 1.163 3.043 2 4.688a121.26 121.26 0 0 1-2.844 3.718C9.379 79.006 8.462 80.166 8 80.812c-.366.523-.594 1.078-.594 1.657 0 .609.291 1.083.719 1.719.428.635 1.036 1.415 1.844 2.312 1.615 1.795 4.031 4.15 7.219 7.094l.03.031c.54.431 1.158.688 1.813.688.664 0 1.262-.243 1.719-.657l.031.031.063-.062 7.437-5.563a29.56 29.56 0 0 0 4.219 1.72l1.469 9.718c.001.014.03.017.031.031.074.614.381 1.183.875 1.594.505.42 1.137.656 1.781.656H48.97c.63 0 1.22-.188 1.687-.562.468-.374.786-.903.969-1.531v-.032c.527-2.065 1.03-5.444 1.5-9.937a30.695 30.695 0 0 0 4.375-1.75l7.25 5.719h.031v.03c.54.379 1.179.594 1.813.594.784 0 1.434-.435 2.344-1.124.91-.69 2.017-1.705 3.343-3.032 2.608-2.608 4.407-4.56 5.469-5.937.012-.015.051-.048.063-.063l-.032-.031a2.44 2.44 0 0 0 .625-1.656c0-.605-.222-1.188-.594-1.719v-.031l-.03-.031c-2.362-2.826-4.226-5.207-5.688-7.25.762-1.53 1.362-2.958 1.812-4.313l9.844-1.531c.015-.002.017-.03.031-.031.601-.082 1.122-.425 1.5-.938.379-.514.594-1.083.594-1.688v-12.25c0-.634-.19-1.26-.594-1.75A2.677 2.677 0 0 0 83.75 50h-.031l-9.688-1.469c-.458-1.352-1.098-2.905-1.937-4.687a72.667 72.667 0 0 1 2.719-3.657 192.654 192.654 0 0 0 2.78-3.593h.032c.366-.523.594-1.078.594-1.657 0-.609-.291-1.083-.719-1.718-.428-.636-1.036-1.415-1.844-2.313-1.615-1.795-4.031-4.15-7.219-7.093l-.03-.032c-.54-.431-1.158-.687-1.813-.687a2.7 2.7 0 0 0-1.75.625l-.031.031-7.47 5.625c-1.527-.76-2.923-1.364-4.25-1.781l-1.437-9.688v-.031h-.031a2.455 2.455 0 0 0-.875-1.594 2.793 2.793 0 0 0-1.781-.656H36.656zm65.5 0c-2.466 0-4.678.928-6.469 2.719-1.79 1.79-2.718 4.002-2.718 6.468 0 2.505.915 4.697 2.687 6.47 1.772 1.771 3.995 2.687 6.5 2.687s4.697-.916 6.469-2.688c1.772-1.772 2.688-3.964 2.688-6.468 0-2.467-.929-4.679-2.72-6.47-1.79-1.79-3.97-2.718-6.437-2.718zm-65.5 1.406H48.97c.326 0 .585.071.875.313.29.241.38.467.406.718v.032l1.531 10.125.063.437.437.125c1.447.426 3.064 1.088 4.844 2l.406.219.344-.281 7.813-5.907.03-.03c.223-.196.482-.282.876-.282.303 0 .58.093.906.344l.031.031c3.149 2.91 5.507 5.24 7.063 6.969.781.868 1.383 1.61 1.75 2.156.367.545.469.95.469.938 0 .215-.092.483-.344.843h.031c-.521.695-1.458 1.887-2.781 3.563-1.33 1.684-2.321 3.004-3 4l-.25.343.187.344c1.007 2.1 1.748 3.887 2.219 5.344l.125.406.438.063 10.03 1.531h.032c.272.06.472.207.688.469.214.26.312.506.312.843v12.25c0 .279-.104.55-.344.876-.23.313-.387.386-.562.406h-.031L73.28 67.813l-.406.062-.125.406c-.47 1.498-1.18 3.156-2.094 4.938l-.187.375.25.344c1.506 2.126 3.513 4.653 5.969 7.593l-.032.031c.246.352.344.629.344.907 0 .393-.082.613-.25.781l-.031.031-.031.031c-.974 1.27-2.79 3.227-5.407 5.844-1.3 1.3-2.364 2.283-3.187 2.906-.823.624-1.446.844-1.5.844a1.69 1.69 0 0 1-.969-.312l-.031-.031L58 86.624l-.344-.281-.406.219a29.183 29.183 0 0 1-4.969 2l-.437.124-.063.47c-.484 4.752-.99 8.156-1.5 10.156-.125.43-.305.656-.5.812-.195.156-.426.25-.812.25H36.656c-.326 0-.585-.071-.875-.313-.29-.24-.38-.466-.406-.718l-.031-.031-1.5-10.126-.063-.437-.437-.125c-1.447-.426-3.064-1.088-4.844-2l-.406-.219-.344.281-7.813 5.876-.03.03-.032.063c-.156.156-.396.25-.844.25-.303 0-.58-.093-.906-.344-.014-.012-.017-.018-.031-.03-3.149-2.91-5.507-5.24-7.063-6.97-.781-.868-1.383-1.61-1.75-2.156-.367-.545-.469-.95-.469-.937 0-.216.092-.483.344-.844.422-.59 1.322-1.75 2.688-3.469 1.372-1.726 2.408-3.076 3.125-4.062l.25-.375-.188-.375c-1-1.914-1.767-3.684-2.281-5.313l-.125-.406-.438-.094-10.061-1.56h-.031v-.031c-.262-.027-.443-.116-.656-.376a1.227 1.227 0 0 1-.313-.843V52.47c0-.278.104-.55.344-.875.23-.314.387-.387.562-.407h.031l10.25-1.593.438-.063.125-.406c.47-1.498 1.18-3.155 2.094-4.938l.187-.374-.25-.344c-1.503-2.122-3.488-4.66-5.937-7.594-.263-.413-.344-.722-.344-.938 0-.393.086-.652.281-.874l.031-.032c.922-1.256 2.739-3.22 5.376-5.812 1.31-1.29 2.39-2.256 3.218-2.875.829-.62 1.443-.844 1.5-.844.325 0 .642.092.969.313l.031.03 7.594 5.938.344.282.406-.22c1.46-.772 3.103-1.454 4.969-2.062l.437-.156.063-.438c.484-4.752.99-8.141 1.5-10.093.125-.431.305-.657.5-.813.195-.156.426-.25.812-.25zm65.5 0c2.125 0 3.873.748 5.438 2.313 1.564 1.564 2.312 3.343 2.312 5.468 0 2.175-.742 3.93-2.281 5.47-1.539 1.538-3.294 2.28-5.469 2.28-2.174 0-3.96-.742-5.5-2.28-1.539-1.54-2.281-3.295-2.281-5.47 0-2.125.748-3.904 2.313-5.468 1.564-1.565 3.343-2.313 5.468-2.313zM42.812 41.063c-4.844 0-9.04 1.728-12.468 5.156-3.428 3.427-5.188 7.624-5.188 12.468 0 4.845 1.76 9.073 5.188 12.5 3.427 3.428 7.624 5.157 12.468 5.157 4.845 0 9.042-1.729 12.47-5.156 3.427-3.428 5.187-7.656 5.187-12.5 0-4.845-1.76-9.042-5.188-12.47-3.427-3.427-7.624-5.156-12.468-5.156zm0 1.374c4.515 0 8.306 1.587 11.5 4.782 3.195 3.194 4.75 6.954 4.75 11.468 0 4.515-1.555 8.306-4.75 11.5-3.194 3.195-6.985 4.782-11.5 4.782-4.514 0-8.305-1.587-11.5-4.781-3.194-3.195-4.75-6.986-4.75-11.5 0-4.515 1.556-8.275 4.75-11.47 3.195-3.194 6.986-4.78 11.5-4.78zm50.844 25.094c-.244 0-.256.041-.312.063-.057.021-.1.036-.156.062-.113.053-.236.128-.407.219-.342.183-.816.458-1.437.813-1.238.707-2.568 1.454-3.938 2.25-1.367.793-2.178 1.276-2.25 1.312l-.062.031-.063.031c-.296.223-.531.622-.531 1.032 0 .79.303 1.795.875 3.344.54 1.46 1.372 3.411 2.406 5.718-.613.871-1.135 1.836-1.625 2.875-3.076.318-5.512.633-7.125.969-.845.176-1.48.356-1.969.563-.244.103-.465.212-.656.374-.19.163-.406.422-.406.782v9.281c0 .36.215.618.406.781.191.163.412.272.656.375.49.207 1.124.387 1.97.563 1.612.335 4.048.651 7.124.969.46.977.994 1.927 1.625 2.843-1.035 2.308-1.866 4.29-2.406 5.75-.572 1.55-.875 2.554-.875 3.344 0 .41.235.81.531 1.031l.031.031h.032c2.693 1.568 4.722 2.747 6.094 3.532.685.392 1.203.676 1.562.875.18.1.334.196.438.25.051.027.081.042.124.062.022.01.06.019.094.031.017.006.03.022.063.032.016.005.033-.006.062 0 .03.006.125.03.125.03.431 0 .595-.178.813-.343.217-.165.45-.382.719-.656.536-.548 1.216-1.328 2.062-2.375 1.559-1.928 2.582-3.248 3.25-4.219a20.9 20.9 0 0 0 1.656.094c.39 0 .98-.036 1.625-.094.668.971 1.691 2.29 3.25 4.219.847 1.047 1.527 1.827 2.063 2.375.268.274.501.491.719.656.217.165.38.344.812.344 0 0 .096-.026.125-.031.03-.006.046.005.063 0 .033-.01.045-.025.062-.032.033-.013.072-.02.094-.03a2.79 2.79 0 0 0 .125-.063c.104-.054.258-.15.437-.25.359-.2.877-.483 1.563-.875 1.371-.785 3.4-1.964 6.093-3.532h.032l.03-.03c.297-.223.532-.622.532-1.032 0-.79-.303-1.795-.875-3.344-.54-1.46-1.371-3.442-2.406-5.75a19.943 19.943 0 0 0 1.625-2.844c3.076-.317 5.512-.633 7.125-.968.846-.176 1.48-.356 1.969-.563.244-.103.465-.212.656-.375s.406-.421.406-.781v-9.281c0-.36-.215-.619-.406-.781-.191-.163-.412-.272-.656-.376-.49-.206-1.123-.386-1.97-.562-1.612-.336-4.048-.651-7.124-.969-.49-1.04-1.012-2.004-1.625-2.875 1.034-2.307 1.867-4.259 2.406-5.719.572-1.548.875-2.553.875-3.343 0-.41-.235-.81-.531-1.031l-.031-.032h-.032c-2.65-1.546-4.657-2.724-6.03-3.5a69.583 69.583 0 0 0-1.595-.875c-.187-.1-.349-.162-.468-.219-.06-.028-.1-.071-.157-.093-.057-.022-.046-.063-.312-.063h-.125l-.094.031-.406.157-.156.031-.125.125c-1.774 1.774-3.751 4.215-5.906 7.188a20.204 20.204 0 0 0-1.657-.094c-.392 0-1.007.035-1.656.094-.67-.972-1.691-2.28-3.25-4.188-.846-1.036-1.526-1.833-2.063-2.375a6.238 6.238 0 0 0-.718-.625c-.218-.163-.385-.344-.813-.344zM93.625 69c.008-.004.024.004.031 0 .125.096.3.265.531.5.48.484 1.138 1.233 1.97 2.25 1.67 2.045 2.817 3.555 3.406 4.438l.25.343.406-.062a21.57 21.57 0 0 1 1.937-.125c.395 0 1.035.038 1.906.125l.407.062.219-.344c2.195-3.056 4.16-5.425 5.906-7.187.007.003.024-.003.031 0 .08.04.158.09.281.156.354.188.881.46 1.563.844 1.34.757 3.322 1.9 5.906 3.406-.011.34-.24 1.35-.781 2.813-.554 1.497-1.379 3.483-2.5 5.969l-.188.374.25.344c.718.971 1.351 2.073 1.906 3.313l.157.344.406.062c3.276.33 5.746.668 7.344 1 .798.166 1.386.328 1.718.469.109.046.141.065.188.094v8.843c-.047.03-.08.048-.188.094-.332.14-.92.303-1.718.469-1.598.332-4.068.67-7.344 1l-.406.031-.156.375a18.742 18.742 0 0 1-1.907 3.344l-.25.312.188.375c1.121 2.486 1.946 4.472 2.5 5.969.54 1.463.77 2.473.781 2.813-2.628 1.529-4.656 2.668-6 3.437-.683.391-1.183.682-1.531.875-.095.053-.15.088-.219.125-.125-.098-.306-.238-.531-.469-.48-.49-1.138-1.253-1.969-2.281-1.672-2.068-2.817-3.584-3.406-4.469l-.25-.344-.406.032c-.872.087-1.512.125-1.907.125-.394 0-1.066-.038-1.937-.125l-.406-.031-.25.343c-.59.885-1.735 2.401-3.407 4.469-.831 1.028-1.49 1.792-1.969 2.281-.225.23-.405.371-.53.469-.07-.037-.125-.072-.22-.125-.347-.193-.848-.484-1.53-.875-1.345-.77-3.372-1.908-6-3.438.01-.34.24-1.35.78-2.812.554-1.497 1.41-3.483 2.532-5.969l.156-.375-.25-.312A18.746 18.746 0 0 1 87.219 99l-.156-.375-.407-.031c-3.276-.33-5.746-.668-7.344-1-.798-.166-1.385-.328-1.718-.469a1.131 1.131 0 0 1-.188-.094v-8.844c.047-.028.08-.047.188-.093.333-.141.92-.303 1.719-.469 1.597-.332 4.067-.67 7.343-1l.406-.063.157-.343c.555-1.24 1.188-2.342 1.906-3.313l.25-.344-.156-.374c-1.122-2.486-1.978-4.472-2.531-5.97-.536-1.447-.766-2.43-.782-2.78.309-.16.92-.527 2.219-1.282a647.942 647.942 0 0 1 3.906-2.25 57 57 0 0 1 1.406-.781c.092-.049.123-.092.188-.125zm8.531 14.438c-2.466 0-4.678.928-6.469 2.718-1.79 1.79-2.718 3.972-2.718 6.438 0 2.505.915 4.728 2.687 6.5 1.772 1.772 3.995 2.687 6.5 2.687s4.697-.915 6.469-2.687c1.772-1.772 2.688-3.995 2.688-6.5 0-2.466-.929-4.647-2.72-6.438-1.79-1.79-3.97-2.719-6.437-2.719zm0 1.406c2.125 0 3.873.748 5.438 2.312 1.564 1.565 2.312 3.313 2.312 5.438 0 2.174-.742 3.96-2.281 5.5-1.539 1.539-3.294 2.281-5.469 2.281-2.174 0-3.96-.742-5.5-2.281-1.539-1.54-2.281-3.326-2.281-5.5 0-2.125.748-3.873 2.313-5.438 1.564-1.564 3.343-2.312 5.468-2.312z" font-weight="400" color="#000" fill="#fff" overflow="visible" font-family="Sans"/></svg>