<svg xmlns="http://www.w3.org/2000/svg" width="107.9" height="107.9"><g fill="#e3e2db"><path d="M107.9 53.95c0 29.796-24.154 53.95-53.95 53.95C24.154 107.9 0 83.746 0 53.95 0 24.155 24.154 0 53.95 0c29.796 0 53.95 24.155 53.95 53.95z" fill="#d7d7d7" fill-opacity=".482"/><path d="M102.95 53.95c0 27.062-21.938 49-49 49s-49-21.938-49-49 21.938-49 49-49 49 21.938 49 49z"/></g><g fill="none" fill-rule="evenodd"><path d="M75.81 36.657l.004-.005c-4.953-5.929-12.4-9.703-20.728-9.703-10.6 0-19.767 6.112-24.186 15h35.192c2.525 0 4.983-.87 6.915-2.495a22.506 22.506 0 0 0 2.804-2.797" fill="#fec514"/><path d="M28.086 53.95c0 2.422.324 4.767.922 7h33.078a7 7 0 1 0 0-14H29.008a27.02 27.02 0 0 0-.922 7" fill="#343741"/><path d="M75.81 71.243l.004.006c-4.953 5.928-12.4 9.702-20.728 9.702-10.6 0-19.767-6.112-24.186-15h35.192c2.525 0 4.983.87 6.915 2.496a22.506 22.506 0 0 1 2.804 2.795" fill="#00bfb3"/></g></svg>