<?xml version="1.0" encoding="UTF-8" standalone="no"?>
<svg
   xmlns:dc="http://purl.org/dc/elements/1.1/"
   xmlns:cc="http://creativecommons.org/ns#"
   xmlns:rdf="http://www.w3.org/1999/02/22-rdf-syntax-ns#"
   xmlns:svg="http://www.w3.org/2000/svg"
   xmlns="http://www.w3.org/2000/svg"
   xmlns:sodipodi="http://sodipodi.sourceforge.net/DTD/sodipodi-0.dtd"
   xmlns:inkscape="http://www.inkscape.org/namespaces/inkscape"
   width="107.9"
   height="107.9"
   id="svg2"
   version="1.1"
   inkscape:version="0.91 r13725"
   sodipodi:docname="elasticsearch.svg">
  <metadata
     id="metadata16">
    <rdf:RDF>
      <cc:Work
         rdf:about="">
        <dc:format>image/svg+xml</dc:format>
        <dc:type
           rdf:resource="http://purl.org/dc/dcmitype/StillImage" />
        <dc:title />
      </cc:Work>
    </rdf:RDF>
  </metadata>
  <defs
     id="defs14">
    <inkscape:perspective
       sodipodi:type="inkscape:persp3d"
       inkscape:vp_x="0 : 53.950001 : 1"
       inkscape:vp_y="0 : 1000 : 0"
       inkscape:vp_z="107.9 : 53.950001 : 1"
       inkscape:persp3d-origin="53.950001 : 35.966667 : 1"
       id="perspective4166" />
  </defs>
  <sodipodi:namedview
     pagecolor="#ffffff"
     bordercolor="#666666"
     borderopacity="1"
     objecttolerance="10"
     gridtolerance="10"
     guidetolerance="10"
     inkscape:pageopacity="0"
     inkscape:pageshadow="2"
     inkscape:window-width="1920"
     inkscape:window-height="1017"
     id="namedview12"
     showgrid="false"
     inkscape:zoom="4.3744207"
     inkscape:cx="-28.709677"
     inkscape:cy="33.055426"
     inkscape:window-x="-8"
     inkscape:window-y="-8"
     inkscape:window-maximized="1"
     inkscape:current-layer="svg2" />
  <g
     transform="translate(-70.05 -316.412)"
     id="g4"
     style="fill:#e3e2db">
    <path
       d="M177.95 370.362c0 29.796-24.154 53.95-53.95 53.95-29.796 0-53.95-24.154-53.95-53.95 0-29.795 24.154-53.95 53.95-53.95 29.796 0 53.95 24.155 53.95 53.95z"
       fill="#d7d7d7"
       fill-opacity=".481"
       id="path6"
       style="fill:#d7d7d7;fill-opacity:0.48235294" />
    <path
       d="M173 370.362c0 27.062-21.938 49-49 49s-49-21.938-49-49 21.938-49 49-49 49 21.938 49 49z"
       fill="#374548"
       id="path8"
       style="fill:#e3e2db" />
  </g>
  <g
     id="icon-/-product-logo-/-64x64px-/-elastic-sesrch-/-color"
     style="fill:none;fill-rule:evenodd;stroke:none;stroke-width:1"
     transform="translate(20.0862,21.95)">
    <g
       transform="translate(8,4.9995)"
       id="logo-elastic-search-64x64-color">
      <path
         id="Fill-1"
         d="m 47.7246,9.708 0.003,-0.006 C 42.7746,3.774 35.3286,0 26.9996,0 16.4006,0 7.2326,6.112 2.8136,15 l 35.192,0 c 2.525,0 4.983,-0.87 6.915,-2.496 1.004,-0.845 1.943,-1.765 2.804,-2.796"
         inkscape:connector-curvature="0"
         style="fill:#fec514" />
      <path
         id="Fill-4"
         d="m 0,27.0005 c 0,2.422 0.324,4.767 0.922,7 l 33.078,0 c 3.866,0 7,-3.134 7,-7 0,-3.866 -3.134,-7 -7,-7 l -33.078,0 C 0.324,22.2335 0,24.5785 0,27.0005"
         inkscape:connector-curvature="0"
         style="fill:#343741" />
      <path
         id="Fill-6"
         d="m 47.7246,44.293 0.003,0.006 c -4.953,5.928 -12.399,9.702 -20.728,9.702 -10.599,0 -19.767,-6.112 -24.186,-15 l 35.192,0 c 2.525,0 4.983,0.87 6.915,2.496 1.004,0.845 1.943,1.765 2.804,2.796"
         inkscape:connector-curvature="0"
         style="fill:#00bfb3" />
    </g>
  </g>
</svg>
