<svg xmlns="http://www.w3.org/2000/svg" width="384.2" height="382.022"><g fill="none" stroke="#fff"><path d="M265.986 36.072c0 7.566-6.134 13.7-13.7 13.7-7.567 0-13.7-6.134-13.7-13.7 0-7.567 6.133-13.7 13.7-13.7 7.566 0 13.7 6.133 13.7 13.7z" stroke-width="2.5"/><path d="M210.629 19.286c0 9.933-8.053 17.986-17.986 17.986s-17.986-8.053-17.986-17.986S182.71 1.3 192.643 1.3s17.986 8.053 17.986 17.986z" stroke-width="2.599"/><path d="M146.7 29.107c0 11.413-9.251 20.665-20.664 20.665-11.413 0-20.665-9.252-20.665-20.665 0-11.412 9.252-20.664 20.665-20.664 11.413 0 20.664 9.252 20.664 20.664z" stroke-width="2.75"/><path d="M93.129 74.643c0 13.681-11.09 24.772-24.772 24.772-13.68 0-24.771-11.091-24.771-24.772 0-13.68 11.09-24.772 24.771-24.772 13.681 0 24.772 11.091 24.772 24.772z" stroke-width="3.099"/><path d="M58.486 152.5c0 15.654-12.69 28.343-28.343 28.343S1.8 168.153 1.8 152.5s12.69-28.343 28.343-28.343 28.343 12.69 28.343 28.343z" stroke-width="3.6"/><path d="M79.558 245c0 18.02-14.609 32.629-32.63 32.629-18.02 0-32.628-14.608-32.628-32.629 0-18.02 14.608-32.629 32.629-32.629 18.02 0 32.629 14.609 32.629 32.63z" stroke-width="4.001"/><path d="M158.129 324.643c0 21.57-17.487 39.057-39.057 39.057-21.571 0-39.058-17.486-39.058-39.057 0-21.57 17.487-39.057 39.058-39.057 21.57 0 39.057 17.486 39.057 39.057z" stroke-width="4.299"/><path d="M269.915 337.679c0 23.247-18.846 42.093-42.093 42.093-23.248 0-42.093-18.846-42.093-42.093 0-23.248 18.845-42.093 42.093-42.093 23.247 0 42.093 18.845 42.093 42.093z" stroke-width="4.501"/><path d="M381.7 272.143c0 25.713-20.844 46.557-46.557 46.557s-46.557-20.844-46.557-46.557 20.844-46.557 46.557-46.557S381.7 246.43 381.7 272.143z" stroke-width="4.999"/></g></svg>