<?xml version="1.0" encoding="UTF-8" standalone="no"?>
<!-- Created with Inkscape (http://www.inkscape.org/) -->

<svg
   xmlns:dc="http://purl.org/dc/elements/1.1/"
   xmlns:cc="http://creativecommons.org/ns#"
   xmlns:rdf="http://www.w3.org/1999/02/22-rdf-syntax-ns#"
   xmlns:svg="http://www.w3.org/2000/svg"
   xmlns="http://www.w3.org/2000/svg"
   xmlns:sodipodi="http://sodipodi.sourceforge.net/DTD/sodipodi-0.dtd"
   xmlns:inkscape="http://www.inkscape.org/namespaces/inkscape"
   width="379.90033"
   height="378.4718"
   id="svg2"
   version="1.1"
   inkscape:version="0.48.4 r9939"
   sodipodi:docname="New document 1">
  <defs
     id="defs4" />
  <sodipodi:namedview
     id="base"
     pagecolor="#ffffff"
     bordercolor="#666666"
     borderopacity="1.0"
     inkscape:pageopacity="0.0"
     inkscape:pageshadow="2"
     inkscape:zoom="0.49497475"
     inkscape:cx="110.86227"
     inkscape:cy="-190.99949"
     inkscape:document-units="px"
     inkscape:current-layer="layer1"
     showgrid="false"
     fit-margin-top="0"
     fit-margin-left="0"
     fit-margin-right="0"
     fit-margin-bottom="0"
     inkscape:window-width="1920"
     inkscape:window-height="1031"
     inkscape:window-x="0"
     inkscape:window-y="0"
     inkscape:window-maximized="1" />
  <metadata
     id="metadata7">
    <rdf:RDF>
      <cc:Work
         rdf:about="">
        <dc:format>image/svg+xml</dc:format>
        <dc:type
           rdf:resource="http://purl.org/dc/dcmitype/StillImage" />
        <dc:title></dc:title>
      </cc:Work>
    </rdf:RDF>
  </metadata>
  <g
     inkscape:label="Layer 1"
     inkscape:groupmode="layer"
     id="layer1"
     transform="translate(-179.0184,-225.2522)">
    <path
       sodipodi:type="arc"
       style="fill:#0090ac;fill-opacity:1;fill-rule:nonzero;stroke:none"
       id="path3764"
       sodipodi:cx="434.42874"
       sodipodi:cy="260.2132"
       sodipodi:rx="13.700194"
       sodipodi:ry="13.700194"
       d="m 448.12894,260.2132 c 0,7.5664 -6.13379,13.70019 -13.7002,13.70019 -7.56641,0 -13.70019,-6.13379 -13.70019,-13.70019 0,-7.56641 6.13378,-13.7002 13.70019,-13.7002 7.56641,0 13.7002,6.13379 13.7002,13.7002 z"
       transform="translate(-4.9244937,-0.1894036)" />
    <path
       transform="matrix(1.3128215,0,0,1.3128215,-200.46596,-98.375372)"
       d="m 448.12894,260.2132 c 0,7.5664 -6.13379,13.70019 -13.7002,13.70019 -7.56641,0 -13.70019,-6.13379 -13.70019,-13.70019 0,-7.56641 6.13378,-13.7002 13.70019,-13.7002 7.56641,0 13.7002,6.13379 13.7002,13.7002 z"
       sodipodi:ry="13.700194"
       sodipodi:rx="13.700194"
       sodipodi:cy="260.2132"
       sodipodi:cx="434.42874"
       id="path3766"
       style="fill:#0090ac;fill-opacity:1;fill-rule:nonzero;stroke:none"
       sodipodi:type="arc" />
    <path
       sodipodi:type="arc"
       style="fill:#0090ac;fill-opacity:1;fill-rule:nonzero;stroke:none"
       id="path3768"
       sodipodi:cx="434.42874"
       sodipodi:cy="260.2132"
       sodipodi:rx="13.700194"
       sodipodi:ry="13.700194"
       d="m 448.12894,260.2132 c 0,7.5664 -6.13379,13.70019 -13.7002,13.70019 -7.56641,0 -13.70019,-6.13379 -13.70019,-13.70019 0,-7.56641 6.13378,-13.7002 13.70019,-13.7002 7.56641,0 13.7002,6.13379 13.7002,13.7002 z"
       transform="matrix(1.5083349,0,0,1.5083349,-352.00973,-139.42911)" />
    <path
       transform="matrix(1.8081221,0,0,1.8081221,-539.92447,-171.90198)"
       d="m 448.12894,260.2132 c 0,7.5664 -6.13379,13.70019 -13.7002,13.70019 -7.56641,0 -13.70019,-6.13379 -13.70019,-13.70019 0,-7.56641 6.13378,-13.7002 13.70019,-13.7002 7.56641,0 13.7002,6.13379 13.7002,13.7002 z"
       sodipodi:ry="13.700194"
       sodipodi:rx="13.700194"
       sodipodi:cy="260.2132"
       sodipodi:cx="434.42874"
       id="path3770"
       style="fill:#0090ac;fill-opacity:1;fill-rule:nonzero;stroke:none"
       sodipodi:type="arc" />
    <path
       sodipodi:type="arc"
       style="fill:#0090ac;fill-opacity:1;fill-rule:nonzero;stroke:none"
       id="path3772"
       sodipodi:cx="434.42874"
       sodipodi:cy="260.2132"
       sodipodi:rx="13.700194"
       sodipodi:ry="13.700194"
       d="m 448.12894,260.2132 c 0,7.5664 -6.13379,13.70019 -13.7002,13.70019 -7.56641,0 -13.70019,-6.13379 -13.70019,-13.70019 0,-7.56641 6.13378,-13.7002 13.70019,-13.7002 7.56641,0 13.7002,6.13379 13.7002,13.7002 z"
       transform="matrix(2.0688066,0,0,2.0688066,-691.3876,-161.87839)" />
    <path
       transform="matrix(2.381628,0,0,2.381628,-810.5005,-150.77865)"
       d="m 448.12894,260.2132 c 0,7.5664 -6.13379,13.70019 -13.7002,13.70019 -7.56641,0 -13.70019,-6.13379 -13.70019,-13.70019 0,-7.56641 6.13378,-13.7002 13.70019,-13.7002 7.56641,0 13.7002,6.13379 13.7002,13.7002 z"
       sodipodi:ry="13.700194"
       sodipodi:rx="13.700194"
       sodipodi:cy="260.2132"
       sodipodi:cx="434.42874"
       id="path3774"
       style="fill:#0090ac;fill-opacity:1;fill-rule:nonzero;stroke:none"
       sodipodi:type="arc" />
    <path
       sodipodi:type="arc"
       style="fill:#0090ac;fill-opacity:1;fill-rule:nonzero;stroke:none"
       id="path3776"
       sodipodi:cx="434.42874"
       sodipodi:cy="260.2132"
       sodipodi:rx="13.700194"
       sodipodi:ry="13.700194"
       d="m 448.12894,260.2132 c 0,7.5664 -6.13379,13.70019 -13.7002,13.70019 -7.56641,0 -13.70019,-6.13379 -13.70019,-13.70019 0,-7.56641 6.13378,-13.7002 13.70019,-13.7002 7.56641,0 13.7002,6.13379 13.7002,13.7002 z"
       transform="matrix(2.8508601,0,0,2.8508601,-942.20557,-193.23619)" />
    <path
       transform="matrix(3.0724419,0,0,3.0724419,-929.71709,-237.85899)"
       d="m 448.12894,260.2132 c 0,7.5664 -6.13379,13.70019 -13.7002,13.70019 -7.56641,0 -13.70019,-6.13379 -13.70019,-13.70019 0,-7.56641 6.13378,-13.7002 13.70019,-13.7002 7.56641,0 13.7002,6.13379 13.7002,13.7002 z"
       sodipodi:ry="13.700194"
       sodipodi:rx="13.700194"
       sodipodi:cy="260.2132"
       sodipodi:cx="434.42874"
       id="path3778"
       style="fill:#0090ac;fill-opacity:1;fill-rule:nonzero;stroke:none"
       sodipodi:type="arc" />
    <path
       sodipodi:type="arc"
       style="fill:#0090ac;fill-opacity:1;fill-rule:nonzero;stroke:none"
       id="path3780"
       sodipodi:cx="434.42874"
       sodipodi:cy="260.2132"
       sodipodi:rx="13.700194"
       sodipodi:ry="13.700194"
       d="m 448.12894,260.2132 c 0,7.5664 -6.13379,13.70019 -13.7002,13.70019 -7.56641,0 -13.70019,-6.13379 -13.70019,-13.70019 0,-7.56641 6.13378,-13.7002 13.70019,-13.7002 7.56641,0 13.7002,6.13379 13.7002,13.7002 z"
       transform="matrix(3.3982975,0,0,3.3982975,-963.95671,-388.18664)" />
  </g>
</svg>
