<?xml version="1.0" encoding="UTF-8" standalone="no"?>
<!-- Created with Inkscape (http://www.inkscape.org/) -->

<svg
   xmlns:dc="http://purl.org/dc/elements/1.1/"
   xmlns:cc="http://creativecommons.org/ns#"
   xmlns:rdf="http://www.w3.org/1999/02/22-rdf-syntax-ns#"
   xmlns:svg="http://www.w3.org/2000/svg"
   xmlns="http://www.w3.org/2000/svg"
   xmlns:sodipodi="http://sodipodi.sourceforge.net/DTD/sodipodi-0.dtd"
   xmlns:inkscape="http://www.inkscape.org/namespaces/inkscape"
   width="107.8995"
   height="107.8995"
   id="svg3889"
   version="1.1"
   inkscape:version="0.48.4 r9939"
   sodipodi:docname="relay.svg">
  <defs
     id="defs3891" />
  <sodipodi:namedview
     id="base"
     pagecolor="#ffffff"
     bordercolor="#666666"
     borderopacity="1.0"
     inkscape:pageopacity="0.0"
     inkscape:pageshadow="2"
     inkscape:zoom="2.8284271"
     inkscape:cx="-53.052463"
     inkscape:cy="29.503868"
     inkscape:document-units="px"
     inkscape:current-layer="layer1"
     showgrid="false"
     inkscape:snap-grids="true"
     inkscape:snap-to-guides="true"
     showborder="false"
     inkscape:window-width="1920"
     inkscape:window-height="1031"
     inkscape:window-x="0"
     inkscape:window-y="0"
     inkscape:window-maximized="1"
     fit-margin-top="0"
     fit-margin-left="0"
     fit-margin-right="0"
     fit-margin-bottom="0" />
  <metadata
     id="metadata3894">
    <rdf:RDF>
      <cc:Work
         rdf:about="">
        <dc:format>image/svg+xml</dc:format>
        <dc:type
           rdf:resource="http://purl.org/dc/dcmitype/StillImage" />
        <dc:title></dc:title>
      </cc:Work>
    </rdf:RDF>
  </metadata>
  <g
     inkscape:label="Layer 1"
     inkscape:groupmode="layer"
     id="layer1"
     transform="translate(-70.050252,-316.41243)">
    <path
       transform="matrix(0.89916247,0,0,0.89916247,12.503854,37.346408)"
       d="m 184,370.36218 c 0,33.13709 -26.86292,60 -60,60 -33.137085,0 -60,-26.86291 -60,-60 0,-33.13708 26.862915,-60 60,-60 33.13708,0 60,26.86292 60,60 z"
       sodipodi:ry="60"
       sodipodi:rx="60"
       sodipodi:cy="370.36218"
       sodipodi:cx="124"
       id="path3752"
       style="fill:#d7d7d7;fill-opacity:0.48076926;fill-rule:nonzero;stroke:none"
       sodipodi:type="arc" />
    <path
       sodipodi:type="arc"
       style="fill:#f4d7ee;fill-opacity:1;fill-rule:nonzero;stroke:none"
       id="path3897"
       sodipodi:cx="124"
       sodipodi:cy="370.36218"
       sodipodi:rx="60"
       sodipodi:ry="60"
       d="m 184,370.36218 c 0,33.13709 -26.86292,60 -60,60 -33.137085,0 -60,-26.86291 -60,-60 0,-33.13708 26.862915,-60 60,-60 33.13708,0 60,26.86292 60,60 z"
       transform="matrix(0.81666667,0,0,0.81666667,22.733333,67.899733)" />
    <g
       id="g3025"
       transform="matrix(0.17364889,0,0,0.17364889,89.270222,335.63241)">
      <g
         id="g3027">
        <g
           id="g3029">
          <rect
             id="rect3031"
             height="320.29999"
             width="16.6"
             transform="matrix(-0.866,-0.5,0.5,-0.866,163.3196,363.3136)"
             y="-0.40000001"
             x="122"
             style="fill:#e535ab" />
        </g>
      </g>
      <g
         id="g3033">
        <g
           id="g3035">
          <rect
             id="rect3037"
             height="16.6"
             width="320.29999"
             y="272.20001"
             x="39.799999"
             style="fill:#e535ab" />
        </g>
      </g>
      <g
         id="g3039">
        <g
           id="g3041">
          <rect
             id="rect3043"
             height="16.6"
             width="185"
             transform="matrix(-0.866,-0.5,0.5,-0.866,83.0693,663.3409)"
             y="312.20001"
             x="37.900002"
             style="fill:#e535ab" />
        </g>
      </g>
      <g
         id="g3045">
        <g
           id="g3047">
          <rect
             id="rect3049"
             height="16.6"
             width="185"
             transform="matrix(-0.866,-0.5,0.5,-0.866,463.3409,283.0693)"
             y="71.099998"
             x="177.10001"
             style="fill:#e535ab" />
        </g>
      </g>
      <g
         id="g3051">
        <g
           id="g3053">
          <rect
             id="rect3055"
             height="185"
             width="16.6"
             transform="matrix(-0.5,-0.866,0.866,-0.5,126.7903,232.1221)"
             y="-13"
             x="122.1"
             style="fill:#e535ab" />
        </g>
      </g>
      <g
         id="g3057">
        <g
           id="g3059">
          <rect
             id="rect3061"
             height="16.6"
             width="320.29999"
             transform="matrix(-0.5,-0.866,0.866,-0.5,266.0828,473.3766)"
             y="151.60001"
             x="109.6"
             style="fill:#e535ab" />
        </g>
      </g>
      <g
         id="g3063">
        <g
           id="g3065">
          <rect
             id="rect3067"
             height="185"
             width="16.6"
             y="107.5"
             x="52.5"
             style="fill:#e535ab" />
        </g>
      </g>
      <g
         id="g3069">
        <g
           id="g3071">
          <rect
             id="rect3073"
             height="185"
             width="16.6"
             y="107.5"
             x="330.89999"
             style="fill:#e535ab" />
        </g>
      </g>
      <g
         id="g3075">
        <g
           id="g3077">
          <rect
             id="rect3079"
             height="160.89999"
             width="14.5"
             transform="matrix(-0.5,-0.866,0.866,-0.5,126.7953,714.2875)"
             y="240.10001"
             x="262.39999"
             style="fill:#e535ab" />
        </g>
      </g>
      <path
         id="path3081"
         d="m 369.5,297.9 c -9.6,16.7 -31,22.4 -47.7,12.8 -16.7,-9.6 -22.4,-31 -12.8,-47.7 9.6,-16.7 31,-22.4 47.7,-12.8 16.8,9.7 22.5,31 12.8,47.7"
         inkscape:connector-curvature="0"
         style="fill:#e535ab" />
      <path
         id="path3083"
         d="m 90.9,137 c -9.6,16.7 -31,22.4 -47.7,12.8 -16.7,-9.6 -22.4,-31 -12.8,-47.7 9.6,-16.7 31,-22.4 47.7,-12.8 16.7,9.7 22.4,31 12.8,47.7"
         inkscape:connector-curvature="0"
         style="fill:#e535ab" />
      <path
         id="path3085"
         d="m 30.5,297.9 c -9.6,-16.7 -3.9,-38 12.8,-47.7 16.7,-9.6 38,-3.9 47.7,12.8 9.6,16.7 3.9,38 -12.8,47.7 -16.8,9.6 -38.1,3.9 -47.7,-12.8"
         inkscape:connector-curvature="0"
         style="fill:#e535ab" />
      <path
         id="path3087"
         d="m 309.1,137 c -9.6,-16.7 -3.9,-38 12.8,-47.7 16.7,-9.6 38,-3.9 47.7,12.8 9.6,16.7 3.9,38 -12.8,47.7 -16.7,9.6 -38.1,3.9 -47.7,-12.8"
         inkscape:connector-curvature="0"
         style="fill:#e535ab" />
      <path
         id="path3089"
         d="m 200,395.8 c -19.3,0 -34.9,-15.6 -34.9,-34.9 0,-19.3 15.6,-34.9 34.9,-34.9 19.3,0 34.9,15.6 34.9,34.9 0,19.2 -15.6,34.9 -34.9,34.9"
         inkscape:connector-curvature="0"
         style="fill:#e535ab" />
      <path
         id="path3091"
         d="m 200,74 c -19.3,0 -34.9,-15.6 -34.9,-34.9 0,-19.3 15.6,-34.9 34.9,-34.9 19.3,0 34.9,15.6 34.9,34.9 0,19.3 -15.6,34.9 -34.9,34.9"
         inkscape:connector-curvature="0"
         style="fill:#e535ab" />
    </g>
  </g>
</svg>
