<svg xmlns="http://www.w3.org/2000/svg" width="107.9" height="107.9"><path d="M107.9 53.95c0 29.795-24.155 53.95-53.95 53.95C24.154 107.9 0 83.744 0 53.95 0 24.154 24.154 0 53.95 0c29.795 0 53.95 24.154 53.95 53.95z" fill="#d7d7d7" fill-opacity=".481"/><path d="M102.95 53.95c0 27.062-21.938 49-49 49s-49-21.938-49-49 21.938-49 49-49 49 21.938 49 49z" fill="#f4d7ee"/><path fill="#e535ab" d="M29.2 71.777l-2.497-1.442 27.81-48.166 2.496 1.44z"/><path fill="#e535ab" d="M26.131 66.487h55.62v2.883H26.13z"/><path fill="#e535ab" d="M55.052 84.17l-27.82-16.063 1.441-2.497 27.82 16.063zM79.22 42.306L51.4 26.244l1.44-2.497L80.66 39.81z"/><path fill="#e535ab" d="M28.68 42.295L27.24 39.8l27.82-16.063 1.441 2.497z"/><path fill="#e535ab" d="M78.707 71.777L50.897 23.61l2.496-1.44 27.81 48.166zm-50.37-33.89h2.882v32.125h-2.882z"/><path fill="#e535ab" d="M76.68 37.887h2.883v32.125H76.68z"/><path fill="#e535ab" d="M54.561 82.949l-1.259-2.18 24.196-13.97 1.26 2.18z"/><path d="M83.383 70.95c-1.667 2.9-5.383 3.89-8.283 2.223-2.9-1.667-3.89-5.383-2.223-8.283 1.668-2.9 5.384-3.89 8.284-2.223a6.043 6.043 0 0 1 2.222 8.283M35.005 43.01c-1.667 2.9-5.383 3.89-8.283 2.223-2.9-1.667-3.89-5.384-2.223-8.283 1.667-2.9 5.383-3.89 8.283-2.223a6.074 6.074 0 0 1 2.223 8.283M24.516 70.95a6.074 6.074 0 0 1 2.223-8.283 6.074 6.074 0 0 1 8.283 2.223 6.074 6.074 0 0 1-2.223 8.283c-2.917 1.667-6.616.677-8.283-2.223m48.379-27.94a6.074 6.074 0 0 1 2.223-8.283A6.074 6.074 0 0 1 83.4 36.95a6.074 6.074 0 0 1-2.223 8.283c-2.9 1.667-6.616.677-8.283-2.223M53.95 87.95a6.055 6.055 0 0 1-6.06-6.06 6.055 6.055 0 0 1 6.06-6.06 6.055 6.055 0 0 1 6.06 6.06 6.066 6.066 0 0 1-6.06 6.06m0-55.88a6.055 6.055 0 0 1-6.06-6.06 6.055 6.055 0 0 1 6.06-6.06 6.055 6.055 0 0 1 6.06 6.06 6.055 6.055 0 0 1-6.06 6.06" fill="#e535ab"/></svg>