<svg xmlns="http://www.w3.org/2000/svg" width="39.352" height="28.792"><g style="line-height:125%"><path d="M30.505 28.792l-4.783-13.399-.28-5.592-1.638-.002L20.326 0h19.026v9.801H34.98l.085 18.991zM17.656.011L8.35.074 5.6 8.449h1.432L5 14.418 0 28.792h27.906l-2.562-7.312-2.563-7.156-2.562-7.156zm-3.576 9.49c1.346-.01 2.676.048 2.625.187l-1.907 5.22s3.176-.118 3.188 0c.03.285-5.656 9.28-5.656 9.28l.28-6.093s-2.235.11-2.343-.032c-.158-.207.972-7.873 1.063-8.28.043-.198 1.403-.273 2.75-.282z" style="-inkscape-font-specification:Sans Bold" font-size="40" font-weight="700" letter-spacing="0" word-spacing="0" fill="#fff" font-family="Sans"/></g></svg>