<svg xmlns="http://www.w3.org/2000/svg" width="215.281" height="286.031"><g transform="translate(-409.5 -456.844)"><path d="M415 457.344c-2.77 0-5 2.23-5 5v242.875c0 2.77 2.23 5 5 5h1.438v27.156c0 2.77 2.23 5 5 5h192.125c2.77 0 5-2.23 5-5v-27.156h.718c2.77 0 5-2.23 5-5V462.344c0-2.77-2.23-5-5-5H415z" fill="none" stroke="#fff" stroke-width="2"/><path d="M576.542 648.781c-2.77 0-2.98 2.23-2.98 5v2.157h-58.749c-2.77 0-1.97 1.115-1.97 2.5s-.8 2.5 1.97 2.5h58.75v1.437c0 2.77.21 5 2.98 5h26.196c2.77 0 2.98-2.23 2.98-5v-8.594c0-2.77-.21-5-2.98-5z" fill="none" stroke="#fff" stroke-width="2" stroke-linecap="round" stroke-linejoin="round"/><rect width="10" height="13.571" x="588.99" y="719.671" rx="2" ry="2" fill="none" stroke="#fff" stroke-width="2" stroke-linecap="round" stroke-linejoin="round"/><rect width="165" height="122.143" x="434.286" y="490.934" rx="5" ry="5" fill="none" stroke="#fff" stroke-width="2" stroke-linecap="round" stroke-linejoin="round"/><g style="line-height:125%" font-size="40" font-weight="700" letter-spacing="0" word-spacing="0" font-family="Sans" fill="none" stroke="#fff"><path style="-inkscape-font-specification:Sans Bold" d="M75.181 75.937l-5.35-13.399-.312-5.592-1.833-.002-3.89-9.8h21.28v9.802h-4.89l.096 18.991z" transform="matrix(2.8105 0 0 3.14343 337.67 357.419)"/><path transform="matrix(3.14343 0 0 3.14343 323.998 357.419)" d="M58.719 47.156l-9.307.063-2.75 8.375h1.432l-2.032 5.968-5 14.375H68.97l-2.563-7.312-2.562-7.156-2.563-7.157zm-3.577 9.49c1.347-.01 2.676.048 2.625.187l-1.906 5.219s3.175-.117 3.187 0c.03.286-5.656 9.281-5.656 9.281l.281-6.093s-2.235.11-2.343-.032c-.159-.207.971-7.873 1.062-8.281.044-.197 1.403-.272 2.75-.281z" style="-inkscape-font-specification:Sans Bold"/></g></g></svg>