<?xml version="1.0" encoding="UTF-8" standalone="no"?>
<!-- Created with Inkscape (http://www.inkscape.org/) -->

<svg
   xmlns:dc="http://purl.org/dc/elements/1.1/"
   xmlns:cc="http://creativecommons.org/ns#"
   xmlns:rdf="http://www.w3.org/1999/02/22-rdf-syntax-ns#"
   xmlns:svg="http://www.w3.org/2000/svg"
   xmlns="http://www.w3.org/2000/svg"
   xmlns:sodipodi="http://sodipodi.sourceforge.net/DTD/sodipodi-0.dtd"
   xmlns:inkscape="http://www.inkscape.org/namespaces/inkscape"
   width="215.28125"
   height="286.03125"
   id="svg2"
   version="1.1"
   inkscape:version="0.48.4 r9939"
   sodipodi:docname="mac-logo.svg"
   inkscape:export-filename="/home/alex/Design/alextselegidis.com/mac-logo.png"
   inkscape:export-xdpi="88.839996"
   inkscape:export-ydpi="88.839996">
  <defs
     id="defs4" />
  <sodipodi:namedview
     id="base"
     pagecolor="#ffffff"
     bordercolor="#666666"
     borderopacity="1.0"
     inkscape:pageopacity="0.0"
     inkscape:pageshadow="2"
     inkscape:zoom="0.9899495"
     inkscape:cx="126.76127"
     inkscape:cy="-3.4168159"
     inkscape:document-units="px"
     inkscape:current-layer="layer1"
     showgrid="false"
     inkscape:window-width="1920"
     inkscape:window-height="1031"
     inkscape:window-x="0"
     inkscape:window-y="0"
     inkscape:window-maximized="1"
     fit-margin-top="0"
     fit-margin-left="0"
     fit-margin-right="0"
     fit-margin-bottom="0" />
  <metadata
     id="metadata7">
    <rdf:RDF>
      <cc:Work
         rdf:about="">
        <dc:format>image/svg+xml</dc:format>
        <dc:type
           rdf:resource="http://purl.org/dc/dcmitype/StillImage" />
      </cc:Work>
    </rdf:RDF>
  </metadata>
  <g
     inkscape:label="Layer 1"
     inkscape:groupmode="layer"
     id="layer1"
     transform="translate(-409.5,-456.84375)">
    <path
       style="fill:none;stroke:#ffffff;stroke-width:2;stroke-opacity:1;stroke-miterlimit:4;stroke-dasharray:none"
       d="m 415,457.34375 c -2.77,0 -5,2.23 -5,5 l 0,242.875 c 0,2.77 2.23,5 5,5 l 1.4375,0 0,27.15625 c 0,2.77 2.23,5 5,5 l 192.125,0 c 2.77,0 5,-2.23 5,-5 l 0,-27.15625 0.71875,0 c 2.77,0 5,-2.23 5,-5 l 0,-242.875 c 0,-2.77 -2.23,-5 -5,-5 l -204.28125,0 z"
       id="rect2996"
       inkscape:connector-curvature="0" />
    <path
       style="fill:none;stroke:#ffffff;stroke-width:2;stroke-linecap:round;stroke-linejoin:round;stroke-miterlimit:4;stroke-opacity:1;stroke-dasharray:none;stroke-dashoffset:0"
       d="m 576.54219,648.78125 c -2.77,0 -2.97969,2.23 -2.97969,5 l 0,2.15625 -58.74921,0 c -2.77,0 -1.96954,1.115 -1.96954,2.5 0,1.385 -0.80046,2.5 1.96954,2.5 l 58.74921,0 0,1.4375 c 0,2.77 0.20969,5 2.97969,5 l 26.19687,0 c 2.77,0 2.97969,-2.23 2.97969,-5 l 0,-8.59375 c 0,-2.77 -0.20969,-5 -2.97969,-5 z"
       id="rect3766"
       inkscape:connector-curvature="0"
       sodipodi:nodetypes="sscssscsssssss" />
    <rect
       style="fill:none;stroke:#ffffff;stroke-width:2;stroke-linecap:round;stroke-linejoin:round;stroke-miterlimit:4;stroke-opacity:1;stroke-dasharray:none;stroke-dashoffset:0"
       id="rect3770"
       width="10"
       height="13.571428"
       x="588.98987"
       y="719.6709"
       rx="2"
       ry="2" />
    <rect
       style="fill:none;stroke:#ffffff;stroke-width:2;stroke-linecap:round;stroke-linejoin:round;stroke-miterlimit:4;stroke-opacity:1;stroke-dasharray:none;stroke-dashoffset:0"
       id="rect3774"
       width="165"
       height="122.14286"
       x="434.28571"
       y="490.93362"
       rx="5"
       ry="5" />
    <g
       id="layer1-4"
       inkscape:label="Layer 1"
       transform="matrix(3.1434291,0,0,3.1434291,323.99844,357.41899)"
       style="stroke:none;fill:#ffffff">
      <g
         transform="matrix(0.89408867,0,0,1,4.3489839,0)"
         id="flowRoot2985"
         style="font-size:40px;font-style:normal;font-weight:normal;line-height:125%;letter-spacing:0px;word-spacing:0px;fill:#ffffff;fill-opacity:1;stroke:none;font-family:Sans">
        <path
           sodipodi:nodetypes="cccccccccc"
           inkscape:connector-curvature="0"
           id="path2996"
           style="font-weight:bold;fill:none;fill-opacity:1;-inkscape-font-specification:Sans Bold;stroke:#ffffff"
           d="m 75.181293,75.937183 -5.350194,-13.398936 -0.3125,-5.59187 -1.832491,-0.0027 -3.890067,-9.79877 21.279737,0 0,9.801451 -4.888907,0 0.09553,18.990825 z" />
        <path
           transform="matrix(1.1184573,0,0,1,-4.8641528,0)"
           sodipodi:nodetypes="cccccccccccccscscccccs"
           inkscape:connector-curvature="0"
           id="path2994"
           d="m 58.71875,47.15625 -9.30675,0.0625 -2.75,8.375433 1.43175,-4.33e-4 -2.03125,5.96875 -5,14.374683 9.84375,0 10.25,0 7.8125,0 -2.5625,-7.312183 -2.5625,-7.15625 -2.5625,-7.15625 z m -3.576687,9.489501 c 1.346889,-0.009 2.676179,0.04782 2.625,0.1875 l -1.90625,5.21875 c 0,0 3.175251,-0.117257 3.1875,0 0.02985,0.28566 -5.65625,9.28125 -5.65625,9.28125 l 0.28125,-6.09375 c 0,0 -2.235799,0.110152 -2.34375,-0.03125 -0.158543,-0.207672 0.971712,-7.873057 1.0625,-8.28125 0.04387,-0.197242 1.403111,-0.272203 2.75,-0.28125 z"
           style="font-weight:bold;fill:none;fill-opacity:1;-inkscape-font-specification:Sans Bold;stroke:#ffffff" />
      </g>
    </g>
  </g>
</svg>
