<svg xmlns="http://www.w3.org/2000/svg" width="215.281" height="286.031"><g transform="translate(-409.5 -456.844)" fill="none" stroke="#fff"><path d="M415 457.344c-2.77 0-5 2.23-5 5v242.875c0 2.77 2.23 5 5 5h1.438v27.156c0 2.77 2.23 5 5 5h192.125c2.77 0 5-2.23 5-5v-27.156h.718c2.77 0 5-2.23 5-5V462.344c0-2.77-2.23-5-5-5H415z" stroke-width="2"/><path d="M576.542 648.781c-2.77 0-2.98 2.23-2.98 5v2.157h-58.749c-2.77 0-1.97 1.115-1.97 2.5s-.8 2.5 1.97 2.5h58.75v1.437c0 2.77.21 5 2.98 5h26.196c2.77 0 2.98-2.23 2.98-5v-8.594c0-2.77-.21-5-2.98-5z" stroke-width="2" stroke-linecap="round" stroke-linejoin="round"/><rect width="10" height="13.571" x="588.99" y="719.671" rx="2" ry="2" stroke-width="2" stroke-linecap="round" stroke-linejoin="round"/><rect width="165" height="122.143" x="434.286" y="490.934" rx="5" ry="5" stroke-width="2" stroke-linecap="round" stroke-linejoin="round"/><g style="line-height:125%" font-size="40" font-weight="700" letter-spacing="0" word-spacing="0" font-family="Sans"><path style="-inkscape-font-specification:Sans Bold" d="M75.181 75.937l-5.35-13.399-.312-5.592-1.833-.002-3.89-9.8h21.28v9.802h-4.89l.096 18.991z" transform="matrix(2.8105 0 0 3.14343 337.67 357.419)"/><path d="M508.577 505.65l-29.256.199-8.644 26.326h4.501l-6.387 18.76-15.717 45.187H540.8l-8.056-22.985-8.054-22.495-8.056-22.497zm-11.244 29.832c4.234-.032 8.412.15 8.252.588l-5.992 16.405s9.98-.368 10.018 0c.095.9-17.779 29.174-17.779 29.174l.883-19.153s-7.025.346-7.365-.1c-.5-.65 3.053-24.748 3.339-26.031.138-.62 4.41-.855 8.644-.883z" style="-inkscape-font-specification:Sans Bold" stroke-width="3.143"/></g></g></svg>