<?xml version="1.0" encoding="UTF-8" standalone="no"?>
<!-- Created with Inkscape (http://www.inkscape.org/) -->

<svg
   xmlns:dc="http://purl.org/dc/elements/1.1/"
   xmlns:cc="http://creativecommons.org/ns#"
   xmlns:rdf="http://www.w3.org/1999/02/22-rdf-syntax-ns#"
   xmlns:svg="http://www.w3.org/2000/svg"
   xmlns="http://www.w3.org/2000/svg"
   xmlns:sodipodi="http://sodipodi.sourceforge.net/DTD/sodipodi-0.dtd"
   xmlns:inkscape="http://www.inkscape.org/namespaces/inkscape"
   width="107.8995"
   height="107.8995"
   id="svg3889"
   version="1.1"
   inkscape:version="0.48.4 r9939"
   sodipodi:docname="mocha.svg">
  <defs
     id="defs3891" />
  <sodipodi:namedview
     id="base"
     pagecolor="#ffffff"
     bordercolor="#666666"
     borderopacity="1.0"
     inkscape:pageopacity="0.0"
     inkscape:pageshadow="2"
     inkscape:zoom="2"
     inkscape:cx="44.035008"
     inkscape:cy="61.64133"
     inkscape:document-units="px"
     inkscape:current-layer="layer1"
     showgrid="false"
     inkscape:snap-grids="true"
     inkscape:snap-to-guides="true"
     showborder="false"
     inkscape:window-width="1920"
     inkscape:window-height="1031"
     inkscape:window-x="0"
     inkscape:window-y="0"
     inkscape:window-maximized="1"
     fit-margin-top="0"
     fit-margin-left="0"
     fit-margin-right="0"
     fit-margin-bottom="0" />
  <metadata
     id="metadata3894">
    <rdf:RDF>
      <cc:Work
         rdf:about="">
        <dc:format>image/svg+xml</dc:format>
        <dc:type
           rdf:resource="http://purl.org/dc/dcmitype/StillImage" />
        <dc:title></dc:title>
      </cc:Work>
    </rdf:RDF>
  </metadata>
  <g
     inkscape:label="Layer 1"
     inkscape:groupmode="layer"
     id="layer1"
     transform="translate(-70.050252,-316.41243)">
    <path
       transform="matrix(0.89916247,0,0,0.89916247,12.503854,37.346408)"
       d="m 184,370.36218 c 0,33.13709 -26.86292,60 -60,60 -33.137085,0 -60,-26.86291 -60,-60 0,-33.13708 26.862915,-60 60,-60 33.13708,0 60,26.86292 60,60 z"
       sodipodi:ry="60"
       sodipodi:rx="60"
       sodipodi:cy="370.36218"
       sodipodi:cx="124"
       id="path3752"
       style="fill:#d7d7d7;fill-opacity:0.48076926;fill-rule:nonzero;stroke:none"
       sodipodi:type="arc" />
    <path
       sodipodi:type="arc"
       style="fill:#ffe6d5;fill-opacity:1;fill-rule:nonzero;stroke:none"
       id="path3897"
       sodipodi:cx="124"
       sodipodi:cy="370.36218"
       sodipodi:rx="60"
       sodipodi:ry="60"
       d="m 184,370.36218 c 0,33.13709 -26.86292,60 -60,60 -33.137085,0 -60,-26.86291 -60,-60 0,-33.13708 26.862915,-60 60,-60 33.13708,0 60,26.86292 60,60 z"
       transform="matrix(0.81666667,0,0,0.81666667,22.733333,67.899733)" />
    <g
       id="g2987"
       transform="matrix(0.14790139,0,0,0.14790139,79.67998,327.94151)"
       style="fill:#f26b00">
      <path
         id="path2989"
         d="m 142.536,198.858 c 0,26.36 -21.368,47.72 -47.72,47.72 -26.36,0 -47.722,-21.36 -47.722,-47.72 0,-26.36 21.36,-47.72 47.72,-47.72 26.355,0 47.722,21.36 47.722,47.72"
         inkscape:connector-curvature="0" />
      <path
         id="path2991"
         d="M 505.18,414.225 H 238.124 c -35.25,0 -63.926,-28.674 -63.926,-63.923 0,-35.249 28.678,-63.926 63.926,-63.926 h 120.78 c 20.816,0 37.753,-16.938 37.753,-37.756 0,-20.818 -16.938,-37.756 -37.753,-37.756 H 94.81 c -7.227,0 -13.086,-5.86 -13.086,-13.085 0,-7.227 5.86,-13.086 13.085,-13.086 h 264.093 c 35.25,0 63.923,28.678 63.923,63.926 0,35.248 -28.674,63.923 -63.923,63.923 h -120.78 c -20.82,0 -37.756,16.938 -37.756,37.76 0,20.816 16.938,37.753 37.756,37.753 H 505.18 c 7.227,0 13.086,5.86 13.086,13.085 0,7.226 -5.858,13.085 -13.085,13.085 z"
         inkscape:connector-curvature="0" />
      <path
         id="path2993"
         d="m 457.464,401.142 c 0,-26.36 21.36,-47.72 47.72,-47.72 26.36,0 47.72,21.36 47.72,47.72 0,26.36 -21.36,47.72 -47.72,47.72 -26.36,0 -47.72,-21.36 -47.72,-47.72"
         inkscape:connector-curvature="0" />
    </g>
  </g>
</svg>
