<svg xmlns="http://www.w3.org/2000/svg" width="107.9" height="107.9"><path d="M107.9 53.95c0 29.795-24.155 53.95-53.95 53.95C24.154 107.9 0 83.744 0 53.95 0 24.154 24.154 0 53.95 0c29.795 0 53.95 24.154 53.95 53.95z" fill="#d7d7d7" fill-opacity=".481"/><path d="M102.95 53.95c0 27.062-21.938 49-49 49s-49-21.938-49-49 21.938-49 49-49 49 21.938 49 49z" fill="#ffe6d5"/><g fill="#f26b00"><path d="M30.711 40.94a7.058 7.058 0 0 1-7.058 7.058 7.057 7.057 0 0 1-7.058-7.058 7.057 7.057 0 0 1 7.058-7.057 7.058 7.058 0 0 1 7.058 7.057"/><path d="M84.347 72.794H44.849c-5.214 0-9.455-4.241-9.455-9.455 0-5.213 4.241-9.455 9.455-9.455h17.863a5.59 5.59 0 0 0 5.584-5.584 5.59 5.59 0 0 0-5.584-5.584h-39.06a1.936 1.936 0 0 1 0-3.87h39.06c5.213 0 9.454 4.24 9.454 9.454 0 5.213-4.24 9.454-9.454 9.454H44.848a5.59 5.59 0 0 0-5.584 5.585 5.59 5.59 0 0 0 5.584 5.584h39.499a1.936 1.936 0 0 1 0 3.87z"/><path d="M77.29 70.859a7.057 7.057 0 0 1 7.057-7.058 7.057 7.057 0 0 1 7.058 7.058 7.057 7.057 0 0 1-7.058 7.057 7.057 7.057 0 0 1-7.058-7.057"/></g></svg>